<ttFont>
          <CharString index="0">
            219 hlineto
            -82 callgsubr
            -42 -16 7 14 -3 hvcurveto
            -103 543 rlineto
            -48 hlineto
            -285 -543 rlineto
            -14 -7 -17 -7 -42 -20 callsubr
            164 hlineto
            -82 callgsubr
            -40 -14 5 13 -5 hvcurveto
            76 147 rlineto
            192 hlineto
            31 -153 rlineto
            -8 -9 -18 -4 -33 hhcurveto
            -23 431 rmoveto
            46 -233 rlineto
            -168 hlineto
            return
          </CharString>
          <CharString index="1">
            rlineto
            -90 hlineto
            -59 -353 rlineto
            -29 -26 -42 -34 -56 hhcurveto
            -59 -19 31 41 9 1 10 2 10 hvcurveto
            53 315 rlineto
            -153 -107 callgsubr
            -45 -267 rlineto
            -2 -13 -1 -12 -11 vvcurveto
            -72 46 -34 109 56 48 36 33 33 vhcurveto
            return
          </CharString>
          <CharString index="2">
            rlineto
            140 hlineto
            9 -4 4 -8 -17 vvcurveto
            -9 -2 -11 -2 -14 vhcurveto
            21 hlineto
            27 160 rlineto
            -21 hlineto
            -7 -42 -8 -15 -15 -6 rrcurveto
            -140 hlineto
            -23 callsubr
            -87 callsubr
            return
          </CharString>
          <CharString index="3">
            rmoveto
            -23 18 -18 24 29 29 25 32 23 -18 18 -24 -29 -29 -25 -32 vhcurveto
            -184 hmoveto
            -23 18 -18 24 29 29 25 32 23 -18 18 -24 -29 -29 -25 -32 vhcurveto
            return
          </CharString>
          <CharString index="4">
            rmoveto
            38 42 18 94 15 hvcurveto
            -19 hlineto
            -37 -6 -13 -22 -40 -30 -76 59 -41 hhcurveto
            -38 -41 -18 -94 -15 hvcurveto
            19 hlineto
            37 6 14 22 40 30 74 -59 41 hhcurveto
            return
          </CharString>
          <CharString index="5">
            -24 19 -11 26 vhcurveto
            19 6 13 8 hhcurveto
            8 2 0 -25 -4 hvcurveto
            -8 -45 -54 -34 -30 -4 -5 -28 rcurveline
            34 10 112 37 92 vvcurveto
            45 -34 26 -44 -10 -45 -7 -45 vhcurveto
            return
          </CharString>
          <CharString index="6">
            rmoveto
            -24 18 -19 25 30 30 25 34 24 -18 19 -25 -30 -30 -25 -34 vhcurveto
            return
          </CharString>
          <CharString index="7">
            rmoveto
            27 -21 21 -60 -50 -38 -19 -31 -13 7 -7 16 vhcurveto
            40 -15 56 38 hhcurveto
            22 7 -8 -20 -67 -63 6 -12 -67 hvcurveto
            20 hlineto
            6 36 103 20 66 vvcurveto
            return
          </CharString>
          <CharString index="8">
            -52 callgsubr
            -7 vvcurveto
            -6 1 -6 1 -5 vhcurveto
            -20 -34 -53 -14 -40 hhcurveto
            -29 -33 12 45 111 125 12 86 26 hvcurveto
            return
          </CharString>
          <CharString index="9">
            -82 callgsubr
            -42 -14 6 14 -4 hvcurveto
            return
          </CharString>
          <CharString index="10">
            rmoveto
            91 48 77 47 8 hvcurveto
            -28 hlineto
            -25 -4 -36 -27 -67 hhcurveto
            -63 -26 24 23 hvcurveto
            5 -28 vlineto
            -1 -6 0 -6 -6 vvcurveto
            -46 27 -60 79 vhcurveto
            return
          </CharString>
          <CharString index="11">
            rmoveto
            -219 18 callsubr
            -7 -13 7 hvcurveto
            131 -324 -74 callsubr
            230 299 rlineto
            8 10 17 5 32 -56 callsubr
            39 15 -6 -12 5 hvcurveto
            -204 -265 -110 271 rlineto
            9 10 17 3 33 hhcurveto
            endchar
          </CharString>
          <CharString index="12">
            -110 -101 callsubr
            return
          </CharString>
          <CharString index="13">
            16 97 rlineto
            -403 -83 callsubr
            return
          </CharString>
          <CharString index="14">
            -14 -8 -16 -6 -42 hhcurveto
            return
          </CharString>
          <CharString index="15">
            hlineto
            9 -4 4 -8 -17 vvcurveto
            -9 -1 -11 -2 -14 vhcurveto
            21 hlineto
            return
          </CharString>
          <CharString index="16">
            rmoveto
            23 -15 7 -14 vhcurveto
            39 17 41 9 52 hhcurveto
            46 34 -29 -60 -21 -3 -24 -4 -28 hvcurveto
            return
          </CharString>
          <CharString index="17">
            rmoveto
            50 hlineto
            121 -43 callgsubr
            -26 hlineto
            -108 -87 -78 87 rlineto
            -26 hlineto
            return
          </CharString>
          <CharString index="18">
            rmoveto
            -50 callsubr
            26 -138 -142 -271 -83 418 rlineto
            -45 callsubr
            103 -543 rlineto
            48 hlineto
            182 349 67 -349 rlineto
            48 hlineto
            285 543 rlineto
            14 7 17 7 42 -56 callsubr
            40 14 -5 -13 5 hvcurveto
            -216 -413 -83 419 14 callsubr
            endchar
          </CharString>
          <CharString index="19">
            -86 callsubr
            25 hvcurveto
            return
          </CharString>
          <CharString index="20">
            207 -92 callsubr
            return
          </CharString>
          <CharString index="21">
            -95 callgsubr
            23 -3 -2 return
          </CharString>
          <CharString index="22">
            8 callgsubr
            -52 -310 rlineto
            -2 -10 -1 -9 -9 vvcurveto
            -45 22 -37 76 68 44 32 60 24 vhcurveto
            -16 callsubr
            -44 -17 -35 -22 -21 hhcurveto
            -33 -11 16 25 7 1 8 1 8 hvcurveto
            54 318 -21 callsubr
            return
          </CharString>
          <CharString index="23">
            rmoveto
            13 callgsubr
            -85 -510 rlineto
            -14 -8 -16 -6 -42 hhcurveto
            -4 -21 rlineto
            218 -77 callgsubr
            endchar
          </CharString>
          <CharString index="24">
            -107 callgsubr
            -84 -503 rlineto
            -93 callsubr
            return
          </CharString>
          <CharString index="25">
            rmoveto
            -54 hlineto
            -140 -246 -44 callsubr
            rlineto
            49 hlineto
            145 254 58 -254 rlineto
            49 hlineto
            15 90 205 168 30 182 rrcurveto
            -104 hlineto
            -63 callgsubr
            28 16 -3 -6 8 hvcurveto
            -28 -104 -84 -101 -62 -83 rrcurveto
            endchar
          </CharString>
          <CharString index="26">
            -104 callsubr
            hintmask 1010010000000000
            -60 callgsubr
            hintmask 0110010000000000
            -42 10 46 -17 81 hhcurveto
            -101 callgsubr
            endchar
          </CharString>
          <CharString index="27">
            rmoveto
            150 81 182 142 101 39 -103 -105 -149 -80 -180 -142 -102 -39 101 104 vhcurveto
            441 236 rmoveto
            78 -35 -72 52 -101 hhcurveto
            -177 -156 -162 -199 -137 84 -107 147 175 158 162 198 34 -5 32 -10 29 hvcurveto
            return
          </CharString>
          <CharString index="28">
            -19 -36 30 -51 hhcurveto
            -166 -194 -138 -228 -130 80 -109 163 123 70 70 60 35 hvcurveto
            -16 callsubr
            -49 -26 -84 -59 -70 hhcurveto
            -89 -74 70 137 187 116 143 133 return
          </CharString>
          <CharString index="29">
            -177 rmoveto
            -8 -7 1 1 -9 hvcurveto
            -3 -17 rlineto
            -5 28 24 -2 21 hhcurveto
            92 31 44 42 44 -61 14 -28 hvcurveto
            return
          </CharString>
          <CharString index="30">
            rmoveto
            -44 callgsubr
            46 24 24 29 hvcurveto
            hintmask 0011111010000000
            -27 18 45 46 callgsubr
            87 524 -88 callsubr
            -78 -498 rmoveto
            hintmask 0101111010000000
            -70 callsubr
            endchar
          </CharString>
          <CharString index="31">
            16 93 rlineto
            -21 hlineto
            -7 -42 -9 -15 -15 -6 rrcurveto
            -216 hlineto
            334 410 rlineto
            -346 hlineto
            -16 -93 rlineto
            21 hlineto
            7 42 9 15 15 6 rrcurveto
            192 hlineto
            -334 -410 rlineto
            endchar
          </CharString>
          <CharString index="32">
            57 -45 77 -136 -157 -90 -121 -154 return
          </CharString>
          <CharString index="33">
            -30 -179 -80 callgsubr
            35 211 return
          </CharString>
          <CharString index="34">
            -54 callsubr
            455 146 -496 rlineto
            15 hlineto
            306 490 -75 -449 rlineto
            -14 -8 -16 -6 -42 hhcurveto
            -4 -21 rlineto
            218 -53 callsubr
            -148 hlineto
            -291 -465 -135 465 rlineto
            -146 -83 callsubr
            endchar
          </CharString>
          <CharString index="35">
            661 -104 callsubr
            return
          </CharString>
          <CharString index="36">
            21 -21 -54 callgsubr
            -21 21 return
          </CharString>
          <CharString index="37">
            -18 -24 -39 -19 -59 hhcurveto
            -56 -32 93 71 145 103 87 69 44 28 -11 -11 17 hvcurveto
            -51 -302 rlineto
            -1 -6 -1 -6 -6 vvcurveto
            -6 1 -6 1 -5 vhcurveto
            return
          </CharString>
          <CharString index="38">
            424 hlineto
            40 97 rlineto
            -20 hlineto
            return
          </CharString>
          <CharString index="39">
            rmoveto
            -157 hlineto
            -63 callgsubr
            24 15 -2 -4 9 hvcurveto
            -203 -159 114 -206 rlineto
            -23 12 17 -25 37 hhcurveto
            101 hlineto
            -82 callgsubr
            -38 -14 5 14 -8 hvcurveto
            -132 239 163 127 rlineto
            9 12 13 4 31 hhcurveto
            -358 140 rmoveto
            -94 -559 rlineto
            90 hlineto
            105 630 -88 callsubr
            endchar
          </CharString>
          <CharString index="40">
            rmoveto
            -42 hlineto
            -235 -270 rlineto
            161 hlineto
            -12 -72 rlineto
            -6 -4 -9 -4 -30 hhcurveto
            -4 -23 rlineto
            154 hlineto
            4 23 rlineto
            -25 -13 3 7 -3 hvcurveto
            12 72 rlineto
            55 hlineto
            5 29 rlineto
            -55 hlineto
            -70 hmoveto
            -105 hlineto
            130 150 rlineto
            return
          </CharString>
          <CharString index="41">
            rlineto
            -126 -21 -84 -78 -87 hhcurveto
            return
          </CharString>
          <CharString index="42">
            rmoveto
            21 -21 8 -19 -25 -27 -23 -33 -37 58 -47 116 131 79 98 131 22 vhcurveto
            59 355 rlineto
            0 -39 66 -137 vhcurveto
            return
          </CharString>
          <CharString index="43">
            -42 10 46 -17 81 hhcurveto
            -101 callgsubr
            35 207 rlineto
            10 hlineto
            61 98 26 93 hvcurveto
            endchar
          </CharString>
          <CharString index="44">
            rmoveto
            hintmask 00110010
            242 hlineto
            179 158 142 210 140 -93 93 -158 hvcurveto
            hintmask 01001010
            -230 -83 callsubr
            hintmask 00110010
            244 535 rmoveto
            75 hlineto
            79 78 -57 -135 -214 -139 -116 -93 hvcurveto
            -87 hlineto
            endchar
          </CharString>
          <CharString index="45">
            rmoveto
            16 -9 12 11 12 13 12 7 rlinecurve
            -37 -217 rlineto
            -5 -4 -9 -5 -30 hhcurveto
            -4 -23 rlineto
            156 hlineto
            4 23 rlineto
            -25 -14 2 8 -3 hvcurveto
            58 342 rlineto
            -18 hlineto
            -22 -70 -102 -45 -34 hvcurveto
            return
          </CharString>
          <CharString index="46">
            -142 -107 callgsubr
            return
          </CharString>
          <CharString index="47">
            160 hlineto
            -98 callsubr
            return
          </CharString>
          <CharString index="48">
            -9 0 -49 callgsubr
            return
          </CharString>
          <CharString index="49">
            -94 callsubr
            endchar
          </CharString>
          <CharString index="50">
            -91 callgsubr
            -82 callgsubr
            return
          </CharString>
          <CharString index="51">
            hhcurveto
            -82 callgsubr
            -29 callsubr
            return
          </CharString>
          <CharString index="52">
            rmoveto
            96 130 58 124 76 -65 41 -63 43 hvcurveto
            -60 40 -80 31 58 vvcurveto
            43 48 57 69 vhcurveto
            return
          </CharString>
          <CharString index="53">
            -60 callsubr
            76 return
          </CharString>
          <CharString index="54">
            hlineto
            -57 callgsubr
            return
          </CharString>
          <CharString index="55">
            rmoveto
            28 39 rlineto
            -9 26 30 -5 34 hhcurveto
            181 91 127 155 65 -23 52 -49 30 hvcurveto
            25 36 -27 20 -29 -41 rlineto
            10 -27 -33 6 -39 hhcurveto
            -9 callgsubr
            -70 28 -56 53 -31 hvcurveto
            -24 -34 rlineto
            303 375 rmoveto
            11 -22 6 -29 -36 vvcurveto
            -130 -60 -123 -97 -32 -27 9 18 -20 vhcurveto
            199 342 rmoveto
            -221 -315 rlineto
            -14 25 -8 33 44 vvcurveto
            119 58 124 95 38 31 -9 -21 21 vhcurveto
            endchar
          </CharString>
          <CharString index="56">
            240 hlineto
            166 104 78 109 49 -36 51 -92 22 hvcurveto
            77 25 53 53 75 vvcurveto
            62 -65 61 -165 vhcurveto
            return
          </CharString>
          <CharString index="57">
            -25 callsubr
            42 16 -7 -14 3 hvcurveto
            return
          </CharString>
          <CharString index="58">
            161 -42 callsubr
            -48 callsubr
            return
          </CharString>
          <CharString index="59">
            -85 -510 rlineto
            -93 callsubr
            -4 -21 rlineto
            return
          </CharString>
          <CharString index="60">
            rmoveto
            -61 callgsubr
            return
          </CharString>
          <CharString index="61">
            -1 callsubr
            hintmask 00011001
            86 517 -18 callgsubr
            hintmask 01010001
            -208 -319 rmoveto
            hintmask 00111001
            -51 callsubr
            hintmask 01010101
            -184 -83 callsubr
            endchar
          </CharString>
          <CharString index="62">
            31 callgsubr
            -82 callgsubr
            -50 callsubr
            return
          </CharString>
          <CharString index="63">
            -73 callgsubr
            92 -399 return
          </CharString>
          <CharString index="64">
            449 rmoveto
            23 -15 7 -14 vhcurveto
            39 17 36 47 81 hhcurveto
            78 28 -39 -60 -185 -183 9 -29 -172 hvcurveto
            -13 -77 -80 callgsubr
            21 127 rlineto
            15 89 187 37 166 vvcurveto
            63 -47 72 -134 -131 -63 -72 -70 -12 vhcurveto
            -1 -4 0 -4 -4 vvcurveto
            -23 13 -15 22 25 27 14 32 vhcurveto
            endchar
          </CharString>
          <CharString index="65">
            446 rmoveto
            21 -25 5 21 vvcurveto
            16 8 15 9 8 vhcurveto
            11 12 30 8 73 hhcurveto
            return
          </CharString>
          <CharString index="66">
            -63 -10 30 392 38 hstem
            19 90 237 101 vstem
            346 201 rmoveto
            -110 -18 -68 -71 -51 hhcurveto
            -79 -21 55 35 46 36 17 52 8 hvcurveto
            -178 -57 rmoveto
            -57 45 -77 136 157 90 121 154 146 -99 39 -81 -104 -62 -30 -62 -48 vhcurveto
            22 -12 rlineto
            50 48 45 16 58 hhcurveto
            71 51 -81 -99 hvcurveto
            -193 -26 rlineto
            -124 -17 -12 -30 -35 vvcurveto
            endchar
          </CharString>
          <CharString index="67">
            -85 callgsubr
            38 225 rlineto
            return
          </CharString>
          <CharString index="68">
            104 62 30 62 48 return
          </CharString>
          <CharString index="69">
            92 -10 19 callsubr
            return
          </CharString>
          <CharString index="70">
            -146 99 -39 81 return
          </CharString>
          <CharString index="71">
            -23 -139 rlineto
            23 hlineto
            12 2 16 8 7 19 47 -30 82 hhcurveto
            endchar
          </CharString>
          <CharString index="72">
            38 11 -32 -28 -46 -21 -52 -76 hvcurveto
            -84 31 71 -34 hhcurveto
            -18 -17 -11 -31 -17 42 -42 79 114 51 62 78 33 -20 28 -33 14 hvcurveto
            34 18 29 26 49 vvcurveto
            return
          </CharString>
          <CharString index="73">
            -33 callgsubr
            90 hlineto
            return
          </CharString>
          <CharString index="74">
            42 rmoveto
            -29 23 -23 27 38 34 37 36 vhcurveto
            hintmask 11010000
            29 -25 22 -27 -38 -32 -36 -36 vhcurveto
            82 144 rmoveto
            15 15 52 16 5 hvcurveto
            4 13 68 262 9 56 rrcurveto
            1 3 0 3 3 vvcurveto
            24 -19 12 -24 -27 -24 -14 -31 -5 vhcurveto
            -13 -75 -17 -246 -33 vvcurveto
            -21 2 -24 10 vhcurveto
            endchar
          </CharString>
          <CharString index="75">
            28 vstem
            73 227 rmoveto
            164 150 126 145 123 87 -90 -118 -164 -149 -126 -145 -123 -88 90 118 vhcurveto
            299 317 rmoveto
            -160 -166 -140 -182 -130 98 -100 136 160 166 140 182 130 -98 100 -136 hvcurveto
            return
          </CharString>
          <CharString index="76">
            -179 -91 callsubr
            return
          </CharString>
          <CharString index="77">
            29 25 -7 -28 -28 -20 -28 -61 hvcurveto
            endchar
          </CharString>
          <CharString index="78">
            -164 hlineto
            -63 callgsubr
            return
          </CharString>
          <CharString index="79">
            -309 0 4 callsubr
            return
          </CharString>
          <CharString index="80">
            hintmask 0000000000000000
            return
          </CharString>
          <CharString index="81">
            12 127 rlineto
            -23 hlineto
            -12 -2 -7 -8 -7 hhcurveto
            return
          </CharString>
          <CharString index="82">
            -219 hlineto
            -63 callgsubr
            return
          </CharString>
          <CharString index="83">
            -3 -18 -1 -16 -14 vvcurveto
            -80 44 -28 58 54 90 22 50 47 callgsubr
            return
          </CharString>
          <CharString index="84">
            38 230 rlineto
            return
          </CharString>
          <CharString index="85">
            54 hmoveto
            -101 -162 rlineto
            26 hlineto
            181 -43 callgsubr
            return
          </CharString>
          <CharString index="86">
            rlineto
            86 hlineto
            5 30 rlineto
            -86 hlineto
            return
          </CharString>
          <CharString index="87">
            hhcurveto
            -63 callgsubr
            return
          </CharString>
          <CharString index="88">
            -101 callsubr
            endchar
          </CharString>
          <CharString index="89">
            19 14 -29 -36 -52 -36 -59 -27 0 callgsubr
            40 -42 49 59 70 62 82 58 -40 42 -49 -59 -70 -62 -82 vhcurveto
            334 -237 rmoveto
            19 14 -29 -36 -53 -36 -58 -27 hvcurveto
            return
          </CharString>
          <CharString index="90">
            20 2 1 callgsubr
            return
          </CharString>
          <CharString index="91">
            -22 12 rlineto
            return
          </CharString>
          <CharString index="92">
            rmoveto
            -10 -5 -5 -10 -2 -10 -2 -10 3 -10 8 -5 146 -94 rcurveline
            4 26 -71 93 103 93 4 26 rlineto
            return
          </CharString>
          <CharString index="93">
            rmoveto
            -106 hlineto
            134 -108 rlineto
            26 hlineto
            return
          </CharString>
          <CharString index="94">
            hstemhm
            6 93 -26 87 return
          </CharString>
          <CharString index="95">
            108 74 return
          </CharString>
          <CharString index="96">
            rmoveto
            33 22 -42 -64 -104 -53 -116 -56 -33 -22 42 64 104 53 116 56 hvcurveto
            -178 -215 rmoveto
            -82 38 -59 81 105 79 109 136 82 -39 59 -81 -105 -78 -109 -136 vhcurveto
            endchar
          </CharString>
          <CharString index="97">
            -97 hmoveto
            -120 -96 35 -6 101 49 85 -49 37 6 -88 96 rlineto
            endchar
          </CharString>
          <CharString index="98">
            -38 callsubr
            25 return
          </CharString>
          <CharString index="99">
            -10 -20 7 hvcurveto
            -27 9 return
          </CharString>
          <CharString index="100">
            rmoveto
            -25 18 -14 26 vhcurveto
            19 6 13 8 hhcurveto
            8 2 0 -25 -4 hvcurveto
            -8 -45 -54 -34 -30 -4 -5 -28 rcurveline
            39 12 108 36 98 vvcurveto
            45 -23 38 -42 -21 -47 -21 -46 vhcurveto
            endchar
          </CharString>
          <CharString index="101">
            -200 36 154 34 392 34 return
          </CharString>
          <CharString index="102">
            hintmask 00000000
            hintmask 00010000
            return
          </CharString>
          <CharString index="103">
            -115 -161 -104 callsubr
            return
          </CharString>
          <CharString index="104">
            10 13 11 14 12 -10 10 -23 -26 -11 -12 -14 -2 hvcurveto
            -11 -2 8 -10 9 hhcurveto
            -10 -63 rlineto
            -71 hlineto
            11 2 -8 10 -14 hhcurveto
            -17 -16 -13 -17 -14 13 -12 22 hvcurveto
            return
          </CharString>
          <CharString index="105">
            15 24 70 24 8 hvcurveto
            hintmask 10100000
            5 17 30 81 31 vvcurveto
            23 -15 11 -24 -27 -20 -14 -31 -5 vhcurveto
            hintmask 11000000
            -4 -27 -2 -77 -15 vvcurveto
            -25 0 -68 15 vhcurveto
            endchar
          </CharString>
          <CharString index="106">
            rmoveto
            73 hlineto
            105 28 -52 -47 -91 -53 -66 -111 hvcurveto
            -85 hlineto
            return
          </CharString>
          <CharString index="107">
            38 -10 34 -24 23 290 21 77 87 -79 21 return
          </CharString>
          <CharString index="108">
            hhcurveto
            -39 callsubr
            hvcurveto
            6 callsubr
            return
          </CharString>
          <CharString index="109">
            5 callgsubr
            hstemhm
            351 26 callgsubr
            return
          </CharString>
          <CharString index="110">
            -144 -10 40 -30 21 395 34 -30 20 75 162 hstemhm
            23 22 14 69 return
          </CharString>
          <CharString index="111">
            45 callsubr
            23 20 return
          </CharString>
          <CharString index="112">
            -16 -41 vvcurveto
            -38 22 -26 42 21 36 13 30 12 -9 15 -15 vhcurveto
            -10 -12 -10 -10 hhcurveto
            -16 -14 15 15 19 13 18 26 41 hvcurveto
            return
          </CharString>
          <CharString index="113">
            -16 callgsubr
            -71 -51 81 99 hvcurveto
            193 26 rlineto
            124 17 12 30 35 vvcurveto
            57 -45 77 -136 return
          </CharString>
          <CharString index="114">
            678 87 callgsubr
            264 48 callsubr
            return
          </CharString>
          <CharString index="115">
            35 callgsubr
            -10 17 -20 hhcurveto
            -24 return
          </CharString>
          <CharString index="116">
            22 4 12 16 40 30 49 -38 41 hhcurveto
            -78 -114 51 callsubr
            return
          </CharString>
          <CharString index="117">
            rmoveto
            26 -18 493 622 -26 18 rlineto
            endchar
          </CharString>
          <CharString index="118">
            -13 callgsubr
            38 21 return
          </CharString>
          <CharString index="119">
            34 -24 21 540 34 -30 20 54 callsubr
            return
          </CharString>
          <CharString index="120">
            115 -10 56 callsubr
            return
          </CharString>
          <CharString index="121">
            rlineto
            31 callgsubr
            return
          </CharString>
          <CharString index="122">
            7 42 8 15 15 6 rrcurveto
            return
          </CharString>
          <CharString index="123">
            13 callsubr
            25 162 55 callgsubr
            -22 116 -5 callsubr
            return
          </CharString>
          <CharString index="124">
            15 -20 -20 -14 -17 -27 -19 vhcurveto
            -20 -13 -6 -10 -20 hhcurveto
            return
          </CharString>
          <CharString index="125">
            hlineto
            -63 callgsubr
            39 15 return
          </CharString>
          <CharString index="126">
            34 537 34 return
          </CharString>
          <CharString index="127">
            hmoveto
            -85 callgsubr
            return
          </CharString>
          <CharString index="128">
            40 -30 21 395 34 -30 20 hstemhm
            23 22 14 69 return
          </CharString>
          <CharString index="129">
            19 -10 56 callgsubr
            return
          </CharString>
          <CharString index="130">
            38 382 30 125 20 hstemhm
            return
          </CharString>
          <CharString index="131">
            -153 102 41 34 -24 23 return
          </CharString>
          <CharString index="132">
            0 5 callgsubr
            return
          </CharString>
          <CharString index="133">
            500 162 hstem
            return
          </CharString>
          <CharString index="134">
            -118 hlineto
            -3 -20 rlineto
            17 12 -2 -4 1 hvcurveto
            -42 -249 rlineto
            -3 -3 -7 -4 -22 hhcurveto
            return
          </CharString>
          <CharString index="135">
            662 rmoveto
            -50 hlineto
            -121 -162 rlineto
            26 hlineto
            107 87 79 -87 rlineto
            26 hlineto
            endchar
          </CharString>
          <CharString index="136">
            21 -21 34 256 29 232 34 -21 21 hstemhm
            return
          </CharString>
          <CharString index="137">
            88 -25 58 callgsubr
            return
          </CharString>
          <CharString index="138">
            38 266 76 50 30 return
          </CharString>
          <CharString index="139">
            -15 -55 hhcurveto
            -57 -35 51 83 154 95 104 81 35 30 -12 -16 24 hvcurveto
            endchar
          </CharString>
          <CharString index="140">
            42 -47 callsubr
            return
          </CharString>
          <CharString index="141">
            -27 19 43 46 callgsubr
            return
          </CharString>
          <CharString index="142">
            296 44 hstem
            83 callsubr
            return
          </CharString>
          <CharString index="143">
            rmoveto
            -27 23 -23 25 36 32 36 33 27 -23 22 -26 -36 -31 -34 -34 vhcurveto
            return
          </CharString>
          <CharString index="144">
            rmoveto
            92 49 65 82 55 -31 38 -74 -91 -51 -62 -80 -57 35 -41 71 hvcurveto
            return
          </CharString>
          <CharString index="145">
            rmoveto
            36 22 -18 -50 -61 -26 -60 -46 -32 -25 19 53 56 27 61 44 hvcurveto
            return
          </CharString>
          <CharString index="146">
            -20 53 68 62 39 117 20 return
          </CharString>
          <CharString index="147">
            hintmask 00000000
            hintmask 00101000
            return
          </CharString>
          <CharString index="148">
            595 50 callgsubr
            return
          </CharString>
          <CharString index="149">
            rmoveto
            -72 -96 rlineto
            26 hlineto
            152 96 rlineto
            return
          </CharString>
          <CharString index="150">
            hlineto
            3 17 rlineto
            -19 -10 3 5 -2 hvcurveto
            return
          </CharString>
          <CharString index="151">
            hintmask 00000000
            hintmask 00010100
            return
          </CharString>
          <CharString index="152">
            21 363 23 return
          </CharString>
          <CharString index="153">
            95 -8 27 103 20 113 27 116 26 93 27 hstem
            46 27 return
          </CharString>
          <CharString index="154">
            rmoveto
            31 hlineto
            48 14 -15 -24 -53 -20 -24 -56 hvcurveto
            -37 hlineto
            endchar
          </CharString>
          <CharString index="155">
            hlineto
            -19 callgsubr
            return
          </CharString>
          <CharString index="156">
            41 vvcurveto
            38 -22 26 -42 -21 -36 -13 -30 -12 9 -15 15 vhcurveto
            return
          </CharString>
          <CharString index="157">
            585 rmoveto
            -50 callsubr
            return
          </CharString>
          <CharString index="158">
            rmoveto
            77 58 58 47 8 hvcurveto
            -28 hlineto
            -22 -13 -26 -30 -67 hhcurveto
            return
          </CharString>
          <CharString index="159">
            57 callgsubr
            110 23 return
          </CharString>
          <CharString index="160">
            585 rmoveto
            -25 callsubr
            return
          </CharString>
          <CharString index="161">
            hstemhm
            10 23 0 22 28 81 return
          </CharString>
          <CharString index="162">
            -22 -4 -12 -16 -40 hhcurveto
            return
          </CharString>
          <CharString index="163">
            34 514 87 -64 34 return
          </CharString>
          <CharString index="164">
            116 hintmask 00000000
            return
          </CharString>
          <CharString index="165">
            -16 -97 rlineto
            21 hlineto
            return
          </CharString>
          <CharString index="166">
            hvcurveto
            -37 -223 rlineto
            return
          </CharString>
          <CharString index="167">
            52 callsubr
            23 20 hstemhm
            30 98 return
          </CharString>
          <CharString index="168">
            hintmask 00000000
            hintmask 11101000
            return
          </CharString>
          <CharString index="169">
            29 196 28 return
          </CharString>
          <CharString index="170">
            hmoveto
            -60 callsubr
            return
          </CharString>
          <CharString index="171">
            0 21 -21 34 261 44 217 29 -21 21 hstemhm
            return
          </CharString>
          <CharString index="172">
            hstemhm
            335 92 -50 90 hintmask 00000000
            return
          </CharString>
          <CharString index="173">
            92 -27 callsubr
            return
          </CharString>
          <CharString index="174">
            28 -12 callsubr
            hstem
            return
          </CharString>
          <CharString index="175">
            207 -47 207 return
          </CharString>
          <CharString index="176">
            43 callgsubr
            hintmask 00000000
            return
          </CharString>
          <CharString index="177">
            -230 -107 callgsubr
            return
          </CharString>
          <CharString index="178">
            359 -14 callgsubr
            return
          </CharString>
          <CharString index="179">
            24 rmoveto
            -77 -51 53 99 18 2 19 3 21 hvcurveto
            return
          </CharString>
          <CharString index="180">
            19 274 19 hintmask 00000000
            return
          </CharString>
          <CharString index="181">
            hintmask 00000000
            hintmask 10000100
            return
          </CharString>
          <CharString index="182">
            rlineto
            76 13 25 36 24 return
          </CharString>
          <CharString index="183">
            hlineto
            6 34 rlineto
            return
          </CharString>
          <CharString index="184">
            46 -8 46 hstemhm
            return
          </CharString>
          <CharString index="185">
            vlineto
            -8 -7 -7 -10 -14 vvcurveto
            -20 15 -12 18 return
          </CharString>
          <CharString index="186">
            hlineto
            -60 -196 rlineto
            35 hlineto
            60 196 rlineto
            return
          </CharString>
          <CharString index="187">
            -207 341 15 166 59 57 27 hstem
            return
          </CharString>
          <CharString index="188">
            rmoveto
            -48 -288 rlineto
            36 hlineto
            48 288 rlineto
            return
          </CharString>
          <CharString index="189">
            23 43 -20 84 116 hstem
            return
          </CharString>
          <CharString index="190">
            77 340 87 callgsubr
            return
          </CharString>
          <CharString index="191">
            21 rlineto
            -218 hlineto
            return
          </CharString>
          <CharString index="192">
            34 -24 23 397 return
          </CharString>
          <CharString index="193">
            23 43 -20 hstem
            return
          </CharString>
          <CharString index="194">
            -152 -94 -97 -80 -44 -28 10 10 -17 return
          </CharString>
          <CharString index="195">
            rmoveto
            -4 -26 rlineto
            243 hlineto
            4 26 rlineto
            return
          </CharString>
          <CharString index="196">
            23 23 20 hstemhm
            return
          </CharString>
          <CharString index="197">
            -136 44 92 return
          </CharString>
        <CharString name=".notdef">
          -52 0 50 433 50 hstem
          50 50 300 50 vstem
          50 hmoveto
          400 533 -400 hlineto
          50 -483 rmoveto
          433 300 -433 vlineto
          endchar
        </CharString>
        <CharString name="A">
          -9 0 -7 callgsubr
          366 -20 hstem
          -92 callgsubr
          endchar
        </CharString>
        <CharString name="AE">
          208 0 21 -21 34 152 33 68 19 callgsubr
          -21 21 hstemhm
          718 21 hintmask 00000000
          hintmask 10110010
          -60 hmoveto
          80 hlineto
          23 32 -15 -32 rlineto
          76 hlineto
          -82 callgsubr
          -40 -16 5 13 -4 hvcurveto
          107 147 rlineto
          193 hlineto
          -24 -145 rlineto
          -93 callsubr
          -4 -21 rlineto
          -69 callsubr
          hintmask 01111010
          -106 callgsubr
          hintmask 10110110
          16 97 rlineto
          -424 hlineto
          -63 callgsubr
          32 16 -3 -8 7 hvcurveto
          -372 -512 rlineto
          1 vlineto
          -14 -9 -15 -7 -42 hhcurveto
          235 198 rmoveto
          227 311 -52 -311 rlineto
          endchar
        </CharString>
        <CharString name="Aacute">
          -59 callsubr
          35 162 hstem
          327 207 vstem
          428 782 -94 callgsubr
          -238 -782 rmoveto
          -107 callsubr
          endchar
        </CharString>
        <CharString name="Abreve">
          -59 callsubr
          45 72 hstem
          235 62 callsubr
          vstem
          341 630 -97 callsubr
          -45 -630 rmoveto
          -107 callsubr
          endchar
        </CharString>
        <CharString name="Acircumflex">
          -59 callsubr
          35 162 hstem
          221 238 vstem
          392 782 rmoveto
          -50 hlineto
          -121 -162 rlineto
          26 hlineto
          107 87 79 -87 rlineto
          26 hlineto
          -163 -620 rmoveto
          -107 callsubr
          endchar
        </CharString>
        <CharString name="Adieresis">
          -59 callsubr
          35 98 hstem
          206 100 84 100 vstem
          390 -72 callsubr
          90 -661 rmoveto
          -107 callsubr
          endchar
        </CharString>
        <CharString name="Agrave">
          -59 callsubr
          35 162 hstem
          213 153 vstem
          319 782 rmoveto
          -106 hlineto
          127 -162 rlineto
          26 hlineto
          -70 -620 rmoveto
          -107 callsubr
          endchar
        </CharString>
        <CharString name="Amacron">
          -59 callsubr
          49 44 hstem
          204 271 vstem
          211 7 callsubr
          -179 -678 rmoveto
          -107 callsubr
          endchar
        </CharString>
        <CharString name="Aogonek">
          -9 -200 34 166 -49 callgsubr
          hstem
          368 56 vstem
          278 452 rmoveto
          46 -233 rlineto
          -168 hlineto
          141 -219 rmoveto
          140 hlineto
          -24 -20 -46 -46 -60 -74 callgsubr
          34 25 32 15 17 vhcurveto
          52 hlineto
          -82 callgsubr
          -42 -16 7 14 -3 hvcurveto
          -103 543 rlineto
          -48 hlineto
          -285 -543 rlineto
          -14 -7 -17 -7 -42 -20 callsubr
          164 hlineto
          -82 callgsubr
          -40 -14 5 13 -5 hvcurveto
          76 147 rlineto
          192 hlineto
          31 -153 rlineto
          -8 -9 -18 -4 -33 hhcurveto
          endchar
        </CharString>
        <CharString name="Aring">
          -59 callsubr
          30 27 94 27 hstem
          276 28 95 27 vstem
          359 736 -76 callgsubr
          20 -676 rmoveto
          -107 callsubr
          endchar
        </CharString>
        <CharString name="Atilde">
          -59 callsubr
          35 53 6 53 hstem
          191 45 callgsubr
          415 620 -103 callsubr
          -119 -620 rmoveto
          -107 callsubr
          endchar
        </CharString>
        <CharString name="B">
          10 0 29 callsubr
          412 100 hintmask 00000000
          hintmask 01100100
          206 290 -1 callsubr
          hintmask 00110100
          86 517 -18 callgsubr
          hintmask 10100100
          -208 -319 rmoveto
          hintmask 01110100
          -51 callsubr
          hintmask 10101100
          -184 -83 callsubr
          endchar
        </CharString>
        <CharString name="C">
          12 -10 19 callsubr
          -10 -20 hstemhm
          45 106 365 22 hintmask 00000000
          hintmask 11011000
          400 561 rmoveto
          86 30 9 callgsubr
          hintmask 10111000
          -71 callgsubr
          hintmask 11011000
          -79 callsubr
          hvcurveto
          endchar
        </CharString>
        <CharString name="Cacute">
          12 -10 34 537 6 callgsubr
          45 106 365 22 -5 callsubr
          496 782 -94 callgsubr
          hintmask 11001100
          -202 -221 rmoveto
          86 30 9 callgsubr
          hintmask 10101100
          -71 callgsubr
          hintmask 11001100
          -79 callsubr
          hvcurveto
          endchar
        </CharString>
        <CharString name="Ccaron">
          12 -10 34 537 6 callgsubr
          45 106 166 238 -39 22 44 callsubr
          384 620 -90 callsubr
          hintmask 11001010
          83 -221 rmoveto
          86 30 9 callgsubr
          hintmask 10101010
          -71 callgsubr
          hintmask 11001010
          -79 callsubr
          hvcurveto
          endchar
        </CharString>
        <CharString name="Ccedilla">
          13 67 callgsubr
          19 callsubr
          -30 20 hstemhm
          45 106 130 88 147 22 hintmask 00000000
          hintmask 11101110
          200 -78 callsubr
          20 45 116 4 67 67 34 58 rlinecurve
          -16 callsubr
          -49 -26 -84 -59 -70 hhcurveto
          -89 -74 70 137 187 116 143 133 86 30 9 callgsubr
          hintmask 11011110
          -71 callgsubr
          hintmask 11101110
          -19 -36 30 -51 hhcurveto
          -166 -194 -138 -228 -123 71 -104 145 -11 hvcurveto
          -35 -77 rlineto
          -30 callsubr
        </CharString>
        <CharString name="Ccircumflex">
          12 -10 34 537 6 callgsubr
          45 106 365 22 -5 callsubr
          460 782 rmoveto
          -50 hlineto
          -121 -162 rlineto
          26 hlineto
          107 87 79 -87 rlineto
          26 hlineto
          hintmask 11001100
          -127 -59 rmoveto
          86 30 9 callgsubr
          hintmask 10101100
          -71 callgsubr
          hintmask 11001100
          -79 callsubr
          hvcurveto
          endchar
        </CharString>
        <CharString name="Cdotaccent">
          12 -10 19 callsubr
          -30 20 36 102 hstemhm
          45 106 214 103 48 22 44 callsubr
          365 664 -101 callsubr
          hintmask 11001010
          35 -103 rmoveto
          86 30 9 callgsubr
          hintmask 10101010
          -71 callgsubr
          hintmask 11001010
          -79 callsubr
          hvcurveto
          endchar
        </CharString>
        <CharString name="D">
          64 0 30 callgsubr
          482 99 84 callgsubr
          2 hmoveto
          hintmask 01101000
          242 hlineto
          179 158 142 210 140 -93 93 -158 hvcurveto
          hintmask 10011000
          -230 -83 callsubr
          hintmask 01101000
          244 535 rmoveto
          75 hlineto
          79 78 -57 -135 -214 -139 -116 -93 hvcurveto
          -87 hlineto
          endchar
        </CharString>
        <CharString name="Dcaron">
          64 0 39 callgsubr
          35 162 hstemhm
          241 238 3 99 hintmask 00000000
          hintmask 00001100
          308 620 -90 callsubr
          hintmask 10000010
          -239 -782 rmoveto
          hintmask 01100010
          242 hlineto
          179 158 142 210 140 -93 93 -158 hvcurveto
          hintmask 10010010
          -230 -83 callsubr
          hintmask 01100010
          244 535 rmoveto
          75 hlineto
          79 78 -57 -135 -214 -139 -116 -93 hvcurveto
          -87 hlineto
          endchar
        </CharString>
        <CharString name="Dcroat">
          64 64 callsubr
          482 99 hintmask 00000000
          hintmask 01110100
          163 -47 callgsubr
        </CharString>
        <CharString name="E">
          -44 0 -71 callsubr
          hstemhm
          466 21 hintmask 00000000
          hintmask 10100100
          44 callgsubr
          hintmask 01110100
          -106 callgsubr
          hintmask 10101100
          -58 callsubr
        </CharString>
        <CharString name="Eacute">
          -44 0 -71 callsubr
          35 162 hstemhm
          466 21 hintmask 00000000
          hintmask 00000100
          420 782 -94 callgsubr
          hintmask 10100010
          -524 -782 -5 callgsubr
          hintmask 01110010
          -106 callgsubr
          hintmask 10101010
          -58 callsubr
        </CharString>
        <CharString name="Ebreve">
          -44 0 -71 callsubr
          45 72 hstemhm
          227 62 callsubr
          -14 21 -27 callsubr
          hintmask 0000011100000000
          333 630 -97 callsubr
          hintmask 1010000010000000
          -331 -630 -5 callgsubr
          hintmask 0111000010000000
          -106 callgsubr
          hintmask 1010100010000000
          -58 callsubr
        </CharString>
        <CharString name="Ecaron">
          -44 0 -71 callsubr
          35 162 hstemhm
          241 238 -13 21 hintmask 00000000
          hintmask 00000110
          308 620 -90 callsubr
          hintmask 10100001
          -239 -782 -5 callgsubr
          hintmask 01110001
          -106 callgsubr
          hintmask 10101001
          -58 callsubr
        </CharString>
        <CharString name="Ecircumflex">
          -44 0 -71 callsubr
          35 162 hstemhm
          466 21 hintmask 00000000
          hintmask 00000100
          384 782 rmoveto
          -50 hlineto
          -121 -162 rlineto
          26 hlineto
          107 87 79 -87 rlineto
          26 hlineto
          hintmask 10100010
          -449 -620 -5 callgsubr
          hintmask 01110010
          -106 callgsubr
          hintmask 10101010
          -58 callsubr
        </CharString>
        <CharString name="Edieresis">
          -44 0 -71 callsubr
          35 98 hstemhm
          198 100 84 100 -16 21 -27 callsubr
          hintmask 0000011100000000
          382 -72 callsubr
          hintmask 1010000010000000
          -196 -661 -5 callgsubr
          hintmask 0111000010000000
          -106 callgsubr
          hintmask 1010100010000000
          -58 callsubr
        </CharString>
        <CharString name="Edotaccent">
          -44 0 -71 callsubr
          36 102 hstemhm
          289 103 74 21 hintmask 00000000
          hintmask 00000110
          289 664 -101 callsubr
          hintmask 10100001
          -287 -664 -5 callgsubr
          hintmask 01110001
          -106 callgsubr
          hintmask 10101001
          -58 callsubr
        </CharString>
        <CharString name="Egrave">
          -44 0 -71 callsubr
          35 162 hstemhm
          466 21 hintmask 00000000
          hintmask 00000100
          311 782 rmoveto
          -106 hlineto
          127 -162 rlineto
          26 hlineto
          hintmask 10100010
          -356 -620 -5 callgsubr
          hintmask 01110010
          -106 callgsubr
          hintmask 10101010
          -58 callsubr
        </CharString>
        <CharString name="Emacron">
          -44 0 -71 callsubr
          49 44 hstemhm
          466 21 hintmask 00000000
          hintmask 00000100
          203 7 callsubr
          hintmask 10100010
          -465 -678 -5 callgsubr
          hintmask 01110010
          -106 callgsubr
          hintmask 10101010
          -58 callsubr
        </CharString>
        <CharString name="Eng">
          99 -10 30 -20 21 540 34 -31 21 hstemhm
          259 87 177 93 hintmask 00000000
          hintmask 10101100
          259 51 rmoveto
          -41 68 -20 53 116 120 173 236 144 -77 52 -111 -59 -72 -39 -65 -58 vhcurveto
          hintmask 01011100
          16 94 rlineto
          -155 hlineto
          -4 -21 rlineto
          42 14 -6 -14 4 hvcurveto
          -84 -503 -80 callgsubr
          64 385 rlineto
          hintmask 10101100
          76 50 76 59 58 hhcurveto
          80 31 -59 -97 -180 -72 -205 -76 24 callgsubr
          -9 17 -20 hhcurveto
          -24 -25 -20 -23 hvcurveto
          endchar
        </CharString>
        <CharString name="Eogonek">
          -45 -200 34 166 -71 callsubr
          hstemhm
          284 56 127 21 hintmask 00000000
          hintmask 10111011
          3 hmoveto
          350 hlineto
          -24 -20 -46 -46 -60 -74 callgsubr
          34 25 32 15 17 vhcurveto
          47 hlineto
          40 97 rlineto
          -20 hlineto
          -106 callgsubr
          hintmask 11010111
          -58 callsubr
        </CharString>
        <CharString name="Eth">
          59 -1 21 -21 34 522 30 hstemhm
          55 21 401 99 hintmask 00000000
          hintmask 10111000
          -3 -1 rmoveto
          hintmask 01111000
          242 hlineto
          179 158 142 210 140 -93 94 -158 hvcurveto
          -75 hlineto
          12 70 rlineto
          -40 hlineto
          -12 -70 rlineto
          -139 hlineto
          -16 -93 rlineto
          21 hlineto
          7 42 9 15 15 6 rrcurveto
          98 hlineto
          -14 -85 rlineto
          40 hlineto
          14 85 rlineto
          75 hlineto
          58 57 -29 -69 26 hvcurveto
          -244 -14 -102 -117 -29 -172 -19 -114 rcurveline
          hintmask 10111000
          -14 -8 -17 -6 -42 hhcurveto
          470 407 rmoveto
          4 -19 3 -21 -24 vvcurveto
          hintmask 01111000
          -214 -139 -116 -93 vhcurveto
          -87 hlineto
          26 159 20 120 81 103 185 12 rlinecurve
          endchar
        </CharString>
        <CharString name="Euro">
          -10 -10 34 196 44 76 44 177 34 hstem
          83 103 313 22 vstem
          534 540 rmoveto
          0 -36 55 -111 -103 -112 -78 -133 -55 vhcurveto
          -34 hlineto
          -23 -44 rlineto
          42 hlineto
          -5 -18 -5 -19 -3 -19 -4 -20 rcurveline
          -38 hlineto
          -23 -44 rlineto
          59 hlineto
          -126 62 -104 128 127 28 47 55 44 vhcurveto
          -19 16 rlineto
          -45 -34 -45 -39 -79 hhcurveto
          -66 -43 59 118 hvcurveto
          6 1 7 6 vvcurveto
          173 hlineto
          23 44 rlineto
          -193 hlineto
          2 24 5 30 6 22 rrcurveto
          195 hlineto
          23 44 rlineto
          -207 hlineto
          108 33 61 69 74 hhcurveto
          88 29 -50 -53 hvcurveto
          22 hlineto
          endchar
        </CharString>
        <CharString name="F">
          -75 81 callgsubr
          466 21 61 callsubr
          2 20 callsubr
          41 246 -105 callsubr
          hintmask 11011000
          -58 callsubr
        </CharString>
        <CharString name="G">
          53 callgsubr
          -10 -20 hstemhm
          44 103 388 22 hintmask 00000000
          hintmask 11101100
          409 561 11 callgsubr
          hintmask 11011100
          -71 callgsubr
          hintmask 11101100
          -87 callgsubr
        </CharString>
        <CharString name="Gamma">
          -129 0 21 530 34 -21 21 hstemhm
          488 21 hintmask 00000000
          hintmask 11010000
          271 551 rmoveto
          -87 callsubr
          hintmask 10110000
          -94 callsubr
          -4 -21 rlineto
          218 hlineto
          -82 callgsubr
          -42 -14 6 14 -4 hvcurveto
          endchar
        </CharString>
        <CharString name="Gbreve">
          80 callgsubr
          45 72 hstemhm
          44 103 155 62 callsubr
          -20 58 callgsubr
          hintmask 0000101100000000
          408 630 -97 callsubr
          hintmask 1110010010000000
          1 -69 11 callgsubr
          hintmask 1101010010000000
          -71 callgsubr
          hintmask 1110010010000000
          -87 callgsubr
        </CharString>
        <CharString name="Gcaron">
          80 callgsubr
          35 162 hstemhm
          44 103 169 238 -19 22 hintmask 00000000
          hintmask 00001010
          383 620 -90 callsubr
          hintmask 11100101
          93 -221 11 callgsubr
          hintmask 11010101
          -71 callgsubr
          hintmask 11100101
          -87 callgsubr
        </CharString>
        <CharString name="Gcircumflex">
          80 callgsubr
          35 162 hstemhm
          44 103 388 22 hintmask 00000000
          hintmask 00001000
          459 782 rmoveto
          -50 hlineto
          -121 -162 rlineto
          26 hlineto
          107 87 79 -87 rlineto
          26 hlineto
          hintmask 11100110
          -117 -59 11 callgsubr
          hintmask 11010110
          -71 callgsubr
          hintmask 11100110
          -87 callgsubr
        </CharString>
        <CharString name="Gcommaaccent">
          69 -13 callgsubr
          28 34 244 21 272 34 -30 20 hstemhm
          44 103 68 133 187 58 callgsubr
          hintmask 1100000100000000
          215 -90 rmoveto
          -102 callsubr
          hintmask 0011101010000000
          194 651 11 callgsubr
          hintmask 0011011010000000
          -71 callgsubr
          hintmask 0011101010000000
          -87 callgsubr
        </CharString>
        <CharString name="Gdotaccent">
          80 callgsubr
          36 102 hstemhm
          44 103 217 103 68 22 hintmask 00000000
          hintmask 00001010
          364 664 -101 callsubr
          hintmask 11100101
          45 -103 11 callgsubr
          hintmask 11010101
          -71 callgsubr
          hintmask 11100101
          -87 callgsubr
        </CharString>
        <CharString name="H">
          104 0 21 266 34 243 21 hstem
          2 20 callsubr
          41 246 rlineto
          256 hlineto
          -41 -246 rlineto
          -14 -8 -16 -6 -42 hhcurveto
          -4 -21 rlineto
          218 -53 callsubr
          -218 hlineto
          -63 callgsubr
          42 14 -6 -14 4 59 callsubr
          -256 hlineto
          37 223 -28 callgsubr
        </CharString>
        <CharString name="Hbar">
          104 0 21 266 34 99 44 100 21 hstem
          85 420 rmoveto
          51 hlineto
          -63 -379 -80 callgsubr
          41 246 rlineto
          256 hlineto
          -41 -246 -80 callgsubr
          63 379 rlineto
          54 69 callgsubr
          -54 hlineto
          13 80 rlineto
          -103 callgsubr
          -13 -80 rlineto
          -256 hlineto
          13 80 rlineto
          -103 callgsubr
          -13 -80 rlineto
          -51 hlineto
          391 -44 rmoveto
          -16 -99 rlineto
          -256 hlineto
          16 99 rlineto
          endchar
        </CharString>
        <CharString name="Hcircumflex">
          104 0 21 266 34 243 21 35 162 hstem
          271 238 vstem
          442 782 rmoveto
          -50 hlineto
          -121 -162 rlineto
          26 hlineto
          107 87 79 -87 rlineto
          26 hlineto
          -507 -620 rmoveto
          -85 callgsubr
          41 246 rlineto
          256 hlineto
          -41 -246 rlineto
          -14 -8 -16 -6 -42 hhcurveto
          -4 -21 rlineto
          218 -53 callsubr
          -218 hlineto
          -63 callgsubr
          42 14 -6 -14 4 59 callsubr
          -256 hlineto
          37 223 -28 callgsubr
        </CharString>
        <CharString name="I">
          -244 -46 callgsubr
          hstem
          2 316 vstem
          2 hmoveto
          -98 callgsubr
          endchar
        </CharString>
        <CharString name="IJ">
          164 -10 36 -26 -34 callgsubr
          62 callgsubr
          -39 91 hintmask 00000000
          hintmask 01110000
          2 hmoveto
          -98 callgsubr
          hintmask 10101000
          364 80 -62 callgsubr
        </CharString>
        <CharString name="Iacute">
          -244 -46 callgsubr
          35 162 62 callgsubr
          33 callgsubr
          301 782 -94 callgsubr
          hintmask 11010000
          -405 -782 rmoveto
          -98 callgsubr
          endchar
        </CharString>
        <CharString name="Ibreve">
          -244 -46 callgsubr
          45 72 62 callgsubr
          -210 62 callsubr
          hintmask 00000000
          hintmask 00101100
          214 630 -97 callsubr
          hintmask 11010000
          -212 -630 rmoveto
          -98 callgsubr
          endchar
        </CharString>
        <CharString name="Icircumflex">
          -244 -46 callgsubr
          35 162 62 callgsubr
          33 callgsubr
          265 782 rmoveto
          -50 hlineto
          -121 -162 rlineto
          26 hlineto
          107 87 79 -87 rlineto
          26 hlineto
          hintmask 11010000
          -330 -620 rmoveto
          -98 callgsubr
          endchar
        </CharString>
        <CharString name="Idieresis">
          -244 -46 callgsubr
          35 98 62 callgsubr
          -239 100 84 100 hintmask 00000000
          hintmask 00101100
          263 -72 callsubr
          hintmask 11010000
          -77 -661 rmoveto
          -98 callgsubr
          endchar
        </CharString>
        <CharString name="Idotaccent">
          -244 -46 callgsubr
          36 102 62 callgsubr
          -148 103 40 callsubr
          170 664 -101 callsubr
          hintmask 11010000
          -168 -664 rmoveto
          -98 callgsubr
          endchar
        </CharString>
        <CharString name="Igrave">
          -244 -46 callgsubr
          35 162 62 callgsubr
          33 callgsubr
          192 782 rmoveto
          -106 hlineto
          127 -162 rlineto
          26 hlineto
          hintmask 11010000
          -237 -620 rmoveto
          -98 callgsubr
          endchar
        </CharString>
        <CharString name="Imacron">
          -244 -46 callgsubr
          49 44 62 callgsubr
          33 callgsubr
          84 7 callsubr
          hintmask 11010000
          -346 -678 rmoveto
          -98 callgsubr
          endchar
        </CharString>
        <CharString name="Iogonek">
          -246 -200 34 166 -34 callgsubr
          hstemhm
          3 316 -240 56 hintmask 00000000
          hintmask 11110000
          3 hmoveto
          145 hlineto
          hintmask 11101000
          -24 -20 -46 -46 -60 -74 callgsubr
          34 25 32 15 17 vhcurveto
          46 hlineto
          -98 callsubr
          84 503 rlineto
          -91 callgsubr
          hintmask 11110000
          4 21 rlineto
          -218 -83 callsubr
          endchar
        </CharString>
        <CharString name="Itilde">
          -244 -46 callgsubr
          35 53 6 53 62 callgsubr
          46 19 hintmask 00000000
          hintmask 00110100
          288 620 -103 callsubr
          hintmask 11001000
          -286 -620 rmoveto
          -98 callgsubr
          endchar
        </CharString>
        <CharString name="J">
          -136 -10 36 538 21 hstem
          -21 91 vstem
          70 101 -62 callgsubr
        </CharString>
        <CharString name="Jcircumflex">
          -136 -10 36 538 21 35 162 hstem
          -21 91 152 238 vstem
          393 782 rmoveto
          -50 hlineto
          -121 -162 rlineto
          26 hlineto
          107 87 79 -87 rlineto
          26 hlineto
          -390 -519 -62 callgsubr
        </CharString>
        <CharString name="K">
          27 -46 callgsubr
          hstem
          2 hmoveto
          216 -53 callsubr
          -216 -83 callsubr
          345 -21 rmoveto
          195 hlineto
          -82 callgsubr
          -37 -16 6 10 -8 hvcurveto
          -184 305 235 199 rlineto
          9 10 13 14 42 hhcurveto
          -82 callgsubr
          -157 hlineto
          -63 callgsubr
          26 15 -2 -5 9 hvcurveto
          -285 -243 179 -290 rlineto
          -2 -9 -12 -1 -16 hhcurveto
          endchar
        </CharString>
        <CharString name="Kcommaaccent">
          29 11 callsubr
          543 21 hstem
          203 133 vstem
          203 -90 rmoveto
          -102 callsubr
          -201 90 rmoveto
          216 -53 callsubr
          -216 -83 callsubr
          345 -21 rmoveto
          195 hlineto
          -82 callgsubr
          -37 -16 6 10 -8 hvcurveto
          -184 305 235 199 rlineto
          9 10 13 14 42 hhcurveto
          -82 callgsubr
          -157 hlineto
          -63 callgsubr
          26 15 -2 -5 9 hvcurveto
          -285 -243 179 -290 rlineto
          -2 -9 -12 -1 -16 hhcurveto
          endchar
        </CharString>
        <CharString name="L">
          -57 0 21 -21 34 530 21 hstemhm
          hintmask 00000000
          hintmask 10100000
          44 callgsubr
          hintmask 01100000
          -20 -36 -20 -21 -15 -6 rrcurveto
          -228 hlineto
          85 510 -79 callgsubr
          hintmask 10100000
          -93 callsubr
          endchar
        </CharString>
        <CharString name="Lacute">
          -57 0 21 -21 34 530 21 35 162 hstemhm
          -5 callsubr
          303 782 -94 callgsubr
          hintmask 10100000
          -407 -782 -5 callgsubr
          hintmask 01100000
          -20 -36 -20 -21 -15 -6 rrcurveto
          -228 hlineto
          85 510 -79 callgsubr
          hintmask 10100000
          -93 callsubr
          endchar
        </CharString>
        <CharString name="Lcaron">
          -52 0 21 -21 34 352 28 -12 callsubr
          -32 21 hstemhm
          357 133 hintmask 00000000
          hintmask 00110100
          357 544 rmoveto
          -102 callsubr
          hintmask 10001000
          -355 -544 -5 callgsubr
          hintmask 01001000
          -20 -36 -20 -21 -15 -6 rrcurveto
          -228 hlineto
          85 510 -79 callgsubr
          hintmask 10001000
          -93 callsubr
          endchar
        </CharString>
        <CharString name="Lcommaaccent">
          -59 11 callsubr
          -21 34 530 21 hstemhm
          157 133 hintmask 00000000
          hintmask 11000100
          157 -90 rmoveto
          -102 callsubr
          hintmask 00101000
          -155 90 -5 callgsubr
          hintmask 00011000
          -20 -36 -20 -21 -15 -6 rrcurveto
          -228 hlineto
          85 510 -79 callgsubr
          hintmask 00101000
          -93 callsubr
          endchar
        </CharString>
        <CharString name="Ldot">
          -55 0 21 -21 34 223 102 205 21 hstemhm
          357 103 hintmask 00000000
          hintmask 10010000
          44 callgsubr
          hintmask 01010000
          -20 -36 -20 -21 -15 -6 rrcurveto
          -228 hlineto
          85 510 -79 callgsubr
          hintmask 10010000
          -93 callsubr
          hintmask 00101000
          351 279 -19 callsubr
        </CharString>
        <CharString name="Lslash">
          -58 0 21 -21 34 209 196 125 21 hstemhm
          48 248 hintmask 00000000
          hintmask 01111000
          44 callgsubr
          -20 -36 -20 -21 -15 -6 rrcurveto
          -228 hlineto
          53 320 80 59 -18 26 -54 -40 24 145 rlineto
          -103 callgsubr
          -37 -223 -71 -52 17 -26 46 34 -39 -236 rlineto
          hintmask 10111000
          -93 callsubr
          endchar
        </CharString>
        <CharString name="M">
          258 -46 callgsubr
          hstem
          2 hmoveto
          -73 callsubr
        </CharString>
        <CharString name="N">
          91 -46 callgsubr
          hstem
          2 hmoveto
          -97 callgsubr
        </CharString>
        <CharString name="Nacute">
          91 -46 callgsubr
          35 162 hstem
          369 207 vstem
          470 782 -94 callgsubr
          -574 -782 rmoveto
          -97 callgsubr
        </CharString>
        <CharString name="Ncaron">
          91 -46 callgsubr
          35 162 hstem
          291 238 vstem
          358 620 -90 callsubr
          -289 -782 rmoveto
          -97 callgsubr
        </CharString>
        <CharString name="Ncommaaccent">
          91 11 callsubr
          543 21 hstem
          209 133 vstem
          209 -90 rmoveto
          -102 callsubr
          -207 90 rmoveto
          -97 callgsubr
        </CharString>
        <CharString name="Ntilde">
          91 -46 callgsubr
          35 53 6 53 hstem
          233 45 callgsubr
          457 620 -103 callsubr
          -455 -620 rmoveto
          -97 callgsubr
        </CharString>
        <CharString name="O">
          -38 callsubr
          hstem
          46 100 363 101 vstem
          -86 callgsubr
          endchar
        </CharString>
        <CharString name="OE">
          267 -10 34 -24 -54 callgsubr
          -24 34 hstemhm
          46 100 631 21 hintmask 00000000
          hintmask 01110110
          352 hmoveto
          385 hlineto
          40 97 rlineto
          -20 hlineto
          -106 callgsubr
          16 97 rlineto
          -363 hlineto
          hintmask 10101110
          7 -22 -24 3 -26 hhcurveto
          -177 -156 -162 -199 -137 84 -107 147 26 25 3 7 24 hvcurveto
          34 59 rmoveto
          -22 -29 -32 -13 -38 hhcurveto
          -102 -39 101 104 150 81 182 142 41 31 -17 -27 22 hvcurveto
          endchar
        </CharString>
        <CharString name="Oacute">
          -9 callsubr
          162 55 callgsubr
          33 callgsubr
          471 782 -94 callgsubr
          hintmask 11011000
          -431 -553 -104 callgsubr
          endchar
        </CharString>
        <CharString name="Obreve">
          -38 callsubr
          35 72 hstemhm
          46 100 132 62 callsubr
          -22 101 hintmask 00000000
          hintmask 00101100
          384 630 -97 callsubr
          hintmask 11010010
          -238 -401 -104 callgsubr
          endchar
        </CharString>
        <CharString name="Ocircumflex">
          -9 callsubr
          162 hstem
          46 100 118 238 7 101 vstem
          435 782 rmoveto
          -50 hlineto
          -121 -162 rlineto
          26 hlineto
          107 87 79 -87 rlineto
          26 hlineto
          -356 -391 -104 callgsubr
          endchar
        </CharString>
        <CharString name="Odieresis">
          -9 callsubr
          98 hstemhm
          46 100 103 100 84 100 -24 101 hintmask 00000000
          hintmask 00101100
          433 -72 callsubr
          hintmask 11010010
          -103 -432 -104 callgsubr
          endchar
        </CharString>
        <CharString name="Ograve">
          -9 callsubr
          162 hstem
          46 100 110 153 100 101 vstem
          362 782 rmoveto
          -106 hlineto
          127 -162 rlineto
          26 hlineto
          -263 -391 -104 callgsubr
          endchar
        </CharString>
        <CharString name="Ohorn">
          13 callsubr
          55 callgsubr
          -22 57 callsubr
          hintmask 10111000
          146 229 -80 callsubr
          hintmask 11010100
          54 11 55 33 70 vvcurveto
          -93 callgsubr
          -5 -32 -24 -25 -37 -9 rrcurveto
          endchar
        </CharString>
        <CharString name="Ohungarumlaut">
          -9 callsubr
          162 hstemhm
          46 100 124 68 callsubr
          -128 101 40 callsubr
          371 782 -94 callgsubr
          hintmask 00100100
          -22 callsubr
          hintmask 11010010
          -491 -553 -104 callgsubr
          endchar
        </CharString>
        <CharString name="Omacron">
          -38 callsubr
          39 44 55 callgsubr
          33 callgsubr
          254 7 callsubr
          hintmask 11011000
          -372 -449 -104 callgsubr
          endchar
        </CharString>
        <CharString name="Oslash">
          -38 callsubr
          hstem
          46 100 363 101 vstem
          159 -28 rmoveto
          22 36 rlineto
          -12 28 32 -6 36 hhcurveto
          175 158 162 198 83 -31 73 -58 44 hvcurveto
          27 44 -29 18 -27 -43 rlineto
          17 -32 -38 9 -43 hhcurveto
          -177 -156 -162 -199 -91 37 -78 68 -42 hvcurveto
          -21 -33 rlineto
          352 498 rmoveto
          19 -38 8 -48 -49 vvcurveto
          -149 -80 -180 -142 -32 -27 10 17 -20 vhcurveto
          253 468 rmoveto
          -276 -442 rlineto
          -27 39 -12 56 57 vvcurveto
          150 81 182 142 40 30 -16 -26 22 vhcurveto
          endchar
        </CharString>
        <CharString name="Oslashacute">
          -9 callsubr
          162 55 callgsubr
          33 callgsubr
          471 782 -94 callgsubr
          hintmask 11011000
          -418 -810 rmoveto
          22 36 rlineto
          -12 28 32 -6 36 hhcurveto
          175 158 162 198 83 -31 73 -58 44 hvcurveto
          27 44 -29 18 -27 -43 rlineto
          17 -32 -38 9 -43 hhcurveto
          -177 -156 -162 -199 -91 37 -78 68 -42 hvcurveto
          -21 -33 rlineto
          352 498 rmoveto
          19 -38 8 -48 -49 vvcurveto
          -149 -80 -180 -142 -32 -27 10 17 -20 vhcurveto
          253 468 rmoveto
          -276 -442 rlineto
          -27 39 -12 56 57 vvcurveto
          150 81 182 142 40 30 -16 -26 22 vhcurveto
          endchar
        </CharString>
        <CharString name="Otilde">
          -9 callsubr
          53 6 53 55 callgsubr
          -76 19 hintmask 00000000
          hintmask 00110010
          458 620 -103 callsubr
          hintmask 11001100
          -312 -391 -104 callgsubr
          endchar
        </CharString>
        <CharString name="P">
          -8 0 25 callgsubr
          -21 21 hstemhm
          455 99 61 callsubr
          2 hmoveto
          -40 callsubr
          83 hlineto
          166 103 74 109 64 -63 72 -165 hvcurveto
          hintmask 11011000
          -50 callgsubr
          hintmask 11101000
          243 530 rmoveto
          71 hlineto
          104 31 -42 -51 -109 -58 -49 -107 hvcurveto
          -83 hlineto
          endchar
        </CharString>
        <CharString name="Q">
          92 -102 36 56 34 78 44 415 34 hstem
          46 100 363 101 vstem
          379 41 callsubr
          31 29 5 9 29 hvcurveto
          -52 19 32 -54 98 hhcurveto
          66 41 71 0 hvcurveto
          -13 11 rlineto
          0 -34 -46 -54 -46 -11 54 53 -20 vhcurveto
          94 62 72 109 138 vvcurveto
          137 -86 108 -145 vhcurveto
          -180 -534 rmoveto
          17 19 34 24 49 hhcurveto
          31 12 -28 -35 11 hvcurveto
          -10 -21 -23 -5 -24 hhcurveto
          -38 -29 14 23 -21 hvcurveto
          220 30 rmoveto
          32 -21 -30 23 -54 hhcurveto
          -63 -42 -39 -29 -24 hvcurveto
          -27 39 -12 56 56 vvcurveto
          150 81 182 142 101 39 -103 -105 -106 -32 -89 -58 -67 vhcurveto
          endchar
        </CharString>
        <CharString name="R">
          31 0 25 callgsubr
          -21 21 hstemhm
          455 99 61 callsubr
          2 hmoveto
          -81 callgsubr
          hintmask 11011000
          -50 callgsubr
          hintmask 11101000
          -36 callgsubr
        </CharString>
        <CharString name="Racute">
          51 callgsubr
          455 99 hintmask 00000000
          hintmask 00001000
          436 782 -94 callgsubr
          hintmask 11100100
          -540 -782 rmoveto
          -81 callgsubr
          hintmask 11010100
          -50 callgsubr
          hintmask 11100100
          -36 callgsubr
        </CharString>
        <CharString name="Rcaron">
          51 callgsubr
          257 238 -40 99 hintmask 00000000
          hintmask 00001100
          324 620 -90 callsubr
          hintmask 11100010
          -255 -782 rmoveto
          -81 callgsubr
          hintmask 11010010
          -50 callgsubr
          hintmask 11100010
          -36 callgsubr
        </CharString>
        <CharString name="Rcommaaccent">
          32 11 callsubr
          245 34 251 34 -21 21 hstemhm
          213 133 109 99 hintmask 00000000
          hintmask 11000010
          213 -90 rmoveto
          -102 callsubr
          hintmask 00111001
          -211 90 rmoveto
          -81 callgsubr
          hintmask 00110101
          -50 callgsubr
          hintmask 00111001
          -36 callgsubr
        </CharString>
        <CharString name="S">
          -73 -10 34 -3 -21 561 34 -10 -20 54 callsubr
          180 30 callsubr
          hintmask 1010001100000000
          206 -10 -55 callsubr
          hintmask 0001001010000000
          86 40 -49 -54 hvcurveto
          22 hlineto
          -71 callgsubr
          hintmask 1010011100000000
          -72 callgsubr
          hintmask 0100101100000000
          -36 callsubr
        </CharString>
        <CharString name="Sacute">
          2 callgsubr
          113 207 -140 30 callsubr
          hintmask 0000100010000000
          378 782 -94 callgsubr
          hintmask 1010000101000000
          -278 -792 -55 callsubr
          hintmask 0001000100100000
          86 40 -49 -54 hvcurveto
          22 hlineto
          -71 callgsubr
          hintmask 1010001101000000
          -72 callgsubr
          hintmask 0100010101000000
          -36 callsubr
        </CharString>
        <CharString name="Scaron">
          2 callgsubr
          35 238 -93 30 callsubr
          hintmask 0000100010000000
          266 620 -90 callsubr
          hintmask 1010000101000000
          7 -792 -55 callsubr
          hintmask 0001000100100000
          86 40 -49 -54 hvcurveto
          22 hlineto
          -71 callgsubr
          hintmask 1010001101000000
          -72 callgsubr
          hintmask 0100010101000000
          -36 callsubr
        </CharString>
        <CharString name="Scedilla">
          -72 67 callgsubr
          12 callsubr
          30 88 62 30 callsubr
          hintmask 1001000111000000
          113 -78 callsubr
          20 45 rlineto
          95 3 124 58 121 vvcurveto
          76 -65 41 -63 43 vhcurveto
          -60 40 -80 31 58 vvcurveto
          43 48 57 69 vhcurveto
          hintmask 1000100110100000
          86 40 -49 -54 hvcurveto
          22 hlineto
          -71 callgsubr
          hintmask 1101001111000000
          -72 callgsubr
          hintmask 1011010111000000
          -23 -139 rlineto
          23 hlineto
          12 2 16 8 7 hhcurveto
          16 37 -22 -6 63 hvcurveto
          -35 -77 rlineto
          -30 callsubr
        </CharString>
        <CharString name="Scircumflex">
          2 callgsubr
          180 30 callsubr
          hintmask 0000100000000000
          342 782 rmoveto
          -50 hlineto
          -121 -162 rlineto
          26 hlineto
          107 87 79 -87 rlineto
          26 hlineto
          hintmask 1010000110000000
          -203 -630 -55 callsubr
          hintmask 0001000101000000
          86 40 -49 -54 hvcurveto
          22 hlineto
          -71 callgsubr
          hintmask 1010001110000000
          -72 callgsubr
          hintmask 0100010110000000
          -36 callsubr
        </CharString>
        <CharString name="Scommaaccent">
          -73 -13 callgsubr
          28 12 callsubr
          -35 133 82 30 callsubr
          hintmask 1100000001000000
          129 -90 rmoveto
          -102 callsubr
          hintmask 0010100010100000
          77 80 -55 callsubr
          hintmask 0000010010010000
          86 40 -49 -54 hvcurveto
          22 hlineto
          -71 callgsubr
          hintmask 0010100110100000
          -72 callgsubr
          hintmask 0001001010100000
          -36 callsubr
        </CharString>
        <CharString name="T">
          -17 0 21 530 34 hstem
          54 21 460 21 vstem
          70 585 -84 callsubr
        </CharString>
        <CharString name="Tbar">
          -17 0 21 278 34 218 34 hstem
          54 21 64 270 126 21 vstem
          70 585 rmoveto
          13 callgsubr
          -36 -218 rlineto
          -88 77 callgsubr
          88 hlineto
          -43 -258 -80 callgsubr
          43 258 rlineto
          84 76 callsubr
          -84 hlineto
          36 218 rlineto
          164 -92 callsubr
          16 97 rlineto
          endchar
        </CharString>
        <CharString name="Tcaron">
          -17 0 21 530 34 35 162 hstem
          54 21 162 238 60 21 vstem
          304 620 -90 callsubr
          -167 -197 -84 callsubr
        </CharString>
        <CharString name="Tcommaaccent">
          -17 -199 22 177 21 530 34 hstem
          54 21 145 88 227 21 vstem
          139 -78 callsubr
          24 55 rlineto
          89 -77 callgsubr
          -502 hlineto
          13 callgsubr
          -48 callsubr
          91 hlineto
          -39 -86 rlineto
          -30 callsubr
        </CharString>
        <CharString name="Thorn">
          -26 0 21 120 34 251 34 104 21 hstem
          415 99 vstem
          2 20 callsubr
          17 100 rlineto
          64 hlineto
          169 100 75 113 72 -65 59 -163 hvcurveto
          -52 hlineto
          14 84 -79 callgsubr
          -14 -8 -16 -6 -42 hhcurveto
          222 405 rmoveto
          52 hlineto
          103 32 -33 -54 -112 -55 -52 -110 hvcurveto
          -64 hlineto
          endchar
        </CharString>
        <CharString name="U">
          -32 callgsubr
          hstem
          79 91 vstem
          298 24 rmoveto
          -77 -51 -100 callgsubr
          -139 86 -47 117 107 -12 callsubr
          184 31 vhcurveto
          49 296 rlineto
          -57 callsubr
          -160 -107 callgsubr
          -53 -316 -66 callsubr
          endchar
        </CharString>
        <CharString name="Uacute">
          -32 callgsubr
          35 162 hstem
          79 91 213 207 vstem
          484 782 -94 callgsubr
          -292 -758 rmoveto
          -77 -51 -100 callgsubr
          -139 86 -47 117 107 -12 callsubr
          184 31 vhcurveto
          49 296 rlineto
          -57 callsubr
          -160 -107 callgsubr
          -53 -316 -66 callsubr
          endchar
        </CharString>
        <CharString name="Ubreve">
          -32 callgsubr
          45 72 hstem
          79 91 121 62 callsubr
          vstem
          397 630 -97 callsubr
          -99 -606 rmoveto
          -77 -51 -100 callgsubr
          -139 86 -47 117 107 -12 callsubr
          184 31 vhcurveto
          49 296 rlineto
          -57 callsubr
          -160 -107 callgsubr
          -53 -316 -66 callsubr
          endchar
        </CharString>
        <CharString name="Ucircumflex">
          -32 callgsubr
          35 162 hstem
          79 91 107 238 vstem
          448 782 rmoveto
          -50 hlineto
          -121 -162 rlineto
          26 hlineto
          107 87 79 -87 rlineto
          26 hlineto
          -217 -596 rmoveto
          -77 -51 -100 callgsubr
          -139 86 -47 117 107 -12 callsubr
          184 31 vhcurveto
          49 296 rlineto
          -57 callsubr
          -160 -107 callgsubr
          -53 -316 -66 callsubr
          endchar
        </CharString>
        <CharString name="Udieresis">
          -32 callgsubr
          35 98 hstem
          79 91 92 100 84 100 vstem
          446 -72 callsubr
          36 -637 rmoveto
          -77 -51 -100 callgsubr
          -139 86 -47 117 107 -12 callsubr
          184 31 vhcurveto
          49 296 rlineto
          -57 callsubr
          -160 -107 callgsubr
          -53 -316 -66 callsubr
          endchar
        </CharString>
        <CharString name="Ugrave">
          -32 callgsubr
          35 162 hstem
          79 91 99 153 vstem
          375 782 rmoveto
          -106 hlineto
          127 -162 rlineto
          26 hlineto
          -124 -596 rmoveto
          -77 -51 -100 callgsubr
          -139 86 -47 117 107 -12 callsubr
          184 31 vhcurveto
          49 296 rlineto
          -57 callsubr
          -160 -107 callgsubr
          -53 -316 -66 callsubr
          endchar
        </CharString>
        <CharString name="Uhorn">
          75 callgsubr
          77 87 hstem
          79 91 453 116 vstem
          739 683 -96 callgsubr
        </CharString>
        <CharString name="Uhungarumlaut">
          -32 callgsubr
          35 162 hstemhm
          79 91 113 68 callsubr
          40 callsubr
          384 782 -94 callgsubr
          hintmask 00100100
          -22 callsubr
          hintmask 11010000
          -352 -758 rmoveto
          -77 -51 -100 callgsubr
          -139 86 -47 117 107 -12 callsubr
          184 31 vhcurveto
          49 296 rlineto
          -57 callsubr
          -160 -107 callgsubr
          -53 -316 -66 callsubr
          endchar
        </CharString>
        <CharString name="Umacron">
          -32 callgsubr
          49 44 hstem
          79 91 90 271 vstem
          267 7 callsubr
          -233 -654 rmoveto
          -77 -51 -100 callgsubr
          -139 86 -47 117 107 -12 callsubr
          184 31 vhcurveto
          49 296 rlineto
          -57 callsubr
          -160 -107 callgsubr
          -53 -316 -66 callsubr
          endchar
        </CharString>
        <CharString name="Uogonek">
          69 68 callgsubr
          -12 callgsubr
          hstem
          80 91 33 56 vstem
          299 24 rmoveto
          -77 -51 -100 callgsubr
          -131 76 -49 107 -5 vhcurveto
          -24 -23 -34 -41 -52 -74 callgsubr
          28 17 26 14 18 vhcurveto
          104 4 103 75 30 179 49 296 rcurveline
          -57 callsubr
          -160 -107 callgsubr
          -53 -316 -66 callsubr
          endchar
        </CharString>
        <CharString name="Uring">
          -32 callgsubr
          30 27 94 27 hstem
          79 91 162 28 95 27 vstem
          415 736 -76 callgsubr
          -34 -652 rmoveto
          -77 -51 -100 callgsubr
          -139 86 -47 117 107 -12 callsubr
          184 31 vhcurveto
          49 296 rlineto
          -57 callsubr
          -160 -107 callgsubr
          -53 -316 -66 callsubr
          endchar
        </CharString>
        <CharString name="Utilde">
          -32 callgsubr
          35 53 6 53 hstem
          79 91 77 45 callgsubr
          471 620 -103 callsubr
          -173 -596 rmoveto
          -77 -51 -100 callgsubr
          -139 86 -47 117 107 -12 callsubr
          184 31 vhcurveto
          49 296 rlineto
          -57 callsubr
          -160 -107 callgsubr
          -53 -316 -66 callsubr
          endchar
        </CharString>
        <CharString name="V">
          -9 21 -21 564 21 hstem
          261 50 callsubr
          103 -543 rlineto
          48 hlineto
          288 548 rlineto
          9 5 20 7 38 -56 callsubr
          40 14 -5 -13 5 hvcurveto
          -216 -413 -83 419 14 callsubr
          endchar
        </CharString>
        <CharString name="W">
          288 21 -21 564 21 hstem
          558 585 -89 callsubr
        </CharString>
        <CharString name="Wacute">
          288 -46 callgsubr
          35 162 hstem
          445 207 vstem
          546 782 -94 callgsubr
          -94 -197 -89 callsubr
        </CharString>
        <CharString name="Wcircumflex">
          288 -46 callgsubr
          35 162 hstem
          339 238 vstem
          510 782 rmoveto
          -50 hlineto
          -121 -162 rlineto
          26 hlineto
          107 87 79 -87 rlineto
          26 hlineto
          -19 -35 -89 callsubr
        </CharString>
        <CharString name="Wdieresis">
          288 -46 callgsubr
          35 98 hstem
          324 100 84 100 vstem
          508 -72 callsubr
          234 -76 -89 callsubr
        </CharString>
        <CharString name="Wgrave">
          288 -46 callgsubr
          35 162 hstem
          331 153 vstem
          437 782 rmoveto
          -106 hlineto
          127 -162 rlineto
          26 hlineto
          74 -35 -89 callsubr
        </CharString>
        <CharString name="X">
          -32 -46 callgsubr
          hstem
          281 53 callsubr
          39 16 -6 -14 6 hvcurveto
          107 -267 -189 -234 rlineto
          -13 -10 -15 -9 -42 -20 callsubr
          164 hlineto
          -82 callgsubr
          -37 -17 5 11 -5 hvcurveto
          166 205 85 -209 rlineto
          -9 -10 -17 -3 -33 -20 callsubr
          219 hlineto
          -82 callgsubr
          -38 -18 8 13 -5 hvcurveto
          -115 284 179 221 rlineto
          12 10 15 5 37 -56 callsubr
          38 16 -5 -11 5 hvcurveto
          -151 -187 -77 191 rlineto
          9 10 17 3 33 hhcurveto
          endchar
        </CharString>
        <CharString name="Y">
          9 -46 callgsubr
          hstem
          263 585 -96 callsubr
        </CharString>
        <CharString name="Yacute">
          9 -46 callgsubr
          35 162 hstem
          354 207 vstem
          455 782 -94 callgsubr
          -298 -197 -96 callsubr
        </CharString>
        <CharString name="Ycircumflex">
          9 -46 callgsubr
          35 162 hstem
          248 238 vstem
          419 782 rmoveto
          -50 hlineto
          -121 -162 rlineto
          26 hlineto
          107 87 79 -87 rlineto
          26 hlineto
          -223 -35 -96 callsubr
        </CharString>
        <CharString name="Ydieresis">
          9 -46 callgsubr
          35 98 hstem
          233 100 84 100 vstem
          417 -72 callsubr
          30 -76 -96 callsubr
        </CharString>
        <CharString name="Ygrave">
          9 -46 callgsubr
          35 162 hstem
          240 153 vstem
          346 782 rmoveto
          -106 hlineto
          127 -162 rlineto
          26 hlineto
          -130 -35 -96 callsubr
        </CharString>
        <CharString name="Z">
          76 callgsubr
          hstem
          93 21 vstem
          409 hmoveto
          -75 callgsubr
        </CharString>
        <CharString name="Zacute">
          76 callgsubr
          35 162 hstem
          93 21 184 207 vstem
          399 782 -94 callgsubr
          -96 -782 rmoveto
          -75 callgsubr
        </CharString>
        <CharString name="Zcaron">
          76 callgsubr
          35 162 hstem
          93 21 106 238 vstem
          287 620 -90 callsubr
          189 -782 rmoveto
          -75 callgsubr
        </CharString>
        <CharString name="Zdotaccent">
          76 callgsubr
          36 102 hstem
          93 21 154 103 vstem
          268 664 -101 callsubr
          141 -664 rmoveto
          -75 callgsubr
        </CharString>
        <CharString name="a">
          -70 -10 34 -24 23 391 36 69 callsubr
          hintmask 10101010
          160 336 -91 callsubr
          hintmask 10110100
          -88 callgsubr
          hintmask 01100100
          -26 20 42 -11 65 hhcurveto
          -101 callgsubr
          29 176 rlineto
          hintmask 10101010
          -99 callgsubr
          hintmask 10110100
          -99 callsubr
          endchar
        </CharString>
        <CharString name="aacute">
          -70 -10 34 -24 23 391 36 65 162 -13 callsubr
          93 207 -174 73 callgsubr
          hintmask 0001001000000000
          354 677 -94 callgsubr
          hintmask 1010010010000000
          -300 -341 -91 callsubr
          hintmask 1010100100000000
          -88 callgsubr
          hintmask 0110000100000000
          -26 20 42 -11 65 hhcurveto
          -101 callgsubr
          29 176 rlineto
          hintmask 1010010010000000
          -99 callgsubr
          hintmask 1010100100000000
          -99 callsubr
          endchar
        </CharString>
        <CharString name="abreve">
          -70 -10 34 -24 23 391 36 75 72 -13 callsubr
          1 29 96 92 -57 92 -27 28 -27 callsubr
          hintmask 0001001001000000
          267 525 -97 callsubr
          hintmask 1010010010000000
          -107 -189 -91 callsubr
          hintmask 1010100100000000
          -88 callgsubr
          hintmask 0110000100000000
          -26 20 42 -11 65 hhcurveto
          -101 callgsubr
          29 176 rlineto
          hintmask 1010010010000000
          -99 callgsubr
          hintmask 1010100100000000
          -99 callsubr
          endchar
        </CharString>
        <CharString name="acircumflex">
          -70 -10 34 -24 23 391 36 65 162 69 callsubr
          hintmask 00010000
          318 677 rmoveto
          -50 hlineto
          -121 -162 rlineto
          26 hlineto
          107 87 79 -87 rlineto
          26 hlineto
          hintmask 10100101
          -225 -31 callsubr
          hintmask 10101010
          -88 callgsubr
          hintmask 01100010
          -26 20 42 -11 65 hhcurveto
          -101 callgsubr
          29 176 rlineto
          hintmask 10100101
          -99 callgsubr
          hintmask 10101010
          -99 callsubr
          endchar
        </CharString>
        <CharString name="acute">
          -252 26 callsubr
          144 207 vstem
          245 662 -94 callgsubr
          endchar
        </CharString>
        <CharString name="acutecomb">
          26 callsubr
          -183 207 vstem
          -82 662 -94 callgsubr
          endchar
        </CharString>
        <CharString name="adieresis">
          -70 -10 34 -24 23 391 36 65 98 -13 callsubr
          -28 100 54 92 -62 100 -95 66 callsubr
          hintmask 0001001010000000
          316 556 -104 callsubr
          hintmask 1010010001000000
          28 -220 -91 callsubr
          hintmask 1010100100000000
          -88 callgsubr
          hintmask 0110000100000000
          -26 20 42 -11 65 hhcurveto
          -101 callgsubr
          29 176 rlineto
          hintmask 1010010001000000
          -99 callgsubr
          hintmask 1010100100000000
          -99 callsubr
          endchar
        </CharString>
        <CharString name="ae">
          211 -10 34 206 21 163 36 hstemhm
          6 92 -25 87 145 99 -95 95 239 90 hintmask 00000000
          hintmask 11100001
          406 239 rmoveto
          110 18 68 71 51 hhcurveto
          79 21 -55 -35 -46 -36 -17 -52 -8 hvcurveto
          hintmask 11101001
          -395 76 rmoveto
          23 -15 8 -14 vhcurveto
          39 17 41 9 52 hhcurveto
          58 22 -29 -60 -20 -3 -32 -5 -22 hvcurveto
          hintmask 11110101
          -119 -33 -188 -8 -127 vvcurveto
          -73 57 -20 75 128 49 40 25 24 vhcurveto
          -49 36 58 -16 52 1 callsubr
          -65 -54 -21 -35 -40 vhcurveto
          34 -22 -44 22 -70 hhcurveto
          hintmask 11101001
          -104 -80 -41 -81 -23 13 -15 22 25 27 13 32 hvcurveto
          hintmask 11100011
          149 -105 rmoveto
          hintmask 11110101
          -3 -18 -1 -18 -19 vvcurveto
          -42 8 -34 14 -26 vhcurveto
          -26 -30 -59 -23 -77 hhcurveto
          -38 -25 13 45 108 125 25 86 15 hvcurveto
          endchar
        </CharString>
        <CharString name="afii00208">
          300 35 callsubr
          724 89 callgsubr
        </CharString>
        <CharString name="afii57929">
          -334 455 67 callsubr
          156 133 vstem
          156 613 -67 callgsubr
        </CharString>
        <CharString name="afii61352">
          263 0 21 108 26 60 25 189 26 109 21 hstem
          540 59 129 59 vstem
          2 63 callsubr
          75 450 231 -491 rlineto
          9 hlineto
          91 544 rlineto
          -57 callsubr
          -160 -107 callgsubr
          -60 -356 -184 397 rlineto
          -134 -83 callsubr
          640 194 37 callsubr
          24 214 38 callsubr
          -158 -274 88 callsubr
          endchar
        </CharString>
        <CharString name="agrave">
          -70 -10 34 -24 23 391 36 65 162 69 callsubr
          hintmask 00010000
          245 677 rmoveto
          -106 hlineto
          127 -162 rlineto
          26 hlineto
          hintmask 10100101
          -132 -31 callsubr
          hintmask 10101010
          -88 callgsubr
          hintmask 01100010
          -26 20 42 -11 65 hhcurveto
          -101 callgsubr
          29 176 rlineto
          hintmask 10100101
          -99 callgsubr
          hintmask 10101010
          -99 callsubr
          endchar
        </CharString>
        <CharString name="amacron">
          -70 -10 34 -24 23 391 36 79 44 69 callsubr
          hintmask 00010000
          137 573 87 callgsubr
          264 48 callsubr
          hintmask 10100101
          -241 -237 -91 callsubr
          hintmask 10101010
          -88 callgsubr
          hintmask 01100010
          -26 20 42 -11 65 hhcurveto
          -101 callgsubr
          29 176 rlineto
          hintmask 10100101
          -99 callgsubr
          hintmask 10101010
          -99 callsubr
          endchar
        </CharString>
        <CharString name="ampersand">
          53 -10 42 -42 54 280 21 215 35 hstemhm
          -1 104 84 82 105 43 hintmask 00000000
          hintmask 00111110
          339 560 rmoveto
          25 10 -27 -33 -71 -39 -35 -58 -37 hvcurveto
          -5 29 -3 26 23 vvcurveto
          68 20 57 50 vhcurveto
          245 -215 rmoveto
          -29 callsubr
          38 16 -5 -11 5 hvcurveto
          -26 -55 -37 -78 -47 -59 -33 54 -30 78 -17 72 rrcurveto
          64 43 68 53 85 vvcurveto
          50 -31 44 -61 -58 -80 -37 -134 -33 3 -38 8 -41 vhcurveto
          -95 -51 -104 -50 -111 vvcurveto
          hintmask 10111110
          -70 53 -40 131 53 47 18 28 40 vhcurveto
          hintmask 01111110
          -29 30 35 -17 40 hhcurveto
          63 31 39 42 23 hvcurveto
          -10 10 rlineto
          -29 -25 -13 -8 -52 hhcurveto
          -20 -22 18 28 -21 hvcurveto
          57 63 41 82 34 70 rrcurveto
          13 6 19 6 41 hhcurveto
          -276 -267 rmoveto
          hintmask 10111110
          -16 -24 -26 -9 -27 hhcurveto
          -79 -45 26 64 73 44 33 61 41 hvcurveto
          19 -78 32 -80 45 -54 rrcurveto
          endchar
        </CharString>
        <CharString name="aogonek">
          -70 68 callgsubr
          34 -24 23 391 36 hstemhm
          7 93 -26 87 126 92 -91 56 -22 66 callsubr
          hintmask 1101101000000000
          311 230 rmoveto
          -22 -134 rlineto
          -99 callsubr
          hintmask 1101010010000000
          -150 106 -91 callsubr
          hintmask 1101100100000000
          -88 callgsubr
          13 -16 21 -10 30 -5 rrcurveto
          -21 -17 -54 -49 -66 -74 callgsubr
          35 27 33 14 16 vhcurveto
          hintmask 1011001000000000
          -1 12 13 -1 15 hhcurveto
          -101 callgsubr
          29 176 rlineto
          hintmask 1101010010000000
          2 13 2 13 12 vvcurveto
          74 -44 56 -112 -104 -80 -42 -80 -23 14 -15 22 25 26 14 32 vhcurveto
          endchar
        </CharString>
        <CharString name="aring">
          -70 -10 34 -24 23 391 36 60 27 94 27 -13 callsubr
          42 28 56 92 -57 92 -88 27 -27 callsubr
          hintmask 0001100100100000
          285 631 -76 callgsubr
          hintmask 1010001001000000
          -42 -235 -91 callsubr
          hintmask 1010010010000000
          -88 callgsubr
          hintmask 0110000010000000
          -26 20 42 -11 65 hhcurveto
          -101 callgsubr
          29 176 rlineto
          hintmask 1010001001000000
          -99 callgsubr
          hintmask 1010010010000000
          -99 callsubr
          endchar
        </CharString>
        <CharString name="asciicircum">
          -96 316 224 hstem
          331 540 rmoveto
          -27 hlineto
          -196 -196 29 -28 173 172 115 -172 39 28 rlineto
          endchar
        </CharString>
        <CharString name="asciitilde">
          -3 208 63 6 63 hstem
          54 26 399 26 vstem
          380 208 -4 callgsubr
        </CharString>
        <CharString name="asterisk">
          -192 358 104 8 87 hstemhm
          98 72 17 88 -57 87 61 callsubr
          244 358 rmoveto
          24 37 24 27 5 -1 4 -2 5 hvcurveto
          11 -6 -54 28 -15 hhcurveto
          5 5 10 10 -3 10 rrcurveto
          -7 8 48 -10 22 hhcurveto
          24 13 23 23 23 -13 18 -18 -3 -4 -1 -1 -4 hvcurveto
          -14 -4 -54 -48 -5 -12 -2 9 -7 6 -10 1 rrcurveto
          hintmask 11110000
          14 9 41 58 17 vvcurveto
          19 -16 10 -22 -24 -26 -13 -24 -16 20 -52 9 -8 vhcurveto
          -9 -1 -11 -6 -5 -8 -3 14 -35 45 -12 4 rrcurveto
          1 -4 -3 1 -3 hhcurveto
          -21 -28 -28 -31 -15 8 -13 18 21 48 10 7 12 hvcurveto
          -2 -10 -2 -7 8 -8 -14 -1 -61 -27 -10 -11 rrcurveto
          -6 -7 -4 -8 -9 vvcurveto
          -21 22 -20 22 10 9 4 9 9 vhcurveto
          9 9 13 43 4 23 rrcurveto
          1 5 0 4 3 vvcurveto
          -2 4 3 -1 5 hhcurveto
          5 5 1 3 5 hvcurveto
          -1 -2 -1 -4 -1 -5 rrcurveto
          hintmask 11101000
          -2 -12 -1 -19 -16 vvcurveto
          -28 4 -15 22 vhcurveto
          endchar
        </CharString>
        <CharString name="at">
          76 -10 39 117 36 -23 43 205 30 116 42 hstemhm
          47 43 80 47 116 51 159 42 -27 callsubr
          hintmask 1011111110000000
          235 159 rmoveto
          33 37 21 33 33 hvcurveto
          -3 -9 -2 -8 -10 vvcurveto
          hintmask 1101111110000000
          -31 25 -9 17 140 70 154 104 129 -84 62 -107 -153 -194 -134 -227 -150 120 -94 123 150 83 88 96 58 vhcurveto
          -15 8 rlineto
          -33 -24 -79 -120 -160 hhcurveto
          -95 -118 75 139 201 171 109 130 74 78 -22 -125 -70 -39 -154 -99 -12 -9 5 8 2 1 3 2 3 hvcurveto
          96 223 rlineto
          -53 hlineto
          -23 -53 rlineto
          36 -3 -20 28 -41 hhcurveto
          -68 -105 -98 -104 -42 20 -34 45 hvcurveto
          hintmask 1011111110000000
          23 43 rmoveto
          -29 -12 21 28 79 74 77 51 29 12 -22 -28 -80 -74 -75 -51 hvcurveto
          endchar
        </CharString>
        <CharString name="atilde">
          -70 -10 34 -24 23 391 36 65 53 6 53 43 callgsubr
          4 19 -27 callsubr
          hintmask 0001100001000000
          341 515 -103 callsubr
          hintmask 1010001010000000
          -181 -31 callsubr
          hintmask 1010010100000000
          -88 callgsubr
          hintmask 0110000100000000
          -26 20 42 -11 65 hhcurveto
          -101 callgsubr
          29 176 rlineto
          hintmask 1010001010000000
          -99 callgsubr
          hintmask 1010010100000000
          -99 callsubr
          endchar
        </CharString>
        <CharString name="b">
          -17 -10 34 396 34 110 86 callsubr
          401 94 vstem
          175 376 rmoveto
          42 254 -88 callsubr
          -86 -509 rlineto
          0 54 -60 141 143 127 102 186 137 -101 39 -69 -63 -50 -37 -41 -37 vhcurveto
          -9 -51 rmoveto
          44 31 51 51 61 hhcurveto
          57 35 -53 -84 -155 -94 -104 -82 -45 -35 6 8 -27 hvcurveto
          endchar
        </CharString>
        <CharString name="backslash">
          -102 73 317 vstem
          390 -10 rmoveto
          -285 622 -32 -18 285 -622 rlineto
          endchar
        </CharString>
        <CharString name="bar">
          -361 30 150 vstem
          144 650 rmoveto
          -114 -680 rlineto
          36 hlineto
          114 680 rlineto
          endchar
        </CharString>
        <CharString name="braceleft">
          -286 -153 24 338 23 339 23 hstemhm
          36 68 -20 69 hintmask 00000000
          hintmask 11110000
          38 -61 rmoveto
          -1 -6 -1 -5 -6 vvcurveto
          -39 26 -36 106 vhcurveto
          4 24 rlineto
          -42 -26 9 35 5 0 4 1 6 hvcurveto
          6 36 33 126 8 49 rrcurveto
          hintmask 11101000
          1 6 0 5 6 vvcurveto
          25 -11 24 -37 14 vhcurveto
          51 17 17 32 5 31 8 49 11 125 6 36 rrcurveto
          48 8 31 12 48 hhcurveto
          3 23 rlineto
          -121 -32 -47 -45 -8 hvcurveto
          -8 -49 -12 -125 -6 -36 rrcurveto
          -48 -8 -29 -12 -48 hhcurveto
          -4 -23 rlineto
          42 25 -9 -34 -5 -1 -5 -1 -6 hvcurveto
          -6 -36 -30 -126 -8 -49 rrcurveto
          endchar
        </CharString>
        <CharString name="braceright">
          -286 -153 23 339 23 338 24 hstemhm
          103 69 -20 68 61 callsubr
          218 502 rmoveto
          1 6 1 5 6 vvcurveto
          39 -27 36 -106 vhcurveto
          -4 -24 rlineto
          42 27 -9 -35 -5 0 -4 -1 -6 hvcurveto
          -6 -36 -33 -126 -8 -49 rrcurveto
          hintmask 11110000
          -1 -6 0 -5 -6 vvcurveto
          -25 11 -24 37 -14 vhcurveto
          -51 -17 -18 -32 -5 -31 -8 -49 -10 -125 -6 -36 rrcurveto
          -48 -8 -31 -12 -48 hhcurveto
          -4 -23 rlineto
          121 33 47 45 8 hvcurveto
          8 49 12 125 6 36 rrcurveto
          48 8 29 12 48 hhcurveto
          4 23 rlineto
          -42 -25 9 34 5 1 5 1 6 hvcurveto
          6 36 30 126 8 49 rrcurveto
          endchar
        </CharString>
        <CharString name="bracketleft">
          -262 -156 36 699 36 hstem
          7 325 vstem
          210 579 rmoveto
          116 hlineto
          6 36 rlineto
          -196 hlineto
          -129 -771 rlineto
          196 hlineto
          6 36 rlineto
          -116 hlineto
          endchar
        </CharString>
        <CharString name="bracketright">
          -262 -156 36 699 36 hstem
          -49 325 vstem
          73 -120 rmoveto
          -116 hlineto
          -6 -36 rlineto
          196 hlineto
          129 771 rlineto
          -196 hlineto
          -6 -36 rlineto
          116 hlineto
          endchar
        </CharString>
        <CharString name="breve">
          -180 510 72 hstem
          165 62 callsubr
          vstem
          271 510 -97 callsubr
          endchar
        </CharString>
        <CharString name="brokenbar">
          -356 32 150 vstem
          146 650 81 callsubr
          -102 -392 81 callsubr
          endchar
        </CharString>
        <CharString name="bullet">
          -218 186 232 hstem
          51 247 vstem
          192 418 rmoveto
          -78 -63 -66 -68 -55 48 -43 56 77 66 68 67 55 -50 42 -56 hvcurveto
          endchar
        </CharString>
        <CharString name="c">
          -74 14 callgsubr
          hstem
          31 98 223 92 vstem
          352 323 rmoveto
          23 callgsubr
          58 -53 30 -96 -163 -101 -119 -156 -37 callsubr
          -39 callsubr
          vhcurveto
          -16 callgsubr
          -70 -53 79 95 130 81 88 90 52 39 -11 -39 3 hvcurveto
          -15 -27 -13 -34 hvcurveto
          endchar
        </CharString>
        <CharString name="cacute">
          -74 14 callgsubr
          65 162 hstemhm
          31 98 223 92 -5 callsubr
          399 677 -94 callgsubr
          hintmask 11101100
          -153 -354 rmoveto
          23 callgsubr
          58 -53 30 -96 -163 -101 -119 -156 -37 callsubr
          -39 callsubr
          vhcurveto
          -16 callgsubr
          -70 -53 79 95 130 81 88 90 52 39 -11 -39 3 hvcurveto
          -15 -27 -13 -34 hvcurveto
          endchar
        </CharString>
        <CharString name="caron">
          -194 26 callsubr
          171 238 vstem
          238 500 -90 callsubr
          endchar
        </CharString>
        <CharString name="ccaron">
          -74 14 callgsubr
          65 162 hstemhm
          31 98 91 238 -106 92 44 callsubr
          287 515 -90 callsubr
          hintmask 11101010
          132 -354 rmoveto
          23 callgsubr
          58 -53 30 -96 -163 -101 -119 -156 -37 callsubr
          -39 callsubr
          vhcurveto
          -16 callgsubr
          -70 -53 79 95 130 81 88 90 52 39 -11 -39 3 hvcurveto
          -15 -27 -13 -34 hvcurveto
          endchar
        </CharString>
        <CharString name="ccedilla">
          -73 67 callgsubr
          31 callsubr
          hstem
          32 98 88 88 47 92 vstem
          137 -78 callsubr
          20 46 89 5 56 30 44 57 rlinecurve
          -16 callgsubr
          -70 -53 79 95 130 81 88 90 52 39 -11 -39 3 hvcurveto
          -15 -27 -13 -34 23 callgsubr
          58 -53 30 -96 -163 -101 -119 -156 -138 88 -42 78 -4 hvcurveto
          -34 -76 rlineto
          -30 callsubr
        </CharString>
        <CharString name="ccircumflex">
          -74 14 callgsubr
          65 162 hstemhm
          31 98 223 92 -5 callsubr
          363 677 rmoveto
          -50 hlineto
          -121 -162 rlineto
          26 hlineto
          107 87 79 -87 rlineto
          26 hlineto
          hintmask 11101100
          -78 -192 rmoveto
          23 callgsubr
          58 -53 30 -96 -163 -101 -119 -156 -37 callsubr
          -39 callsubr
          vhcurveto
          -16 callgsubr
          -70 -53 79 95 130 81 88 90 52 39 -11 -39 3 hvcurveto
          -15 -27 -13 -34 hvcurveto
          endchar
        </CharString>
        <CharString name="cdotaccent">
          -74 14 callgsubr
          66 102 hstemhm
          31 98 139 103 -19 92 44 callsubr
          268 559 -101 callsubr
          hintmask 11101010
          84 -236 rmoveto
          23 callgsubr
          58 -53 30 -96 -163 -101 -119 -156 -37 callsubr
          -39 callsubr
          vhcurveto
          -16 callgsubr
          -70 -53 79 95 130 81 88 90 52 39 -11 -39 3 hvcurveto
          -15 -27 -13 -34 hvcurveto
          endchar
        </CharString>
        <CharString name="cedilla">
          -248 -199 22 hstem
          136 88 vstem
          55 -78 callsubr
          29 67 rlineto
          -38 hlineto
          -44 -98 rlineto
          -30 callsubr
        </CharString>
        <CharString name="cent">
          -78 14 callgsubr
          hstem
          24 99 222 92 vstem
          345 323 rmoveto
          23 callgsubr
          47 -34 29 -64 9 vhcurveto
          41 119 -35 7 -43 -123 rlineto
          -14 hlineto
          -163 -101 -119 -157 -112 58 -48 64 -17 hvcurveto
          -40 -118 36 -7 40 119 rlineto
          -1 7 8 0 7 hhcurveto
          -39 callsubr
          hvcurveto
          -16 callgsubr
          -16 -15 4 8 -14 hvcurveto
          129 378 33 -5 22 -14 3 -29 rlinecurve
          -15 -27 -13 -34 hvcurveto
          -53 97 rmoveto
          -122 -356 rlineto
          -29 32 -18 50 56 vvcurveto
          129 80 88 89 1 vhcurveto
          endchar
        </CharString>
        <CharString name="circumflex">
          -194 26 callsubr
          144 238 vstem
          315 28 callsubr
        </CharString>
        <CharString name="colon">
          -303 -10 124 206 124 hstemhm
          30 122 -66 122 hintmask 00000000
          hintmask 10100000
          30 33 callsubr
          hintmask 01010000
          56 330 -47 callsubr
          endchar
        </CharString>
        <CharString name="comma">
          -323 -129 28 108 93 hstem
          18 133 vstem
          18 33 -7 callsubr
        </CharString>
        <CharString name="copyright">
          94 -8 27 97 27 259 27 88 27 hstemhm
          46 27 106 63 173 20 -15 22 136 28 -27 callsubr
          hintmask 1111110010000000
          73 227 rmoveto
          164 151 126 144 123 87 -90 -118 -13 -1 -14 -2 -14 vhcurveto
          -137 -23 -131 -112 -137 hhcurveto
          -123 -88 90 118 hvcurveto
          299 317 rmoveto
          -161 -165 -140 -182 -130 98 -100 136 152 145 124 152 25 hvcurveto
          3 16 1 15 15 vvcurveto
          130 -98 100 -136 vhcurveto
          -12 -142 rmoveto
          hintmask 1111111010000000
          43 11 -22 -30 1 hvcurveto
          20 hlineto
          hintmask 1111110110000000
          7 74 rlineto
          -22 hlineto
          -7 -1 -1 -3 -1 -5 -17 15 -30 hhcurveto
          -83 -103 -71 -118 -65 39 -59 86 65 38 37 36 20 hvcurveto
          -20 10 rlineto
          -24 -13 -37 -32 -38 hhcurveto
          -40 -37 32 67 89 53 71 65 hvcurveto
          endchar
        </CharString>
        <CharString name="currency">
          -40 74 45 286 45 hstem
          67 46 290 46 vstem
          113 238 rmoveto
          95 86 72 83 71 50 -51 -68 -95 -86 -72 -83 -71 -50 51 68 vhcurveto
          336 56 rmoveto
          32 -8 30 -16 24 vhcurveto
          63 54 -27 32 -63 -55 rlineto
          24 -28 -38 15 -43 hhcurveto
          -44 -42 -15 -25 -36 hvcurveto
          -46 56 -37 -32 46 -55 rlineto
          -36 -38 -27 -47 -63 vvcurveto
          -31 9 -29 14 -24 vhcurveto
          -63 -53 26 -32 62 53 rlineto
          -26 28 38 -15 45 hhcurveto
          44 44 16 25 36 hvcurveto
          43 -53 38 32 -45 52 rlineto
          36 38 27 46 64 vvcurveto
          endchar
        </CharString>
        <CharString name="d">
          -13 -10 52 callsubr
          43 -20 hstemhm
          30 98 208 92 hintmask 00000000
          hintmask 10111110
          394 430 rmoveto
          -44 callgsubr
          46 24 24 29 hvcurveto
          hintmask 01111110
          -27 18 45 46 callgsubr
          87 524 -88 callsubr
          -78 -498 rmoveto
          hintmask 10111110
          -70 callsubr
          endchar
        </CharString>
        <CharString name="dagger">
          -202 454 35 63 47 hstemhm
          188 36 -34 72 hintmask 00000000
          hintmask 11100000
          129 105 rmoveto
          -51 7 -16 0 vhcurveto
          0 39 48 31 188 vhcurveto
          17 100 1 56 18 vvcurveto
          6 82 vlineto
          34 callgsubr
          hintmask 11010000
          -3 callsubr
          hintmask 11100000
          82 hlineto
          -1 -59 -186 -162 vvcurveto
          endchar
        </CharString>
        <CharString name="daggerdbl">
          -184 37 47 63 35 272 35 63 47 hstem
          115 73 13 72 vstem
          164 318 rmoveto
          -6 -38 -1 -45 -4 -53 rrcurveto
          -82 hlineto
          -25 -20 -15 -19 -12 10 -10 15 14 11 10 11 2 hvcurveto
          71 hlineto
          -11 -63 rlineto
          -10 -13 -11 -14 -12 10 -10 23 26 12 12 14 2 hvcurveto
          11 2 -9 10 -9 hhcurveto
          11 63 rlineto
          71 hlineto
          -11 -2 7 -10 14 hhcurveto
          17 17 13 17 14 -14 12 -22 hvcurveto
          -82 hlineto
          14 53 15 45 6 38 6 38 1 45 4 53 rrcurveto
          82 hlineto
          34 callgsubr
          -3 callsubr
          82 hlineto
          -14 -53 -15 -45 -6 -38 rrcurveto
          endchar
        </CharString>
        <CharString name="dcaron">
          14 -10 85 callsubr
          28 -28 34 102 74 -66 89 callsubr
          30 98 208 92 121 133 -27 callsubr
          hintmask 0010100001000000
          549 578 rmoveto
          -102 callsubr
          hintmask 1001011110000000
          -155 -148 rmoveto
          -44 callgsubr
          46 24 24 29 hvcurveto
          hintmask 0101011110000000
          -27 18 45 46 callgsubr
          87 524 -88 callsubr
          -78 -498 rmoveto
          hintmask 1001011110000000
          -70 callsubr
          endchar
        </CharString>
        <CharString name="dcroat">
          -13 -10 57 callgsubr
          26 44 40 89 callsubr
          30 98 146 271 -209 66 callsubr
          hintmask 1011111010000000
          338 61 rmoveto
          -70 callsubr
          154 419 rmoveto
          46 hlineto
          hintmask 1011111100000000
          -19 callgsubr
          -46 hlineto
          18 106 -88 callsubr
          -6 -35 rlineto
          -129 hlineto
          -7 -44 rlineto
          129 hlineto
          -9 -50 rlineto
          -44 callgsubr
          46 24 24 29 hvcurveto
          hintmask 0111111010000000
          -27 18 45 46 callgsubr
          endchar
        </CharString>
        <CharString name="degree">
          -239 403 41 145 41 hstem
          81 41 148 42 vstem
          209 589 rmoveto
          36 25 -27 -34 -48 -44 -36 -42 -36 -26 26 34 48 45 37 42 hvcurveto
          -128 -91 rmoveto
          -53 40 -42 56 65 70 57 74 54 -41 42 -56 -65 -69 -58 -74 vhcurveto
          endchar
        </CharString>
        <CharString name="dieresis">
          -150 500 98 hstem
          151 100 84 100 vstem
          335 541 -104 callsubr
          endchar
        </CharString>
        <CharString name="divide">
          -71 119 118 59 44 59 118 hstemhm
          169 116 -69 116 cntrmask 11100000
          61 callsubr
          216 449 36 callsubr
          hintmask 11110000
          -47 -280 36 callsubr
          -112 171 87 callgsubr
          394 89 callgsubr
        </CharString>
        <CharString name="dollar">
          -96 -9 34 536 34 hstemhm
          30 22 28 81 160 88 -25 22 hintmask 00000000
          hintmask 11110100
          257 353 rmoveto
          35 207 rlineto
          68 -8 24 -43 -51 vvcurveto
          22 hlineto
          13 82 rlineto
          0 -47 45 -75 9 vhcurveto
          5 26 rlineto
          -30 hlineto
          -4 -25 rlineto
          -93 -3 -95 -81 -94 vvcurveto
          -79 73 -44 58 -38 vhcurveto
          -39 -231 -64 5 -55 31 -1 78 rlinecurve
          -22 hlineto
          -15 -93 rlineto
          0 57 -47 94 -8 vhcurveto
          -4 -27 rlineto
          30 hlineto
          4 26 rlineto
          hintmask 11111000
          96 1 117 59 123 vvcurveto
          88 -82 48 -70 44 vhcurveto
          -27 18 rmoveto
          -38 25 -31 26 38 vvcurveto
          42 36 56 65 3 vhcurveto
          -24 -322 rmoveto
          44 -28 39 -28 -47 vvcurveto
          -75 -56 -35 -63 -2 vhcurveto
          endchar
        </CharString>
        <CharString name="dotaccent">
          -334 501 102 hstem
          150 103 vstem
          150 544 -19 callsubr
        </CharString>
        <CharString name="dotbelowcomb">
          -153 102 hstem
          -324 103 vstem
          -324 -95 callsubr
          endchar
        </CharString>
        <CharString name="dotlessi">
          -310 21 -21 384 86 callsubr
          43 164 vstem
          105 379 -84 callgsubr
          endchar
        </CharString>
        <CharString name="e">
          -29 callgsubr
          hstem
          32 99 239 90 vstem
          460 316 rmoveto
          -75 callsubr
          -37 callsubr
          -39 callsubr
          vhcurveto
          -16 callgsubr
          -71 -51 81 99 hvcurveto
          193 26 rlineto
          124 17 12 30 35 vvcurveto
          -327 -77 rmoveto
          110 18 68 71 51 hhcurveto
          79 21 -55 -35 -46 -36 -17 -52 -8 hvcurveto
          endchar
        </CharString>
        <CharString name="eacute">
          -29 callgsubr
          65 162 hstemhm
          32 99 146 207 -114 90 40 callsubr
          378 677 -94 callgsubr
          hintmask 11010100
          -24 -361 rmoveto
          -75 callsubr
          -37 callsubr
          -39 callsubr
          vhcurveto
          -16 callgsubr
          -71 -51 81 99 hvcurveto
          193 26 rlineto
          124 17 12 30 35 vvcurveto
          -327 -77 rmoveto
          110 18 68 71 51 hhcurveto
          79 21 -55 -35 -46 -36 -17 -52 -8 hvcurveto
          endchar
        </CharString>
        <CharString name="ebreve">
          -29 callgsubr
          75 72 hstemhm
          32 99 53 29 157 90 -51 28 hintmask 00000000
          hintmask 00101010
          290 525 -97 callsubr
          hintmask 11010100
          170 -209 rmoveto
          -75 callsubr
          -37 callsubr
          -39 callsubr
          vhcurveto
          -16 callgsubr
          -71 -51 81 99 hvcurveto
          193 26 rlineto
          124 17 12 30 35 vvcurveto
          -327 -77 rmoveto
          110 18 68 71 51 hhcurveto
          79 21 -55 -35 -46 -36 -17 -52 -8 hvcurveto
          endchar
        </CharString>
        <CharString name="ecaron">
          -29 callgsubr
          65 162 hstemhm
          32 99 67 238 -66 90 40 callsubr
          265 515 -90 callsubr
          hintmask 11010100
          262 -361 rmoveto
          -75 callsubr
          -37 callsubr
          -39 callsubr
          vhcurveto
          -16 callgsubr
          -71 -51 81 99 hvcurveto
          193 26 rlineto
          124 17 12 30 35 vvcurveto
          -327 -77 rmoveto
          110 18 68 71 51 hhcurveto
          79 21 -55 -35 -46 -36 -17 -52 -8 hvcurveto
          endchar
        </CharString>
        <CharString name="ecircumflex">
          -29 callgsubr
          65 162 hstemhm
          32 99 239 90 33 callgsubr
          342 677 rmoveto
          -50 hlineto
          -121 -162 rlineto
          26 hlineto
          107 87 79 -87 rlineto
          26 hlineto
          hintmask 11011000
          51 -199 rmoveto
          -75 callsubr
          -37 callsubr
          -39 callsubr
          vhcurveto
          -16 callgsubr
          -71 -51 81 99 hvcurveto
          193 26 rlineto
          124 17 12 30 35 vvcurveto
          -327 -77 rmoveto
          110 18 68 71 51 hhcurveto
          79 21 -55 -35 -46 -36 -17 -52 -8 hvcurveto
          endchar
        </CharString>
        <CharString name="edieresis">
          -29 callgsubr
          65 98 hstemhm
          32 99 24 100 84 100 -69 90 hintmask 00000000
          hintmask 00101100
          339 556 -104 callsubr
          hintmask 11010010
          305 -240 rmoveto
          -75 callsubr
          -37 callsubr
          -39 callsubr
          vhcurveto
          -16 callgsubr
          -71 -51 81 99 hvcurveto
          193 26 rlineto
          124 17 12 30 35 vvcurveto
          -327 -77 rmoveto
          110 18 68 71 51 hhcurveto
          79 21 -55 -35 -46 -36 -17 -52 -8 hvcurveto
          endchar
        </CharString>
        <CharString name="edotaccent">
          -29 callgsubr
          66 102 hstem
          32 99 115 103 21 90 vstem
          246 559 -101 callsubr
          214 -243 rmoveto
          -75 callsubr
          -37 callsubr
          -39 callsubr
          vhcurveto
          -16 callgsubr
          -71 -51 81 99 hvcurveto
          193 26 rlineto
          124 17 12 30 35 vvcurveto
          -327 -77 rmoveto
          110 18 68 71 51 hhcurveto
          79 21 -55 -35 -46 -36 -17 -52 -8 hvcurveto
          endchar
        </CharString>
        <CharString name="egrave">
          -29 callgsubr
          65 162 hstem
          32 99 32 153 54 90 vstem
          269 677 rmoveto
          -106 hlineto
          127 -162 rlineto
          26 hlineto
          144 -199 rmoveto
          -75 callsubr
          -37 callsubr
          -39 callsubr
          vhcurveto
          -16 callgsubr
          -71 -51 81 99 hvcurveto
          193 26 rlineto
          124 17 12 30 35 vvcurveto
          -327 -77 rmoveto
          110 18 68 71 51 hhcurveto
          79 21 -55 -35 -46 -36 -17 -52 -8 hvcurveto
          endchar
        </CharString>
        <CharString name="eight">
          -71 -10 32 541 32 hstemhm
          28 66 2 88 139 87 -18 66 hintmask 00000000
          hintmask 11110100
          282 324 rmoveto
          -51 43 -47 40 42 vvcurveto
          74 54 40 74 44 36 -26 -51 -91 -68 -50 -42 -21 vhcurveto
          176 160 rmoveto
          69 -50 42 -109 -119 -84 -63 -88 -56 38 -46 46 -41 vhcurveto
          -63 -31 -89 -63 -100 vvcurveto
          -71 58 -46 110 vhcurveto
          hintmask 11111000
          119 95 62 92 63 -49 49 -52 45 hvcurveto
          64 30 85 53 100 vvcurveto
          -251 -207 rmoveto
          57 -48 59 -43 -47 vvcurveto
          -71 -65 -46 -75 -47 -42 35 50 92 75 57 38 21 vhcurveto
          endchar
        </CharString>
        <CharString name="ellipsis">
          109 -10 124 hstem
          20 122 98 122 98 122 cntrmask 01110000
          460 33 callsubr
          -220 hmoveto
          -61 callgsubr
          -220 hmoveto
          -61 callgsubr
          endchar
        </CharString>
        <CharString name="emacron">
          -29 callgsubr
          79 44 hstemhm
          32 99 239 90 33 callgsubr
          161 573 87 callgsubr
          264 48 callsubr
          hintmask 11011000
          35 -257 rmoveto
          -75 callsubr
          -37 callsubr
          -39 callsubr
          vhcurveto
          -16 callgsubr
          -71 -51 81 99 hvcurveto
          193 26 rlineto
          124 17 12 30 35 vvcurveto
          -327 -77 rmoveto
          110 18 68 71 51 hhcurveto
          79 21 -55 -35 -46 -36 -17 -52 -8 hvcurveto
          endchar
        </CharString>
        <CharString name="emdash">
          140 35 callsubr
          564 89 callgsubr
        </CharString>
        <CharString name="endash">
          -30 35 callsubr
          394 89 callgsubr
        </CharString>
        <CharString name="eng">
          -22 -200 30 191 -21 384 23 9 35 hstem
          148 88 156 90 vstem
          148 -139 rmoveto
          -41 69 39 callsubr
          vhcurveto
          59 352 rlineto
          2 13 1 13 11 vvcurveto
          67 -38 39 -90 -77 -48 -32 -42 -34 vhcurveto
          12 73 -86 callsubr
          24 hvcurveto
          -34 callsubr
          54 321 rlineto
          41 25 45 54 59 hhcurveto
          59 18 -31 -41 -9 0 -10 -2 -10 hvcurveto
          -63 -373 rlineto
          -76 -13 -25 8 callsubr
          -25 -20 -23 hvcurveto
          endchar
        </CharString>
        <CharString name="eogonek">
          -61 68 callgsubr
          38 392 30 hstem
          33 99 43 56 140 90 vstem
          134 239 rmoveto
          110 18 68 71 51 hhcurveto
          79 21 -55 -35 -46 -36 -17 -52 -8 hvcurveto
          178 57 rmoveto
          -75 callsubr
          -37 callsubr
          vhcurveto
          7 7 0 7 hhcurveto
          -24 -23 -34 -41 -52 -74 callgsubr
          30 19 28 15 18 vhcurveto
          74 9 49 29 39 51 -22 12 rcurveline
          -50 -48 -45 -16 -58 hhcurveto
          -71 -51 81 99 hvcurveto
          193 26 rlineto
          124 17 12 30 35 vvcurveto
          endchar
        </CharString>
        <CharString name="equal">
          -62 236 44 76 44 hstem
          71 280 rmoveto
          -8 -44 rlineto
          354 69 callgsubr
          -334 120 87 callgsubr
          354 89 callgsubr
        </CharString>
        <CharString name="eth">
          -21 -10 30 399 31 180 -20 hstem
          32 97 262 97 vstem
          225 -10 rmoveto
          185 78 132 159 131 -70 89 -68 55 hvcurveto
          80 43 -12 29 -96 -51 rlineto
          -52 36 -44 17 0 vvcurveto
          -14 -18 rlineto
          0 32 -18 38 -38 vhcurveto
          -82 -43 12 -29 92 48 20 -24 20 -29 16 -35 rlinecurve
          4 -19 -22 2 -24 hhcurveto
          -182 -81 -125 -154 -109 62 -72 131 hvcurveto
          48 429 rmoveto
          79 39 -42 -95 -128 -51 -134 -97 -69 -45 45 103 118 49 133 95 hvcurveto
          endchar
        </CharString>
        <CharString name="exclam">
          -315 -10 124 516 -20 hstemhm
          25 122 -52 47 hintmask 00000000
          hintmask 11100000
          25 -33 callsubr
        </CharString>
        <CharString name="exclamdown">
          -318 406 124 hstemhm
          90 122 -116 46 hintmask 00000000
          hintmask 11000000
          212 82 callgsubr
          vhcurveto
          hintmask 10100000
          -29 25 -22 27 38 32 36 36 vhcurveto
          -82 -144 rmoveto
          -15 -14 -52 -16 -5 hvcurveto
          -4 -13 -69 -262 -9 -56 rrcurveto
          -1 -3 0 -3 -3 vvcurveto
          -24 19 -12 24 27 24 14 31 5 vhcurveto
          13 75 17 246 33 vvcurveto
          21 -2 24 -10 vhcurveto
          endchar
        </CharString>
        <CharString name="f">
          -302 410 30 160 30 hstem
          378 576 rmoveto
          25 -30 29 -80 -68 -62 -39 -117 -20 vhcurveto
          -5 -34 rlineto
          -50 hlineto
          -5 -30 rlineto
          50 hlineto
          -75 -445 rlineto
          45 hlineto
          51 35 69 410 rlineto
          46 hlineto
          5 30 rlineto
          -46 29 callgsubr
        </CharString>
        <CharString name="five">
          -87 -10 30 328 39 128 70 hstem
          330 86 vstem
          146 387 rmoveto
          39 128 rlineto
          230 hlineto
          36 70 rlineto
          -279 hlineto
          -73 -237 rlineto
          177 54 -60 -78 -75 -43 -115 -103 hvcurveto
          -148 46 106 -38 hhcurveto
          -24 -21 -15 -41 -20 54 -60 132 161 70 120 117 83 -62 77 -208 hvcurveto
          endchar
        </CharString>
        <CharString name="florin">
          -299 -156 30 536 30 160 30 hstem
          -143 87 vstem
          377 576 rmoveto
          25 -30 29 -80 -68 -66 -44 -112 -16 vhcurveto
          -5 -34 rlineto
          -50 hlineto
          -5 -30 rlineto
          50 hlineto
          -71 -424 rlineto
          -76 -13 -26 8 callsubr
          -24 -20 -23 -41 68 39 callsubr
          hvcurveto
          69 410 rlineto
          62 hlineto
          5 30 rlineto
          -62 29 callgsubr
        </CharString>
        <CharString name="four">
          -102 0 21 155 30 379 -20 hstem
          393 585 rmoveto
          -52 hlineto
          -344 -409 rlineto
          237 hlineto
          -22 -135 rlineto
          -93 callsubr
          -4 -21 rlineto
          72 callgsubr
          22 135 rlineto
          81 hlineto
          5 30 rlineto
          -81 hlineto
          -90 hmoveto
          -182 hlineto
          227 269 rlineto
          endchar
        </CharString>
        <CharString name="g">
          -35 -6 callsubr
          59 callgsubr
          hintmask 00000000
          hintmask 11110000
          102 -89 -65 callsubr
          hintmask 11101000
          -83 callgsubr
        </CharString>
        <CharString name="gbreve">
          -35 -6 callsubr
          75 72 59 callgsubr
          86 62 callsubr
          hintmask 00000000
          hintmask 00010011
          316 525 -97 callsubr
          hintmask 11101000
          -214 -614 -65 callsubr
          hintmask 11100100
          -83 callgsubr
        </CharString>
        <CharString name="gcaron">
          -35 -6 callsubr
          65 162 59 callgsubr
          100 238 hintmask 00000000
          hintmask 00010010
          291 515 -90 callsubr
          hintmask 11101000
          -122 -766 -65 callsubr
          hintmask 11100100
          -83 callgsubr
        </CharString>
        <CharString name="gcircumflex">
          -35 -6 callsubr
          65 162 59 callgsubr
          -5 callsubr
          367 677 rmoveto
          -50 hlineto
          -121 -162 rlineto
          26 hlineto
          107 87 79 -87 rlineto
          26 hlineto
          hintmask 11101000
          -332 -604 -65 callsubr
          hintmask 11100100
          -83 callgsubr
        </CharString>
        <CharString name="gcommaaccent">
          -35 -6 callsubr
          66 74 108 28 59 callgsubr
          112 133 hintmask 00000000
          hintmask 00011001
          369 568 rmoveto
          24 -19 11 -26 vhcurveto
          -19 -6 -13 -8 hhcurveto
          -8 -2 0 25 4 hvcurveto
          8 45 54 34 30 4 5 28 rcurveline
          -34 -10 -112 -37 -92 vvcurveto
          -45 35 -26 44 10 44 7 45 vhcurveto
          hintmask 11100100
          -267 -657 -65 callsubr
          hintmask 11100010
          -83 callgsubr
        </CharString>
        <CharString name="gdotaccent">
          -35 -6 callsubr
          66 102 59 callgsubr
          148 103 hintmask 00000000
          hintmask 00010010
          272 559 -101 callsubr
          hintmask 11101000
          -170 -648 -65 callsubr
          hintmask 11100100
          -83 callgsubr
        </CharString>
        <CharString name="germandbls">
          -51 -140 23 107 30 324 24 232 30 hstemhm
          344 82 -52 86 hintmask 00000000
          hintmask 11111000
          109 -44 rmoveto
          89 532 rlineto
          76 13 43 36 32 hhcurveto
          47 11 -50 -33 -63 -63 -72 -40 -14 hvcurveto
          -11 -3 -7 -5 -1 -6 rrcurveto
          -5 -1 5 -5 11 hhcurveto
          hintmask 11110100
          79 58 -76 -75 -98 -71 -75 -41 hvcurveto
          -69 47 106 -38 hhcurveto
          -25 -20 -16 -42 -22 20 -56 86 98 99 87 129 68 -69 69 -89 16 hvcurveto
          hintmask 11111000
          70 31 54 62 80 vvcurveto
          60 -37 38 -112 -68 -84 -39 -117 -20 vhcurveto
          -85 -508 rlineto
          -52 -9 -32 -31 -36 hhcurveto
          -3 -23 rlineto
          101 56 26 70 12 hvcurveto
          endchar
        </CharString>
        <CharString name="grave">
          10 callgsubr
        </CharString>
        <CharString name="gravecomb">
          26 callsubr
          -297 153 vstem
          -191 662 rmoveto
          -106 hlineto
          127 -162 rlineto
          26 hlineto
          endchar
        </CharString>
        <CharString name="greater">
          -86 443 296 rmoveto
          7 44 -339 172 -7 -40 304 -154 -356 -154 -6 -40 rlineto
          endchar
        </CharString>
        <CharString name="guillemotleft">
          -113 180 238 hstemhm
          47 195 -35 195 hintmask 00000000
          hintmask 10100000
          224 324 -15 callsubr
          hintmask 11000000
          -338 -94 -15 callsubr
          endchar
        </CharString>
        <CharString name="guillemotright">
          -113 180 238 hstemhm
          51 195 -35 195 hintmask 00000000
          hintmask 10100000
          389 274 rmoveto
          10 5 5 10 2 10 2 10 -3 10 -8 5 -146 94 rcurveline
          -4 -26 71 -93 -103 -93 -4 -26 rlineto
          hintmask 11000000
          18 94 rmoveto
          10 5 5 10 2 10 2 10 -3 10 -8 5 -146 94 rcurveline
          -4 -26 71 -93 -103 -93 -4 -26 rlineto
          endchar
        </CharString>
        <CharString name="guilsinglleft">
          -273 180 238 hstem
          47 195 vstem
          64 324 -15 callsubr
          endchar
        </CharString>
        <CharString name="guilsinglright">
          -273 180 238 hstem
          51 195 vstem
          229 274 rmoveto
          10 5 5 10 2 10 2 10 -3 10 -8 5 -146 94 rcurveline
          -4 -26 71 -93 -103 -93 -4 -26 rlineto
          endchar
        </CharString>
        <CharString name="h">
          -19 0 23 393 34 114 23 43 -20 65 callsubr
          hintmask 11110100
          429 106 rmoveto
          34 206 rlineto
          2 14 2 12 12 vvcurveto
          73 -48 27 -109 -57 -43 -37 -43 -32 vhcurveto
          43 260 -88 callsubr
          -94 -559 rlineto
          90 hlineto
          50 298 rlineto
          53 29 48 65 56 hhcurveto
          59 19 -29 -40 -9 -1 -9 -2 -10 59 callsubr
          hintmask 11111000
          -55 callgsubr
          -55 48 -21 91 vhcurveto
          -101 callgsubr
          endchar
        </CharString>
        <CharString name="hbar">
          -19 0 23 393 34 34 44 36 23 43 -20 65 callsubr
          hintmask 11111010
          53 484 rmoveto
          54 hlineto
          -81 -484 rlineto
          90 hlineto
          50 298 rlineto
          53 29 48 65 56 hhcurveto
          59 19 -29 -40 -9 -1 -9 -2 -10 59 callsubr
          hintmask 11111100
          -55 callgsubr
          -55 48 -21 91 vhcurveto
          -101 callgsubr
          34 206 rlineto
          hintmask 11111010
          2 14 2 12 12 vvcurveto
          73 -48 27 -109 -57 -43 -37 -43 -32 vhcurveto
          19 114 rlineto
          147 69 callgsubr
          -148 hlineto
          17 102 -88 callsubr
          -5 -31 rlineto
          -54 hlineto
          endchar
        </CharString>
        <CharString name="hcircumflex">
          -19 0 23 393 34 114 23 23 20 25 162 65 callsubr
          hintmask 00001000
          235 817 rmoveto
          -50 hlineto
          -121 -162 rlineto
          26 hlineto
          107 87 79 -87 rlineto
          26 hlineto
          hintmask 11110010
          127 -549 rmoveto
          34 206 rlineto
          2 14 2 12 12 vvcurveto
          73 -48 27 -109 -57 -43 -37 -43 -32 vhcurveto
          43 260 -88 callsubr
          -94 -559 rlineto
          90 hlineto
          50 298 rlineto
          53 29 48 65 56 hhcurveto
          59 19 -29 -40 -9 -1 -9 -2 -10 59 callsubr
          hintmask 11110100
          -55 callgsubr
          -55 48 -21 91 vhcurveto
          -101 callgsubr
          endchar
        </CharString>
        <CharString name="hookabovecomb">
          656 14 hstem
          -105 54 vstem
          -51 622 -100 callsubr
          endchar
        </CharString>
        <CharString name="hungarumlaut">
          -92 500 162 hstemhm
          46 68 callsubr
          hintmask 00000000
          hintmask 11000000
          147 662 -94 callgsubr
          hintmask 10100000
          -22 callsubr
          endchar
        </CharString>
        <CharString name="hyphen">
          -160 296 44 hstem
          70 271 vstem
          83 callsubr
          264 89 callgsubr
        </CharString>
        <CharString name="i">
          -309 21 -21 384 82 callsubr
          125 109 vstem
          234 32 callgsubr
          -128 -202 -84 callgsubr
          endchar
        </CharString>
        <CharString name="iacute">
          -28 callsubr
          65 162 hstemhm
          44 164 -5 callsubr
          261 677 -94 callgsubr
          hintmask 11101000
          -261 -298 -84 callgsubr
          endchar
        </CharString>
        <CharString name="ibreve">
          -28 callsubr
          75 72 hstemhm
          44 164 -140 62 callsubr
          hintmask 00000000
          hintmask 00010110
          174 525 -97 callsubr
          hintmask 11101000
          -68 -146 -84 callgsubr
          endchar
        </CharString>
        <CharString name="icircumflex">
          -28 callsubr
          65 162 hstemhm
          44 164 -5 callsubr
          225 677 rmoveto
          -50 hlineto
          -121 -162 rlineto
          26 hlineto
          107 87 79 -87 rlineto
          26 hlineto
          hintmask 11101000
          -186 -136 -84 callgsubr
          endchar
        </CharString>
        <CharString name="idieresis">
          -28 callsubr
          65 98 hstemhm
          39 100 -95 164 15 100 hintmask 00000000
          hintmask 00011010
          223 556 -104 callsubr
          hintmask 11100100
          67 -177 -84 callgsubr
          endchar
        </CharString>
        <CharString name="igrave">
          -28 callsubr
          65 162 hstemhm
          44 164 -5 callsubr
          152 677 rmoveto
          -106 hlineto
          127 -162 rlineto
          26 hlineto
          hintmask 11101000
          -93 -136 -84 callgsubr
          endchar
        </CharString>
        <CharString name="ij">
          -26 -199 30 169 45 callsubr
          -22 23 22 20 -19 20 63 116 -115 116 hstemhm
          125 109 -101 69 206 109 -27 callsubr
          hintmask 0110101010000000
          234 32 callgsubr
          -128 -202 -84 callgsubr
          hintmask 1001010101100000
          411 203 rmoveto
          29 -20 20 -26 -35 -28 -32 -36 -29 20 -19 26 35 28 31 36 vhcurveto
          -127 -202 -70 callgsubr
        </CharString>
        <CharString name="imacron">
          -28 callsubr
          79 44 hstemhm
          44 164 -5 callsubr
          44 573 87 callgsubr
          264 48 callsubr
          hintmask 11101000
          -202 -194 -84 callgsubr
          endchar
        </CharString>
        <CharString name="iogonek">
          -312 -200 34 166 4 callsubr
          64 116 hstem
          27 56 41 109 vstem
          105 379 rmoveto
          -33 callgsubr
          54 hlineto
          -24 -20 -46 -46 -60 -74 callgsubr
          34 25 32 15 17 vhcurveto
          9 hlineto
          75 450 -95 callgsubr
          22 -35 callgsubr
          128 202 -38 callgsubr
          endchar
        </CharString>
        <CharString name="itilde">
          -28 callsubr
          65 53 6 53 hstem
          24 19 1 164 116 19 vstem
          248 515 -103 callsubr
          -142 -136 -84 callgsubr
          endchar
        </CharString>
        <CharString name="j">
          -311 -199 30 554 82 callsubr
          -152 69 206 109 vstem
          232 582 rmoveto
          29 -20 20 -26 -35 -28 -32 -36 -29 20 -19 26 35 28 31 36 vhcurveto
          -127 -202 -70 callgsubr
        </CharString>
        <CharString name="jcircumflex">
          -311 -199 30 554 23 23 20 64 162 hstem
          -152 69 131 238 vstem
          219 677 rmoveto
          -50 hlineto
          -121 -162 rlineto
          26 hlineto
          107 87 79 -87 rlineto
          26 hlineto
          -181 -135 -70 callgsubr
        </CharString>
        <CharString name="k">
          -68 0 90 callgsubr
          124 86 callsubr
          482 440 -68 callsubr
        </CharString>
        <CharString name="kcommaaccent">
          -66 11 callsubr
          398 21 124 23 23 20 hstem
          143 133 vstem
          143 -90 rmoveto
          -102 callsubr
          339 530 -68 callsubr
        </CharString>
        <CharString name="l">
          -312 0 23 541 86 callsubr
          40 92 vstem
          120 559 rmoveto
          -78 -463 rlineto
          -55 callgsubr
          -55 48 -21 91 vhcurveto
          -101 callgsubr
          87 524 -88 callsubr
          endchar
        </CharString>
        <CharString name="lacute">
          -312 0 23 541 23 23 20 25 162 hstem
          40 92 38 207 vstem
          271 817 -94 callgsubr
          -257 -258 rmoveto
          -78 -463 rlineto
          -55 callgsubr
          -55 48 -21 91 vhcurveto
          -101 callgsubr
          87 524 -88 callsubr
          endchar
        </CharString>
        <CharString name="lcaron">
          -289 0 23 399 28 -12 callsubr
          -68 89 callsubr
          40 92 117 133 hintmask 00000000
          hintmask 01100010
          249 580 rmoveto
          -102 callsubr
          hintmask 10011100
          -129 -21 rmoveto
          -78 -463 rlineto
          -55 callgsubr
          -55 48 -21 91 vhcurveto
          -101 callgsubr
          87 524 -88 callsubr
          endchar
        </CharString>
        <CharString name="lcommaaccent">
          -312 -13 callgsubr
          38 23 541 89 callsubr
          23 133 -116 92 hintmask 00000000
          hintmask 11000100
          23 -90 rmoveto
          -102 callsubr
          hintmask 00111010
          97 649 rmoveto
          -78 -463 rlineto
          -55 callgsubr
          -55 48 -21 91 vhcurveto
          -101 callgsubr
          87 524 -88 callsubr
          endchar
        </CharString>
        <CharString name="ldot">
          -224 0 23 234 102 205 23 23 20 hstem
          40 92 103 103 vstem
          120 559 rmoveto
          -78 -463 rlineto
          -55 callgsubr
          -55 48 -21 91 vhcurveto
          -101 callgsubr
          87 524 -88 callsubr
          115 -259 -19 callsubr
        </CharString>
        <CharString name="less">
          -86 44 340 rmoveto
          -7 -44 339 -172 6 40 -304 154 356 154 7 40 rlineto
          endchar
        </CharString>
        <CharString name="logicalnot">
          -123 296 44 hstem
          73 299 vstem
          323 296 rmoveto
          -15 -88 rlineto
          42 hlineto
          22 132 rlineto
          -292 hlineto
          -7 -44 rlineto
          endchar
        </CharString>
        <CharString name="longs">
          -312 0 21 579 30 hstem
          327 69 vstem
          396 559 rmoveto
          47 -40 24 -77 -68 -72 -39 -117 -20 vhcurveto
          -72 -433 rlineto
          -93 callsubr
          -4 -21 rlineto
          153 hlineto
          82 488 rlineto
          76 13 35 36 24 hhcurveto
          22 21 -9 -20 hvcurveto
          -5 78 callsubr
          27 24 21 35 vhcurveto
          endchar
        </CharString>
        <CharString name="lslash">
          -310 0 23 220 196 125 89 callsubr
          8 248 -214 92 hintmask 00000000
          hintmask 11111000
          122 559 rmoveto
          -40 -235 -74 -55 17 -26 50 37 -31 -184 rlineto
          hintmask 11110100
          -55 callgsubr
          -55 48 -21 91 vhcurveto
          -101 callgsubr
          41 249 rlineto
          hintmask 11111000
          79 58 -18 26 -53 -39 38 230 -88 callsubr
          endchar
        </CharString>
        <CharString name="m">
          260 0 23 361 23 9 34 hstemhm
          614 92 -51 93 61 callsubr
          411 hmoveto
          55 326 rlineto
          45 29 41 -22 callgsubr
          -34 -203 rlineto
          hintmask 11110000
          -55 callgsubr
          -55 48 -21 91 vhcurveto
          -101 callgsubr
          -23 callsubr
          hintmask 11101000
          -64 callgsubr
        </CharString>
        <CharString name="macron">
          -168 514 44 hstem
          146 271 vstem
          153 558 87 callgsubr
          264 89 callgsubr
        </CharString>
        <CharString name="multiply">
          -132 159 318 hstem
          250 318 rmoveto
          150 128 -26 31 -150 -128 -106 128 -36 -31 106 -128 -149 -128 26 -31 149 128 107 -128 36 31 rlineto
          endchar
        </CharString>
        <CharString name="n">
          -3 0 2 callsubr
          hintmask 11101000
          195 377 -89 callgsubr
          hintmask 11110000
          -55 callgsubr
          -55 48 -21 91 vhcurveto
          -101 callgsubr
          34 202 rlineto
          hintmask 11101000
          -59 callgsubr
          endchar
        </CharString>
        <CharString name="nacute">
          12 callgsubr
          60 162 hstemhm
          352 92 -51 90 -5 callsubr
          409 673 -94 callgsubr
          hintmask 11100100
          -319 -296 -89 callgsubr
          hintmask 11101000
          -55 callgsubr
          -55 48 -21 91 vhcurveto
          -101 callgsubr
          34 202 rlineto
          hintmask 11100100
          -59 callgsubr
          endchar
        </CharString>
        <CharString name="napostrophe">
          12 callgsubr
          6 28 -12 callsubr
          hstemhm
          -12 133 231 26 callgsubr
          hintmask 11100001
          196 377 -89 callgsubr
          hintmask 11100010
          -55 callgsubr
          -55 48 -21 91 vhcurveto
          -101 callgsubr
          34 202 rlineto
          hintmask 11100001
          -59 callgsubr
          hintmask 00011100
          -208 238 -67 callgsubr
        </CharString>
        <CharString name="ncaron">
          12 callgsubr
          60 162 hstemhm
          229 238 -115 26 callgsubr
          hintmask 00011000
          296 511 -90 callsubr
          hintmask 11100010
          -33 -296 -89 callgsubr
          hintmask 11100100
          -55 callgsubr
          -55 48 -21 91 vhcurveto
          -101 callgsubr
          34 202 rlineto
          hintmask 11100010
          -59 callgsubr
          endchar
        </CharString>
        <CharString name="ncommaaccent">
          -3 -270 28 -12 callsubr
          60 2 callsubr
          hintmask 11000000
          179 -112 rmoveto
          -102 callsubr
          hintmask 00111010
          16 489 -89 callgsubr
          hintmask 00111100
          -55 callgsubr
          -55 48 -21 91 vhcurveto
          -101 callgsubr
          34 202 rlineto
          hintmask 00111010
          -59 callgsubr
          endchar
        </CharString>
        <CharString name="nine">
          -86 -18 18 215 34 314 32 hstem
          52 90 211 88 vstem
          221 249 rmoveto
          -61 -18 48 50 115 67 101 62 45 37 -35 -90 -55 -14 -66 -14 -45 hvcurveto
          -14 -23 -32 -9 -49 hhcurveto
          93 -10 rmoveto
          -48 -133 -84 -81 -101 -25 9 -18 rcurveline
          109 12 242 160 265 vvcurveto
          103 -52 73 -112 -133 -92 -99 -153 -77 39 -51 126 39 32 10 14 26 vhcurveto
          endchar
        </CharString>
        <CharString name="ntilde">
          12 callgsubr
          60 53 6 53 hstemhm
          352 26 callgsubr
          hintmask 00011000
          395 511 -103 callsubr
          hintmask 11100010
          -199 -134 -89 callgsubr
          hintmask 11100100
          -55 callgsubr
          -55 48 -21 91 vhcurveto
          -101 callgsubr
          34 202 rlineto
          hintmask 11100010
          -59 callgsubr
          endchar
        </CharString>
        <CharString name="numbersign">
          -65 21 -21 196 34 126 34 195 -20 hstem
          434 230 rmoveto
          -110 hlineto
          40 126 rlineto
          107 hlineto
          5 34 rlineto
          -102 78 callgsubr
          -125 78 callgsubr
          -108 hlineto
          -5 -34 rlineto
          103 hlineto
          -40 -126 rlineto
          -100 hlineto
          -5 -34 rlineto
          95 79 callsubr
          125 79 callsubr
          115 hlineto
          -265 34 rmoveto
          40 126 rlineto
          125 hlineto
          -40 -126 rlineto
          endchar
        </CharString>
        <CharString name="o">
          -39 callgsubr
          hstem
          32 97 280 97 vstem
          129 176 -102 callgsubr
        </CharString>
        <CharString name="oacute">
          -39 callgsubr
          65 162 hstemhm
          32 97 280 97 33 callgsubr
          407 677 -94 callgsubr
          hintmask 11011000
          -384 -501 -102 callgsubr
        </CharString>
        <CharString name="obreve">
          -39 callgsubr
          75 72 hstemhm
          32 97 85 29 166 97 -67 28 hintmask 00000000
          hintmask 00101010
          320 525 -97 callsubr
          hintmask 11010100
          -191 -349 -102 callgsubr
        </CharString>
        <CharString name="ocircumflex">
          -39 callgsubr
          65 162 hstemhm
          32 97 280 97 33 callgsubr
          371 677 rmoveto
          -50 hlineto
          -121 -162 rlineto
          26 hlineto
          107 87 79 -87 rlineto
          26 hlineto
          hintmask 11011000
          -309 -339 -102 callgsubr
        </CharString>
        <CharString name="odieresis">
          -39 callgsubr
          65 98 hstemhm
          32 97 56 100 84 100 -60 97 hintmask 00000000
          hintmask 00101100
          369 556 -104 callsubr
          hintmask 11010010
          -56 -380 -102 callgsubr
        </CharString>
        <CharString name="oe">
          310 -10 30 -30 38 391 31 hstemhm
          32 97 280 94 239 90 hintmask 00000000
          hintmask 10111100
          234 -10 rmoveto
          86 66 28 47 45 hvcurveto
          hintmask 01111100
          -57 35 63 -18 55 1 callsubr
          -74 -58 -27 -44 -42 vhcurveto
          45 -31 -57 26 -85 hhcurveto
          -9 callgsubr
          -112 69 -74 133 hvcurveto
          -105 186 rmoveto
          119 58 124 95 81 46 -44 -102 vhcurveto
          hintmask 10111100
          -130 -60 -123 -97 -75 -48 48 108 vhcurveto
          376 63 rmoveto
          110 18 68 71 51 hhcurveto
          79 21 -55 -35 -46 -36 -17 -52 -8 hvcurveto
          endchar
        </CharString>
        <CharString name="ogonek">
          -293 -200 34 hstem
          21 56 vstem
          104 11 rmoveto
          -1 -83 -55 -81 -74 callgsubr
          45 45 41 5 7 vhcurveto
          endchar
        </CharString>
        <CharString name="ograve">
          -39 callgsubr
          65 162 hstem
          32 97 63 153 64 97 vstem
          298 677 rmoveto
          -106 hlineto
          127 -162 rlineto
          26 hlineto
          -216 -339 -102 callgsubr
        </CharString>
        <CharString name="ohorn">
          22 callsubr
          hstemhm
          32 97 280 97 -16 57 callsubr
          hintmask 11011000
          234 -10 -68 callgsubr
          17 -2 15 -3 15 hvcurveto
          hintmask 11010100
          52 12 53 33 68 vvcurveto
          -93 callgsubr
          -5 -30 -21 -22 -33 -11 rrcurveto
          hintmask 10111000
          -78 callgsubr
        </CharString>
        <CharString name="ohungarumlaut">
          -39 callgsubr
          65 162 hstemhm
          32 97 77 68 callsubr
          -164 97 40 callsubr
          307 677 -94 callgsubr
          hintmask 00100100
          -22 callsubr
          hintmask 11010010
          -444 -501 -102 callgsubr
        </CharString>
        <CharString name="omacron">
          -39 callgsubr
          79 44 hstemhm
          32 97 280 97 33 callgsubr
          190 573 87 callgsubr
          264 48 callsubr
          hintmask 11011000
          -325 -397 -102 callgsubr
        </CharString>
        <CharString name="one">
          -187 0 21 564 -20 hstem
          301 585 rmoveto
          -27 hlineto
          -211 -197 4 -17 39 26 43 27 36 20 rlinecurve
          -64 -383 rlineto
          -32 -5 -82 -8 -42 -20 callsubr
          338 hlineto
          -82 callgsubr
          -41 -76 8 29 hvcurveto
          3 vlineto
          endchar
        </CharString>
        <CharString name="onehalf">
          170 0 56 224 23 27 50 hstem
          45 176 383 77 vstem
          77 508 -62 callsubr
          524 -452 -58 callgsubr
          -555 -66 10 callsubr
        </CharString>
        <CharString name="onequarter">
          144 0 23 82 29 146 23 hstem
          45 176 136 291 vstem
          77 508 -62 callsubr
          557 -133 -67 callsubr
          -478 -294 10 callsubr
        </CharString>
        <CharString name="ordfeminine">
          -188 129 26 60 27 185 28 hstemhm
          70 56 -22 53 70 56 4 19 hintmask 00000000
          hintmask 11100110
          50 155 rmoveto
          -4 -26 rlineto
          240 hlineto
          4 26 rlineto
          -145 257 rmoveto
          10 8 13 5 25 hhcurveto
          25 11 -11 -29 -9 -1 -10 -2 -13 hvcurveto
          hintmask 11110110
          -53 -14 -101 -6 -69 vvcurveto
          -38 30 -13 40 31 24 8 11 20 vhcurveto
          -12 6 12 -6 16 hhcurveto
          37 15 9 28 5 hvcurveto
          -19 hlineto
          -7 -1 -1 -5 -12 hhcurveto
          -4 -8 2 24 4 hvcurveto
          16 99 rlineto
          1 7 1 7 6 vvcurveto
          38 -22 31 -60 vhcurveto
          hintmask 11101110
          -50 -47 -20 -46 -12 6 -12 15 9 20 3 19 3 hvcurveto
          2 11 -4 11 -10 3 rrcurveto
          76 -79 rmoveto
          -9 -52 rlineto
          -52 callgsubr
          -11 vvcurveto
          -7 -14 -25 -7 -19 hhcurveto
          hintmask 11110110
          -16 -10 4 20 47 46 6 49 14 hvcurveto
          endchar
        </CharString>
        <CharString name="ordmasculine">
          -181 129 26 60 25 189 26 hstem
          76 59 129 59 vstem
          48 155 88 callsubr
          -85 274 38 callsubr
          -24 -214 37 callsubr
          endchar
        </CharString>
        <CharString name="oslash">
          -39 callgsubr
          hstem
          32 97 280 97 vstem
          116 -35 -52 callsubr
        </CharString>
        <CharString name="oslashacute">
          -39 callgsubr
          65 162 hstemhm
          32 97 280 97 33 callgsubr
          407 677 -94 callgsubr
          hintmask 11011000
          -397 -712 -52 callsubr
        </CharString>
        <CharString name="otilde">
          -39 callgsubr
          65 53 6 53 hstemhm
          32 97 280 97 hintmask 00000000
          hintmask 00110000
          394 515 -103 callsubr
          hintmask 11001100
          -265 -339 -102 callgsubr
        </CharString>
        <CharString name="p">
          -14 -192 21 161 34 360 23 9 34 hstem
          402 96 vstem
          -53 -192 rmoveto
          -2 callgsubr
          12 76 -95 callgsubr
          22 -35 callgsubr
          -88 -530 rlineto
          -14 -8 -17 -6 -42 hhcurveto
          235 489 rmoveto
          48 31 48 50 66 hhcurveto
          58 14 -76 -67 87 callsubr
          hvcurveto
          endchar
        </CharString>
        <CharString name="paragraph">
          -19 0 21 530 34 -21 21 hstemhm
          hintmask 00000000
          hintmask 11000000
          83 hmoveto
          155 hlineto
          92 551 rlineto
          51 hlineto
          -92 -551 rlineto
          155 hlineto
          -98 callsubr
          84 503 rlineto
          hintmask 10100000
          -57 callsubr
          -240 hlineto
          -174 -73 -95 -93 -71 47 -49 89 -9 hvcurveto
          -38 -227 rlineto
          -93 callsubr
          endchar
        </CharString>
        <CharString name="parenleft">
          -304 46 77 vstem
          53 315 rmoveto
          -4 -27 -3 -26 -25 vvcurveto
          -132 56 -101 27 -43 vhcurveto
          -6 4 6 -5 5 hhcurveto
          8 4 10 10 -2 hvcurveto
          -12 46 -19 55 94 vvcurveto
          42 4 49 10 59 vhcurveto
          32 193 60 86 40 66 rrcurveto
          2 4 2 3 4 vvcurveto
          6 -3 3 -4 -5 -8 -6 -5 -5 vhcurveto
          -50 -51 -117 -133 -28 -170 rrcurveto
          endchar
        </CharString>
        <CharString name="parenright">
          -305 144 77 vstem
          215 315 rmoveto
          4 27 2 26 25 vvcurveto
          132 -56 101 -27 43 vhcurveto
          6 -4 -5 5 -5 hhcurveto
          -8 -5 -10 -10 2 hvcurveto
          12 -46 19 -55 -94 vvcurveto
          -42 -3 -49 -10 -59 vhcurveto
          -32 -193 -61 -86 -40 -66 rrcurveto
          -2 -4 -2 -3 -4 vvcurveto
          -6 4 -3 4 5 7 6 5 5 vhcurveto
          50 51 118 133 28 170 rrcurveto
          endchar
        </CharString>
        <CharString name="percent">
          -10 -3 34 176 34 103 34 176 34 hstemhm
          63 61 96 61 -8 61 96 61 hintmask 00000000
          hintmask 11111001
          512 565 61 callgsubr
          hintmask 11111101
          -18 callsubr
          hintmask 11111011
          0 callgsubr
          39 -42 49 59 71 62 82 58 -40 42 -49 -59 -70 -62 -82 vhcurveto
          endchar
        </CharString>
        <CharString name="period">
          -331 -10 124 hstem
          20 122 vstem
          20 33 callsubr
          endchar
        </CharString>
        <CharString name="periodcentered">
          -323 240 124 hstem
          60 122 vstem
          60 292 -47 callsubr
          endchar
        </CharString>
        <CharString name="perthousand">
          239 0 34 176 34 100 34 176 34 hstemhm
          69 61 96 61 -8 61 96 61 30 61 95 61 -27 callsubr
          hintmask 1111100111000000
          650 210 rmoveto
          19 14 -29 -36 -53 -35 -58 -27 -19 -14 29 36 53 35 58 27 hvcurveto
          -123 -110 rmoveto
          -58 39 -42 49 59 70 62 82 58 -39 42 -49 -59 -70 -62 -82 vhcurveto
          -9 465 61 callgsubr
          hintmask 1111110111000000
          -18 callsubr
          hintmask 1111101111000000
          0 callgsubr
          39 -42 49 59 71 62 82 58 -40 42 -49 -59 -70 -62 -82 vhcurveto
          endchar
        </CharString>
        <CharString name="plus">
          -148 296 44 hstem
          230 296 rmoveto
          141 48 callsubr
          -141 hlineto
          23 141 rlineto
          -44 hlineto
          -23 -141 rlineto
          -141 hlineto
          -7 -44 rlineto
          141 hlineto
          -24 -141 rlineto
          44 hlineto
          endchar
        </CharString>
        <CharString name="plusminus">
          -130 134 44 170 44 hstem
          48 330 vstem
          56 178 rmoveto
          -8 -44 rlineto
          286 69 callgsubr
          -93 170 rmoveto
          121 69 callgsubr
          -121 hlineto
          17 101 rlineto
          -44 hlineto
          -17 -101 rlineto
          -121 hlineto
          -8 -44 rlineto
          121 hlineto
          -17 -101 rlineto
          44 hlineto
          endchar
        </CharString>
        <CharString name="q">
          -33 -192 21 161 34 392 34 hstem
          30 94 vstem
          229 49 callgsubr
          83 497 18 callgsubr
          -29 -174 rlineto
          -14 -8 -17 -6 -42 hhcurveto
          101 226 rmoveto
          -16 -25 -37 32 callsubr
        </CharString>
        <CharString name="question">
          -157 -10 124 352 -21 155 30 hstemhm
          67 66 -47 122 104 88 hintmask 00000000
          hintmask 11101100
          86 33 callsubr
          55 444 rmoveto
          hintmask 11110100
          14 -8 6 15 vvcurveto
          37 44 42 56 55 24 -23 -53 -158 -135 -40 -21 -126 vhcurveto
          -7 -1 7 -7 5 hhcurveto
          5 9 7 7 1 hvcurveto
          15 88 203 73 142 vvcurveto
          61 -35 66 -117 -111 -70 -78 -69 -27 17 -11 17 20 20 16 25 vhcurveto
          endchar
        </CharString>
        <CharString name="questiondown">
          -157 -110 30 486 124 hstemhm
          -3 88 104 122 -47 66 hintmask 00000000
          hintmask 11110000
          311 82 callgsubr
          -29 25 -22 27 38 32 36 36 vhcurveto
          -55 -444 rmoveto
          hintmask 11101000
          -14 8 -6 -15 vvcurveto
          -37 -44 -42 -56 -55 -24 23 53 158 135 40 21 126 vhcurveto
          7 1 -7 7 -5 hhcurveto
          -5 -9 -7 -7 -1 hvcurveto
          -15 -88 -203 -73 -142 vvcurveto
          -61 35 -66 117 111 70 77 70 27 -17 11 -17 -20 -20 -16 -25 vhcurveto
          endchar
        </CharString>
        <CharString name="quotedbl">
          -218 408 257 hstemhm
          92 62 -62 97 63 62 -62 97 hintmask 00000000
          hintmask 10010000
          267 408 rmoveto
          15 24 70 24 8 hvcurveto
          hintmask 10001000
          5 17 30 81 31 vvcurveto
          23 -15 11 -24 -27 -20 -14 -31 -5 vhcurveto
          hintmask 10010000
          -4 -27 -2 -77 -15 vvcurveto
          -25 0 -68 15 vhcurveto
          hintmask 11000000
          -160 hmoveto
          -2 callsubr
        </CharString>
        <CharString name="quotedblbase">
          -140 -129 67 callsubr
          20 133 47 133 vstem
          20 29 rmoveto
          -102 callsubr
          180 -6 callgsubr
        </CharString>
        <CharString name="quotedblleft">
          -149 455 74 108 28 hstem
          85 133 47 133 vstem
          398 507 rmoveto
          -37 callgsubr
          -180 hmoveto
          -37 callgsubr
          endchar
        </CharString>
        <CharString name="quotedblright">
          -161 455 67 callsubr
          96 133 47 133 vstem
          276 613 rmoveto
          -102 callsubr
          -180 -6 callgsubr
        </CharString>
        <CharString name="quoteleft">
          -329 455 74 108 28 hstem
          85 133 vstem
          218 507 rmoveto
          -37 callgsubr
          endchar
        </CharString>
        <CharString name="quoteright">
          -341 455 67 callsubr
          96 133 vstem
          96 613 -67 callgsubr
        </CharString>
        <CharString name="quotesinglbase">
          -322 -133 67 callsubr
          19 133 vstem
          19 25 -67 callgsubr
        </CharString>
        <CharString name="quotesingle">
          -378 408 257 hstemhm
          92 62 -62 97 hintmask 00000000
          hintmask 11000000
          107 408 rmoveto
          -2 callsubr
        </CharString>
        <CharString name="r">
          -167 21 -21 384 23 9 34 hstem
          357 71 callsubr
          -42 -47 -51 -36 hvcurveto
          16 98 -95 callgsubr
          22 -35 callgsubr
          -34 callsubr
          47 282 rlineto
          59 35 51 75 25 43 -18 -57 42 hhcurveto
          endchar
        </CharString>
        <CharString name="racute">
          64 callgsubr
          265 207 vstem
          366 677 -94 callgsubr
          -114 -318 -14 callgsubr
          -42 -47 -51 -36 hvcurveto
          16 98 -95 callgsubr
          22 -35 callgsubr
          -34 callsubr
          47 282 rlineto
          59 35 51 75 25 43 -18 -57 42 hhcurveto
          endchar
        </CharString>
        <CharString name="rcaron">
          64 callgsubr
          187 238 vstem
          254 515 -90 callsubr
          171 -318 -14 callgsubr
          -42 -47 -51 -36 hvcurveto
          16 98 -95 callgsubr
          22 -35 callgsubr
          -34 callsubr
          47 282 rlineto
          59 35 51 75 25 43 -18 -57 42 hhcurveto
          endchar
        </CharString>
        <CharString name="rcommaaccent">
          -167 11 callsubr
          363 23 9 34 hstem
          20 133 vstem
          20 -90 rmoveto
          -102 callsubr
          337 449 -14 callgsubr
          -42 -47 -51 -36 hvcurveto
          16 98 -95 callgsubr
          22 -35 callgsubr
          -34 callsubr
          47 282 rlineto
          59 35 51 75 25 43 -18 -57 42 hhcurveto
          endchar
        </CharString>
        <CharString name="registered">
          46 callsubr
          323 60 122 -32 callsubr
          -203 -422 rmoveto
          52 callgsubr
          39 hlineto
          41 -104 rlineto
          -25 10 8 -4 48 hhcurveto
          26 hlineto
          4 20 rlineto
          -19 -12 2 6 -1 hvcurveto
          -45 114 rlineto
          43 14 35 33 44 vvcurveto
          34 -33 35 -85 vhcurveto
          27 callsubr
          130 256 47 callsubr
        </CharString>
        <CharString name="ring">
          -324 495 27 94 27 hstem
          134 28 95 27 vstem
          217 616 -76 callgsubr
          endchar
        </CharString>
        <CharString name="s">
          -144 -10 40 -9 -21 416 34 -10 -20 hstemhm
          23 22 14 69 142 82 -16 22 hintmask 00000000
          hintmask 00101101
          223 416 rmoveto
          60 53 9 callgsubr
          hintmask 00011110
          -26 callsubr
          hintmask 10101110
          -66 callgsubr
          hintmask 01001110
          -25 callgsubr
          hintmask 10101110
          -53 callgsubr
        </CharString>
        <CharString name="sacute">
          3 callsubr
          111 207 -176 74 callgsubr
          hintmask 0000100100000000
          340 677 -94 callgsubr
          hintmask 0010011001000000
          -223 -261 rmoveto
          60 53 9 callgsubr
          hintmask 0001011010000000
          -26 callsubr
          hintmask 1010011010000000
          -66 callgsubr
          hintmask 0100011010000000
          -25 callgsubr
          hintmask 1010011010000000
          -53 callgsubr
        </CharString>
        <CharString name="scaron">
          3 callsubr
          33 238 -129 74 callgsubr
          hintmask 0000100100000000
          228 515 -90 callsubr
          hintmask 0010011001000000
          62 -261 rmoveto
          60 53 9 callgsubr
          hintmask 0001011010000000
          -26 callsubr
          hintmask 1010011010000000
          -66 callgsubr
          hintmask 0100011010000000
          -25 callgsubr
          hintmask 1010011010000000
          -53 callgsubr
        </CharString>
        <CharString name="scedilla">
          -143 67 callgsubr
          21 callsubr
          7 88 47 74 callgsubr
          hintmask 1101011110000000
          54 -78 callsubr
          20 45 rlineto
          2 2 0 2 hhcurveto
          98 94 54 98 hvcurveto
          121 -224 -1 92 vvcurveto
          34 51 28 44 vhcurveto
          hintmask 1000111101000000
          60 53 9 callgsubr
          -26 callsubr
          hintmask 1101011110000000
          -66 callgsubr
          hintmask 1010011110000000
          -25 callgsubr
          14 19 -16 -9 33 hvcurveto
          -36 -81 rlineto
          -30 callsubr
        </CharString>
        <CharString name="scircumflex">
          3 callsubr
          142 74 callgsubr
          hintmask 0000100000000000
          304 677 rmoveto
          -50 hlineto
          -121 -162 rlineto
          26 hlineto
          107 87 79 -87 rlineto
          26 hlineto
          hintmask 0010011010000000
          -148 -99 rmoveto
          60 53 9 callgsubr
          hintmask 0001011100000000
          -26 callsubr
          hintmask 1010011100000000
          -66 callgsubr
          hintmask 0100011100000000
          -25 callgsubr
          hintmask 1010011100000000
          -53 callgsubr
        </CharString>
        <CharString name="scommaaccent">
          -144 -13 callgsubr
          28 21 callsubr
          -58 133 67 74 callgsubr
          hintmask 1100000010000000
          70 -90 rmoveto
          -102 callsubr
          hintmask 0000101100100000
          153 506 rmoveto
          60 53 9 callgsubr
          hintmask 0000011101000000
          -26 callsubr
          hintmask 0010101101000000
          -66 callgsubr
          hintmask 0001001101000000
          -25 callgsubr
          hintmask 0010101101000000
          -53 callgsubr
        </CharString>
        <CharString name="section">
          -141 -188 20 744 20 hstemhm
          10 69 -46 69 4 81 22 81 4 69 -46 70 hintmask 00000000
          hintmask 11011101
          387 503 rmoveto
          32 -42 61 -63 -97 -79 -56 -65 -39 22 -35 30 -35 vhcurveto
          -57 -18 -68 -55 -97 -102 176 -135 -62 vvcurveto
          -54 -48 -11 -35 vhcurveto
          hintmask 11101110
          -33 -14 34 31 hvcurveto
          8 2 7 7 vvcurveto
          16 -13 15 -17 -23 -18 -22 -23 -32 42 -61 63 97 78 56 65 39 -22 35 -30 35 vhcurveto
          57 18 68 55 97 102 -176 135 62 vvcurveto
          54 48 11 35 vhcurveto
          hintmask 11011101
          33 14 -34 -31 hvcurveto
          -8 -2 -7 -7 vvcurveto
          -16 14 -15 17 23 18 22 23 vhcurveto
          -205 -164 rmoveto
          hintmask 11011110
          52 -57 60 -57 -67 vvcurveto
          -49 -32 -26 -47 -14 vhcurveto
          -52 57 -61 57 67 vvcurveto
          49 33 26 47 14 vhcurveto
          endchar
        </CharString>
        <CharString name="semicolon">
          -291 -129 28 108 93 220 124 hstemhm
          31 133 -75 122 40 callsubr
          89 372 -47 callsubr
          hintmask 11010000
          -58 -339 -7 callsubr
        </CharString>
        <CharString name="seven">
          -158 11 -21 525 70 hstem
          93 72 vstem
          352 515 rmoveto
          -8 -50 -251 -340 -117 vvcurveto
          -13 16 -5 15 15 23 6 15 3 vhcurveto
          29 172 239 358 7 44 rrcurveto
          -336 hlineto
          -60 -133 rlineto
          20 hlineto
          20 36 34 21 15 6 rrcurveto
          endchar
        </CharString>
        <CharString name="six">
          -86 -10 32 314 34 215 18 hstem
          38 88 210 91 vstem
          258 336 rmoveto
          61 17 -48 -50 -115 -66 -101 -62 -45 -37 35 90 55 14 66 14 45 hvcurveto
          14 23 32 9 49 hhcurveto
          -93 10 rmoveto
          48 133 84 81 101 25 -9 18 rcurveline
          -109 -12 -242 -160 -265 vvcurveto
          -103 52 -73 112 133 92 99 153 77 -39 51 -126 -39 -32 -10 -14 -26 vhcurveto
          endchar
        </CharString>
        <CharString name="slash">
          -87 -21 -10 10 callsubr
        </CharString>
        <CharString name="space">
          -312 endchar
        </CharString>
        <CharString name="sterling">
          -18 -10 34 -32 80 56 34 183 44 176 30 hstemhm
          0 35 146 90 155 69 hintmask 00000000
          hintmask 10111111
          265 345 rmoveto
          105 48 callsubr
          -106 hlineto
          134 23 32 42 38 hhcurveto
          23 39 -9 -22 hvcurveto
          -3 78 callsubr
          24 27 19 33 49 -57 26 -79 -88 -60 -59 -147 -30 vhcurveto
          -68 hlineto
          -7 -44 rlineto
          68 hlineto
          -12 -85 6 -49 -11 -64 rrcurveto
          9 -16 -19 6 -23 hhcurveto
          -45 -54 -47 -50 -40 25 -35 61 40 36 22 33 28 hvcurveto
          hintmask 01111111
          -28 27 35 -25 53 hhcurveto
          118 58 115 11 2 hvcurveto
          8 1 -4 4 -5 -11 -22 -58 -128 hhcurveto
          -39 -28 12 16 -24 hvcurveto
          31 69 0 93 11 83 rrcurveto
          -172 -217 rmoveto
          20 16 -13 -19 16 hvcurveto
          hintmask 10111111
          -49 -14 -20 -23 -23 hhcurveto
          -31 -22 19 28 33 30 24 28 hvcurveto
          endchar
        </CharString>
        <CharString name="t">
          83 callgsubr
          145 -20 hstem
          56 95 49 36 vstem
          236 585 rmoveto
          -36 hlineto
          -73 -12 -62 -72 -80 -85 callsubr
          endchar
        </CharString>
        <CharString name="tbar">
          -217 -10 38 242 34 105 30 125 20 hstemhm
          18 270 -231 95 49 36 hintmask 00000000
          hintmask 11110010
          237 585 rmoveto
          22 callgsubr
          -18 -106 rlineto
          -70 hlineto
          hintmask 11111000
          -6 -34 rlineto
          71 hlineto
          -29 -171 rlineto
          hintmask 11110100
          -2 -10 -1 -9 -9 vvcurveto
          -45 22 -37 76 68 44 32 60 24 vhcurveto
          -16 callsubr
          -44 -17 -35 -22 -21 hhcurveto
          -33 -11 16 25 7 1 8 1 8 hvcurveto
          30 178 rlineto
          98 hlineto
          hintmask 11111000
          6 34 rlineto
          -98 hlineto
          18 105 -21 callsubr
          endchar
        </CharString>
        <CharString name="tcaron">
          83 callgsubr
          56 28 41 20 47 74 hstem
          56 95 49 36 54 133 vstem
          290 654 rmoveto
          -102 callsubr
          -54 -69 rmoveto
          -36 hlineto
          -73 -12 -62 -72 -80 -85 callsubr
          endchar
        </CharString>
        <CharString name="tcommaaccent">
          -217 67 callgsubr
          23 callsubr
          57 95 -13 88 -26 36 hintmask 00000000
          hintmask 11110100
          58 -78 callsubr
          19 45 67 1 43 32 24 59 rlinecurve
          -16 callsubr
          -44 -17 -35 -22 -21 hhcurveto
          hintmask 11111010
          -33 -11 16 25 7 1 8 1 8 hvcurveto
          54 318 17 callgsubr
          -52 -310 rlineto
          -2 -10 -1 -9 -9 vvcurveto
          -37 15 -32 48 -10 vhcurveto
          -36 -79 rlineto
          hintmask 11110100
          -30 callsubr
        </CharString>
        <CharString name="thorn">
          -29 -192 21 159 29 399 34 114 86 callsubr
          390 97 vstem
          -69 49 callgsubr
          23 139 rlineto
          203 170 99 228 71 -31 64 -103 -81 -58 -43 -51 -39 hvcurveto
          46 274 -86 callsubr
          24 hvcurveto
          -118 -710 rlineto
          -14 -8 -17 -6 -42 hhcurveto
          230 456 rmoveto
          60 32 60 71 82 hhcurveto
          32 20 -39 -66 -207 -127 -85 -144 -2 hvcurveto
          endchar
        </CharString>
        <CharString name="three">
          -76 -10 30 271 20 224 60 hstemhm
          331 85 -67 90 hintmask 00000000
          hintmask 11110000
          205 291 rmoveto
          20 7 5 23 hhcurveto
          61 15 -66 -48 -77 -35 -85 -119 hvcurveto
          -130 40 106 -38 hhcurveto
          -24 -21 -14 -41 -20 61 -61 113 170 68 91 111 61 -42 64 -57 14 hvcurveto
          hintmask 11101000
          65 34 57 46 79 vvcurveto
          68 -46 37 -116 -115 -61 -105 -23 -4 vhcurveto
          -7 -1 3 -3 4 15 17 78 121 hhcurveto
          61 32 -28 -44 -93 -97 -43 -56 -16 hvcurveto
          -6 -15 9 -14 15 hhcurveto
          endchar
        </CharString>
        <CharString name="threequarters">
          180 0 23 82 29 142 66 callgsubr
          262 67 -59 69 54 291 hintmask 00000000
          hintmask 00111010
          339 584 -42 callgsubr
          hintmask 00111100
          -35 callsubr
          hintmask 11000001
          331 -209 -67 callsubr
          -468 -294 10 callsubr
        </CharString>
        <CharString name="tilde">
          -131 500 53 6 53 hstem
          144 45 callgsubr
          368 -3 callgsubr
        </CharString>
        <CharString name="tildecomb">
          500 53 6 53 hstem
          -319 45 callgsubr
          -95 -3 callgsubr
        </CharString>
        <CharString name="trademark">
          205 282 17 231 55 -24 24 -17 17 hstemhm
          96 17 227 17 hintmask 00000000
          hintmask 10011100
          326 282 rmoveto
          88 43 callsubr
          36 214 71 -239 rlineto
          12 hlineto
          148 236 -36 -211 rlineto
          -4 -3 -9 -4 -22 hhcurveto
          -3 -17 rlineto
          118 43 callsubr
          43 253 rlineto
          4 3 8 4 22 hhcurveto
          3 17 rlineto
          -81 hlineto
          -144 -231 -67 231 rlineto
          -80 hlineto
          -3 -17 rlineto
          19 10 -3 -5 2 hvcurveto
          -43 -253 rlineto
          -4 -3 -8 -4 -22 hhcurveto
          hintmask 11001100
          -224 286 rmoveto
          -9 -55 rlineto
          17 hlineto
          hintmask 10101100
          3 19 4 9 6 3 rrcurveto
          79 hlineto
          -43 -254 rlineto
          -4 -3 -8 -4 -22 hhcurveto
          -3 -17 rlineto
          117 43 callsubr
          43 254 rlineto
          79 hlineto
          hintmask 11001100
          4 -2 3 -7 -4 -22 rrcurveto
          17 hlineto
          hintmask 10011100
          9 55 rlineto
          endchar
        </CharString>
        <CharString name="two">
          -75 0 70 465 60 hstem
          345 101 vstem
          -11 hmoveto
          372 hlineto
          60 133 rlineto
          -20 hlineto
          -20 -36 -34 -21 -15 -6 rrcurveto
          -211 hlineto
          7 45 318 194 151 vvcurveto
          74 -45 61 -115 -141 -67 -123 -23 -4 vhcurveto
          -7 -1 3 -3 4 15 24 96 146 hhcurveto
          59 21 -49 -47 -190 -348 -201 -8 -48 hvcurveto
          endchar
        </CharString>
        <CharString name="u">
          -51 callgsubr
          hstemhm
          57 89 hintmask 00000000
          hintmask 10110000
          441 106 rmoveto
          56 334 -106 callsubr
          hintmask 01110000
          -42 10 46 -17 81 hhcurveto
          -101 callgsubr
          endchar
        </CharString>
        <CharString name="uacute">
          -51 callgsubr
          75 27 callgsubr
          -5 callsubr
          403 677 -94 callgsubr
          hintmask 10101000
          -68 -571 rmoveto
          56 334 -106 callsubr
          hintmask 01101000
          -42 10 46 -17 81 hhcurveto
          -101 callgsubr
          endchar
        </CharString>
        <CharString name="ubreve">
          -51 callgsubr
          85 72 hstemhm
          57 89 64 62 callsubr
          hintmask 00000000
          hintmask 00010110
          316 525 -97 callsubr
          hintmask 10101000
          125 -419 rmoveto
          56 334 -106 callsubr
          hintmask 01101000
          -42 10 46 -17 81 hhcurveto
          -101 callgsubr
          endchar
        </CharString>
        <CharString name="ucircumflex">
          -51 callgsubr
          75 27 callgsubr
          -5 callsubr
          367 677 rmoveto
          -50 hlineto
          -121 -162 rlineto
          26 hlineto
          107 87 79 -87 rlineto
          26 hlineto
          hintmask 10101000
          7 -409 rmoveto
          56 334 -106 callsubr
          hintmask 01101000
          -42 10 46 -17 81 hhcurveto
          -101 callgsubr
          endchar
        </CharString>
        <CharString name="udieresis">
          -51 callgsubr
          75 98 hstemhm
          57 89 35 100 84 100 hintmask 00000000
          hintmask 00010110
          365 556 -104 callsubr
          hintmask 10101000
          -60 callgsubr
          hintmask 01101000
          -42 10 46 -17 81 hhcurveto
          -101 callgsubr
          endchar
        </CharString>
        <CharString name="ugrave">
          -51 callgsubr
          75 27 callgsubr
          -5 callsubr
          294 677 rmoveto
          -106 hlineto
          127 -162 rlineto
          26 hlineto
          hintmask 10101000
          100 -409 rmoveto
          56 334 -106 callsubr
          hintmask 01101000
          -42 10 46 -17 81 hhcurveto
          -101 callgsubr
          endchar
        </CharString>
        <CharString name="uhorn">
          0 callsubr
          hstemhm
          57 89 383 57 callsubr
          hintmask 00110110
          645 432 rmoveto
          -93 callgsubr
          -42 -7 -39 -28 -58 hhcurveto
          -11 hlineto
          hintmask 10101110
          18 106 -106 callsubr
          hintmask 01110110
          -64 callsubr
        </CharString>
        <CharString name="uhungarumlaut">
          -51 callgsubr
          75 27 callgsubr
          56 68 callsubr
          44 callsubr
          303 677 -94 callgsubr
          hintmask 00010010
          -22 callsubr
          hintmask 10101000
          -128 -571 rmoveto
          56 334 -106 callsubr
          hintmask 01101000
          -42 10 46 -17 81 hhcurveto
          -101 callgsubr
          endchar
        </CharString>
        <CharString name="umacron">
          -51 callgsubr
          89 44 hstemhm
          57 89 -5 callsubr
          186 573 87 callgsubr
          264 48 callsubr
          hintmask 10101000
          -9 -467 rmoveto
          56 334 -106 callsubr
          hintmask 01101000
          -42 10 46 -17 81 hhcurveto
          -101 callgsubr
          endchar
        </CharString>
        <CharString name="underscore">
          -92 -94 44 hstem
          -3 -50 rmoveto
          -8 -44 rlineto
          364 69 callgsubr
          endchar
        </CharString>
        <CharString name="uni00A0">
          -312 endchar
        </CharString>
        <CharString name="uni00AD">
          -153 83 340 rmoveto
          -14 -44 rlineto
          264 hlineto
          14 44 rlineto
          endchar
        </CharString>
        <CharString name="uni00B2">
          -190 280 56 274 50 hstem
          280 77 vstem
          277 336 -58 callgsubr
          endchar
        </CharString>
        <CharString name="uni00B3">
          -196 276 66 callgsubr
          269 67 -59 69 61 callsubr
          346 584 -42 callgsubr
          hintmask 11110000
          -35 callsubr
          endchar
        </CharString>
        <CharString name="uni00B5">
          30 -10 34 416 -20 hstem
          13 59 434 18 vstem
          120 -145 rmoveto
          41 -48 -8 57 vvcurveto
          6 0 8 1 8 vhcurveto
          10 57 rlineto
          -23 24 40 -11 56 hhcurveto
          65 52 38 33 33 hvcurveto
          -55 3 30 -16 36 hhcurveto
          69 27 18 37 6 hvcurveto
          -18 hlineto
          -14 -2 -20 -11 -17 hhcurveto
          -14 -13 11 30 6 1 8 1 8 hvcurveto
          60 357 rlineto
          -90 hlineto
          -58 -344 rlineto
          -32 -30 -49 -40 -52 hhcurveto
          -62 -16 31 41 9 1 10 2 10 hvcurveto
          53 315 rlineto
          -90 hlineto
          -96 -574 rlineto
          -1 -6 -1 -5 -5 vvcurveto
          -39 29 -11 20 27 31 17 38 vhcurveto
          endchar
        </CharString>
        <CharString name="uni00B9">
          -308 280 23 hstem
          49 176 vstem
          81 508 -62 callsubr
          endchar
        </CharString>
        <CharString name="uni0180">
          -17 -10 34 396 34 26 44 40 86 callsubr
          401 94 vstem
          50 480 rmoveto
          53 hlineto
          -73 -430 rlineto
          0 54 -60 141 143 127 102 186 137 -101 39 -69 -63 -50 -37 -41 -37 vhcurveto
          17 104 rlineto
          122 69 callgsubr
          -123 hlineto
          18 106 -88 callsubr
          -6 -35 rlineto
          -52 hlineto
          108 -199 rmoveto
          44 31 51 51 61 hhcurveto
          57 35 -53 -84 -155 -94 -104 -82 -45 -35 6 8 -27 hvcurveto
          endchar
        </CharString>
        <CharString name="uni0181">
          121 0 21 -21 34 256 29 232 34 hstemhm
          48 88 387 100 hintmask 00000000
          hintmask 10111100
          -49 callsubr
          hintmask 01111100
          -51 callsubr
          -121 -40 callgsubr
          199 105 -18 callgsubr
          -4 -29 -1 callsubr
          endchar
        </CharString>
        <CharString name="uni0186">
          30 -10 30 79 76 386 34 hstem
          17 93 339 100 vstem
          110 60 callgsubr
          139 147 190 138 232 183 -161 52 -84 -113 -75 -63 -66 -40 vhcurveto
          22 -12 rlineto
          62 42 75 45 70 hhcurveto
          70 94 -59 -151 -211 -140 -120 -110 -76 -52 40 48 callgsubr
        </CharString>
        <CharString name="uni0187">
          10 -10 19 callsubr
          52 84 hstem
          45 106 355 22 vstem
          721 671 rmoveto
          41 -43 19 -34 -22 -35 -11 -22 -18 vhcurveto
          -25 -30 -15 -18 -17 -85 rrcurveto
          -1 hlineto
          -79 callsubr
          86 20 -49 -54 hvcurveto
          22 hlineto
          14 84 10 59 12 26 12 9 rlinecurve
          21 callgsubr
          5 12 -5 13 hhcurveto
          32 23 25 33 hvcurveto
          endchar
        </CharString>
        <CharString name="uni0188">
          16 14 callgsubr
          17 84 hstem
          32 98 223 91 vstem
          353 323 rmoveto
          -21 20 -8 19 26 21 20 30 5 vhcurveto
          12 73 12 29 13 10 rrcurveto
          21 callgsubr
          5 11 -5 13 hhcurveto
          32 24 25 33 41 -43 19 -34 -22 -35 -11 -22 -18 hvcurveto
          -21 -26 -14 -17 -15 -60 rrcurveto
          23 -24 -44 12 -60 hhcurveto
          -138 -101 -96 -112 -19 hvcurveto
          -4 -25 -2 -22 -20 vvcurveto
          -37 callsubr
          -39 callsubr
          vhcurveto
          -16 callgsubr
          -70 -53 79 95 130 81 88 90 52 39 -11 -39 3 hvcurveto
          -15 -27 -13 -34 hvcurveto
          endchar
        </CharString>
        <CharString name="uni0189">
          66 64 callsubr
          484 99 hintmask 00000000
          hintmask 01110100
          165 -47 callgsubr
        </CharString>
        <CharString name="uni018A">
          175 -1 21 -21 34 518 34 hstemhm
          48 88 457 99 hintmask 00000000
          hintmask 10111000
          161 -42 callsubr
          -85 -511 rlineto
          -14 -8 -17 -6 -42 hhcurveto
          -3 -21 rlineto
          hintmask 01111000
          242 hlineto
          179 158 142 210 140 -93 94 -158 hvcurveto
          -167 -40 callgsubr
          199 105 rmoveto
          75 hlineto
          79 79 -53 -135 -215 -139 -115 -93 hvcurveto
          -87 hlineto
          endchar
        </CharString>
        <CharString name="uni018E">
          -41 0 -71 callsubr
          hstemhm
          102 21 hintmask 00000000
          hintmask 10101100
          423 hmoveto
          -57 callgsubr
          -403 hlineto
          58 callsubr
          hintmask 01110100
          15 callsubr
          207 hlineto
          -38 -230 rlineto
          -140 hlineto
          -9 4 -4 8 17 vvcurveto
          9 1 11 2 14 vhcurveto
          -21 hlineto
          -27 -160 rlineto
          21 hlineto
          7 42 9 15 15 6 rrcurveto
          140 hlineto
          -42 -253 rlineto
          -228 hlineto
          -13 6 -14 21 -8 36 rrcurveto
          -20 hlineto
          hintmask 10101100
          8 -97 rlineto
          endchar
        </CharString>
        <CharString name="uni018F">
          70 -10 34 222 34 281 34 hstem
          27 105 351 106 vstem
          470 246 rmoveto
          -134 -31 -83 -88 -106 hhcurveto
          -71 -47 76 115 10 0 10 1 11 hvcurveto
          344 34 rmoveto
          -445 hlineto
          -3 -20 -2 -20 -19 vvcurveto
          -139 89 -92 129 165 179 140 226 130 -80 109 -163 -123 -70 -70 -60 -35 vhcurveto
          22 -12 rlineto
          49 26 84 59 70 hhcurveto
          89 74 -70 -137 -23 -2 -25 -4 -26 hvcurveto
          endchar
        </CharString>
        <CharString name="uni0190">
          -31 -10 34 284 34 219 34 -10 -20 hstemhm
          32 105 -43 106 265 22 hintmask 00000000
          hintmask 11100110
          337 308 rmoveto
          5 34 rlineto
          -96 -46 32 64 73 47 50 109 54 55 -47 -56 hvcurveto
          22 hlineto
          hintmask 11010110
          -71 callgsubr
          hintmask 11100110
          -19 -19 30 -61 hhcurveto
          -135 -132 -30 -139 -51 39 -33 58 -18 hvcurveto
          hintmask 11101010
          -101 -30 -58 -65 -90 vvcurveto
          -60 38 -89 177 136 59 70 60 35 vhcurveto
          -16 callsubr
          -49 -26 -82 -59 -74 hhcurveto
          -83 -53 42 76 108 76 58 124 hvcurveto
          endchar
        </CharString>
        <CharString name="uni0191">
          -84 -156 30 413 19 callgsubr
          -21 21 hstemhm
          -122 87 493 21 hintmask 00000000
          hintmask 11101100
          -122 -95 rmoveto
          -41 68 39 callsubr
          vhcurveto
          48 287 -105 callsubr
          hintmask 11011100
          16 97 rlineto
          -403 -107 callgsubr
          -93 -558 rlineto
          -76 -13 -24 8 callsubr
          -24 -20 -23 hvcurveto
          endchar
        </CharString>
        <CharString name="uni0193">
          72 40 callgsubr
          52 84 hstem
          44 103 378 22 vstem
          739 671 rmoveto
          41 -43 19 -34 -22 -34 -11 -22 -18 vhcurveto
          -25 -30 -15 -18 -17 -85 rrcurveto
          -1 hlineto
          -19 -46 30 -51 hhcurveto
          -164 -206 -136 -226 -131 88 -112 165 120 73 59 31 22 hvcurveto
          29 168 rlineto
          -91 callgsubr
          3 84 callsubr
          -3 -105 callgsubr
          -35 -205 rlineto
          -11 -31 -38 -8 -40 hhcurveto
          -73 -85 51 140 187 130 159 132 86 30 9 callgsubr
          11 66 12 73 11 29 13 10 rlinecurve
          21 callgsubr
          6 12 -5 13 hhcurveto
          32 22 25 33 hvcurveto
          endchar
        </CharString>
        <CharString name="uni0194">
          -30 -10 47 527 21 hstem
          138 43 53 93 vstem
          251 585 rmoveto
          -212 hlineto
          -63 callgsubr
          42 14 -8 -13 5 hvcurveto
          80 -215 6 -16 16 -43 14 -47 rlinecurve
          -41 -54 -33 -43 -62 vvcurveto
          -49 26 -24 48 71 44 59 76 52 -14 59 -14 43 vhcurveto
          215 265 rlineto
          13 10 14 7 42 hhcurveto
          -82 callgsubr
          -153 hlineto
          -63 callgsubr
          31 16 -3 -7 8 hvcurveto
          -195 -241 -94 242 rlineto
          6 10 16 3 28 hhcurveto
          -23 -381 rmoveto
          6 -26 4 -24 -21 vvcurveto
          -26 -15 -49 -22 vhcurveto
          -5 10 -11 4 21 vvcurveto
          49 14 20 29 42 vhcurveto
          endchar
        </CharString>
        <CharString name="uni0196">
          -220 -10 38 536 21 hstem
          67 95 vstem
          164 92 rmoveto
          83 493 rlineto
          -159 -107 callgsubr
          -74 -444 rlineto
          -2 -10 -1 -9 -9 vvcurveto
          -45 22 -37 76 68 44 32 60 24 vhcurveto
          -16 callsubr
          -44 -17 -35 -22 -21 hhcurveto
          -33 -11 16 25 7 1 8 1 8 hvcurveto
          endchar
        </CharString>
        <CharString name="uni0197">
          -227 0 21 256 34 253 21 hstem
          15 316 vstem
          15 20 callsubr
          39 236 rlineto
          81 76 callsubr
          -81 hlineto
          39 233 rlineto
          -103 callgsubr
          -39 -233 rlineto
          -91 77 callgsubr
          91 hlineto
          -39 -236 rlineto
          -93 callsubr
          endchar
        </CharString>
        <CharString name="uni0198">
          138 0 21 530 34 -21 21 hstemhm
          48 88 hintmask 00000000
          hintmask 11010000
          -49 callsubr
          72 callgsubr
          84 503 rlineto
          hintmask 10110000
          -57 callsubr
          -153 -40 callgsubr
          301 -446 rmoveto
          195 hlineto
          -82 callgsubr
          -37 -16 6 10 -8 hvcurveto
          -184 305 235 199 rlineto
          9 10 13 14 42 hhcurveto
          -82 callgsubr
          -157 hlineto
          -63 callgsubr
          26 15 -2 -5 9 hvcurveto
          -285 -243 179 -290 rlineto
          -2 -9 -12 -1 -16 hhcurveto
          endchar
        </CharString>
        <CharString name="uni0199">
          -68 0 90 callgsubr
          160 30 hstem
          289 88 vstem
          377 3 callgsubr
          -79 -474 rlineto
          90 hlineto
          82 488 75 callsubr
          hhcurveto
          -8 callgsubr
          25 20 23 hvcurveto
          105 -129 rmoveto
          -157 hlineto
          -63 callgsubr
          24 15 -2 -4 9 hvcurveto
          -203 -159 141 -254 rlineto
          140 hlineto
          -82 callgsubr
          -37 -18 3 16 -5 hvcurveto
          -132 239 162 127 rlineto
          7 10 16 6 31 hhcurveto
          endchar
        </CharString>
        <CharString name="uni019D">
          83 -200 84 137 -21 564 21 hstem
          -125 -140 rmoveto
          -41 44 -19 34 22 34 11 22 19 vhcurveto
          28 34 16 18 19 115 83 497 rcurveline
          310 -497 rlineto
          9 hlineto
          91 544 rlineto
          -57 callsubr
          -160 -107 callgsubr
          -62 -368 -262 409 rlineto
          -134 -107 callgsubr
          -90 -537 -11 -67 -15 -36 -12 -9 rlinecurve
          -7 -8 -12 -4 -12 hhcurveto
          -12 -11 4 11 -4 hvcurveto
          14 -6 -11 5 -13 hhcurveto
          -32 -24 -25 -33 hvcurveto
          endchar
        </CharString>
        <CharString name="uni019F">
          92 -10 34 254 34 249 34 hstem
          46 101 362 101 vstem
          379 41 callsubr
          175 158 162 198 137 -86 108 -145 hvcurveto
          -225 -283 rmoveto
          114 22 72 135 121 hhcurveto
          101 39 -102 -105 -14 -1 -14 -1 -14 hvcurveto
          -4 -34 rmoveto
          -115 -21 -72 -139 -123 hhcurveto
          -102 -38 101 103 17 1 17 2 16 hvcurveto
          endchar
        </CharString>
        <CharString name="uni01A4">
          103 0 25 callgsubr
          hstem
          48 88 430 99 vstem
          -49 callsubr
          -40 callsubr
          83 hlineto
          166 103 74 109 64 -63 72 -165 hvcurveto
          -163 hlineto
          -121 -21 -12 -23 -38 hvcurveto
          -29 -18 -17 -35 -34 vvcurveto
          -34 16 -37 42 27 28 20 34 vhcurveto
          199 105 rmoveto
          71 hlineto
          104 31 -42 -51 -109 -58 -49 -107 hvcurveto
          -83 hlineto
          endchar
        </CharString>
        <CharString name="uni01A5">
          -30 -192 21 161 34 392 34 140 30 hstem
          288 87 11 96 vstem
          375 559 rmoveto
          41 -68 20 -53 -68 -62 -39 -117 -20 vhcurveto
          -103 -615 rlineto
          -14 -8 -17 -6 -42 hhcurveto
          -3 -21 rlineto
          -2 callgsubr
          17 104 rlineto
          76 13 26 36 24 hhcurveto
          20 2 -8 callsubr
          9 -17 20 hhcurveto
          24 25 20 23 hvcurveto
          -206 -241 rmoveto
          48 31 48 50 66 hhcurveto
          22 -43 50 -33 -67 vvcurveto
          87 callsubr
          vhcurveto
          endchar
        </CharString>
        <CharString name="uni01A9">
          -81 0 58 497 30 hstem
          424 21 vstem
          445 492 rmoveto
          16 93 rlineto
          -382 hlineto
          166 -282 -284 -303 rlineto
          404 hlineto
          56 122 rlineto
          -21 hlineto
          -19 -42 -32 -16 -15 -6 rrcurveto
          -252 hlineto
          257 276 -129 221 rlineto
          205 hlineto
          8 -4 5 -8 -16 vvcurveto
          -9 -2 -11 -2 -15 vhcurveto
          endchar
        </CharString>
        <CharString name="uni01AA">
          -290 -110 30 502 30 148 30 hstemhm
          -12 74 3 88 -2 85 hintmask 00000000
          hintmask 11111000
          133 630 rmoveto
          -76 -69 -31 -90 -53 36 -34 71 13 12 1 3 13 hvcurveto
          -63 -380 rlineto
          -3 -18 -2 -16 -14 vvcurveto
          -80 45 -28 58 71 46 20 36 16 -10 16 -20 -20 -14 -11 -23 -10 vhcurveto
          -15 -6 -8 -9 -14 hhcurveto
          -18 -12 20 41 14 1 17 3 20 hvcurveto
          74 442 rlineto
          hintmask 11110100
          3 18 2 16 14 vvcurveto
          80 -45 28 -58 vhcurveto
          -43 -178 rmoveto
          -17 -11 21 30 45 34 52 22 19 14 -20 -34 -58 -26 -36 -35 hvcurveto
          endchar
        </CharString>
        <CharString name="uni01AC">
          30 0 21 530 34 hstem
          50 88 444 21 vstem
          163 -42 callsubr
          46 hlineto
          -85 -510 rlineto
          -14 -8 -16 -6 -42 hhcurveto
          -4 -21 rlineto
          218 -77 callgsubr
          -343 -40 callgsubr
          endchar
        </CharString>
        <CharString name="uni01AD">
          83 callgsubr
          160 30 hstem
          56 95 160 88 vstem
          399 569 rmoveto
          41 -69 20 -53 -88 -32 -60 -46 -16 vhcurveto
          -45 -16 -10 -39 -69 -85 callsubr
          8 48 75 callsubr
          hhcurveto
          -8 callgsubr
          25 20 23 hvcurveto
          endchar
        </CharString>
        <CharString name="uni01AE">
          -22 -156 30 677 34 hstem
          51 21 98 89 7 92 174 21 vstem
          174 hmoveto
          -24 callsubr
          -17 -11 19 39 15 1 18 4 21 hvcurveto
          94 565 rlineto
          164 -92 callsubr
          16 97 rlineto
          -502 hlineto
          13 callgsubr
          endchar
        </CharString>
        <CharString name="uni01B1">
          101 -10 34 527 34 hstem
          46 100 369 95 vstem
          610 329 rmoveto
          86 -27 78 -38 58 vhcurveto
          93 76 callsubr
          -196 hlineto
          41 -48 26 -73 -95 vvcurveto
          -168 -72 -177 -155 -102 -40 82 97 173 88 140 82 69 vhcurveto
          -196 77 callgsubr
          93 hlineto
          -81 -81 -80 -119 -144 vvcurveto
          -132 89 -85 147 185 143 134 205 vhcurveto
          endchar
        </CharString>
        <CharString name="uni01B2">
          46 -10 34 532 39 -31 21 hstemhm
          79 89 182 84 98 36 hintmask 00000000
          hintmask 11011100
          350 525 rmoveto
          -21 20 -19 20 20 21 24 15 3 vhcurveto
          2 10 -3 8 -5 6 rrcurveto
          6 10 9 2 10 hhcurveto
          47 28 -75 -74 -211 -122 -172 -152 -49 -41 35 97 19 2 22 4 25 hvcurveto
          54 322 rlineto
          hintmask 10111100
          -26 callgsubr
          -292 rlineto
          -6 -34 -2 -29 -26 vvcurveto
          -149 87 -24 92 167 143 182 233 vhcurveto
          hintmask 11011100
          97 -48 93 -76 -32 -62 -28 -42 vhcurveto
          endchar
        </CharString>
        <CharString name="uni01B3">
          134 -46 callgsubr
          -20 30 hstemhm
          641 87 hintmask 00000000
          hintmask 10110000
          728 535 rmoveto
          41 -57 19 -61 -39 -40 -26 -39 -30 vhcurveto
          -192 -249 -110 271 rlineto
          hintmask 11010000
          9 10 17 3 33 hhcurveto
          -82 callgsubr
          -25 callsubr
          37 16 -7 -12 7 hvcurveto
          132 -325 -74 callsubr
          205 266 rlineto
          hintmask 10110000
          32 24 27 15 27 hhcurveto
          20 2 -8 callsubr
          9 -17 20 hhcurveto
          25 24 20 24 hvcurveto
          endchar
        </CharString>
        <CharString name="uni01B4">
          52 -184 58 545 21 -20 30 hstemhm
          531 88 hintmask 00000000
          hintmask 10110000
          619 389 rmoveto
          41 -61 20 -61 -49 -53 -40 -57 -33 vhcurveto
          -131 -231 rlineto
          hintmask 11010000
          -44 callsubr
          -61 -108 rlineto
          -11 -6 -10 -7 -15 -14 -5 17 -16 hhcurveto
          -21 -18 -23 -21 -19 21 -12 17 29 50 13 69 40 hvcurveto
          230 404 rlineto
          hintmask 10110000
          82 47 27 36 36 callgsubr
          hvcurveto
          endchar
        </CharString>
        <CharString name="uni01B7">
          -60 -10 30 86 76 335 68 hstem
          5 93 254 90 vstem
          98 153 rmoveto
          21 -21 8 -19 -32 -21 -29 -40 -63 53 -60 119 159 106 107 121 80 -59 43 -70 15 vhcurveto
          152 229 rlineto
          -286 hlineto
          -63 -132 rlineto
          21 hlineto
          19 42 33 16 15 6 rrcurveto
          137 hlineto
          -123 -182 rlineto
          75 59 -37 -81 -96 -61 -101 -119 -81 -32 47 48 callgsubr
        </CharString>
        <CharString name="uni01C0">
          -376 21 -21 hstem
          26 144 vstem
          130 620 rmoveto
          42 callgsubr
          endchar
        </CharString>
        <CharString name="uni01C1">
          -276 0 21 hstemhm
          26 144 -44 144 hintmask 00000000
          hintmask 10100000
          230 620 rmoveto
          42 callgsubr
          hintmask 11000000
          -140 hmoveto
          42 callgsubr
          endchar
        </CharString>
        <CharString name="uni01C2">
          -281 21 -21 250 40 40 40 hstem
          24 240 vstem
          176 620 rmoveto
          -42 -250 rlineto
          -90 hlineto
          -7 -40 rlineto
          90 hlineto
          -6 -40 rlineto
          -90 hlineto
          -7 -40 rlineto
          90 hlineto
          -42 -250 rlineto
          40 hlineto
          42 250 rlineto
          90 hlineto
          7 40 rlineto
          -90 hlineto
          6 40 rlineto
          90 hlineto
          7 40 rlineto
          -90 hlineto
          42 250 rlineto
          endchar
        </CharString>
        <CharString name="uni01C3">
          -339 -10 124 496 20 hstemhm
          13 122 -52 47 hintmask 00000000
          hintmask 11100000
          13 -33 callsubr
        </CharString>
        <CharString name="uni01CD">
          -59 callsubr
          35 162 hstem
          249 238 vstem
          316 620 -90 callsubr
          47 -782 rmoveto
          -107 callsubr
          endchar
        </CharString>
        <CharString name="uni01CE">
          -70 -10 34 -24 23 391 36 65 162 -13 callsubr
          15 238 -127 73 callgsubr
          hintmask 0001001000000000
          242 515 -90 callsubr
          hintmask 1010010010000000
          -15 -341 -91 callsubr
          hintmask 1010100100000000
          -88 callgsubr
          hintmask 0110000100000000
          -26 20 42 -11 65 hhcurveto
          -101 callgsubr
          29 176 rlineto
          hintmask 1010010010000000
          -99 callgsubr
          hintmask 1010100100000000
          -99 callsubr
          endchar
        </CharString>
        <CharString name="uni01CF">
          -244 -46 callgsubr
          35 162 62 callgsubr
          -196 238 40 callsubr
          189 620 -90 callsubr
          hintmask 11010000
          -120 -782 rmoveto
          -98 callgsubr
          endchar
        </CharString>
        <CharString name="uni01D0">
          -28 callsubr
          65 162 hstemhm
          44 164 -126 238 44 callsubr
          149 515 -90 callsubr
          hintmask 11101000
          24 -298 -84 callgsubr
          endchar
        </CharString>
        <CharString name="uni01D1">
          -9 callsubr
          162 hstemhm
          46 100 146 238 -21 101 40 callsubr
          359 620 -90 callsubr
          hintmask 11010100
          -146 -553 -104 callgsubr
          endchar
        </CharString>
        <CharString name="uni01D2">
          -39 callgsubr
          65 162 hstemhm
          32 97 99 238 -57 97 40 callsubr
          295 515 -90 callsubr
          hintmask 11010100
          -99 -501 -102 callgsubr
        </CharString>
        <CharString name="uni01D3">
          -32 callgsubr
          35 162 hstem
          79 91 135 238 vstem
          372 620 -90 callsubr
          -7 -758 rmoveto
          -77 -51 -100 callgsubr
          -139 86 -47 117 107 -12 callsubr
          184 31 vhcurveto
          49 296 rlineto
          -57 callsubr
          -160 -107 callgsubr
          -53 -316 -66 callsubr
          endchar
        </CharString>
        <CharString name="uni01D4">
          -51 callgsubr
          75 27 callgsubr
          78 238 44 callsubr
          291 515 -90 callsubr
          hintmask 10101000
          217 -571 rmoveto
          56 334 -106 callsubr
          hintmask 01101000
          -42 10 46 -17 81 hhcurveto
          -101 callgsubr
          endchar
        </CharString>
        <CharString name="uni01D5">
          -32 callgsubr
          35 98 36 44 hstemhm
          79 91 92 100 -72 271 -115 100 hintmask 00000000
          hintmask 00010010
          297 798 87 callgsubr
          264 48 callsubr
          hintmask 11101101
          -115 -137 -104 callsubr
          36 -637 rmoveto
          -77 -51 -100 callgsubr
          -139 86 -47 117 107 -12 callsubr
          184 31 vhcurveto
          49 296 rlineto
          -57 callsubr
          -160 -107 callgsubr
          -53 -316 -66 callsubr
          endchar
        </CharString>
        <CharString name="uni01D6">
          -51 callgsubr
          75 98 60 44 hstemhm
          57 89 35 100 -72 271 -115 100 -27 callsubr
          hintmask 0000100100000000
          216 717 87 callgsubr
          264 48 callsubr
          hintmask 0001001010000000
          -115 -161 -81 callsubr
        </CharString>
</ttFont>
